G04 Layer_Physical_Order=2*
G04 Layer_Color=36540*
%FSLAX44Y44*%
%MOMM*%
G71*
G01*
G75*
%ADD39C,0.1500*%
%ADD41C,0.5000*%
%ADD42C,0.2000*%
%ADD44C,0.8000*%
%ADD46C,1.6000*%
%ADD59C,0.4000*%
G36*
X858000Y375000D02*
X858018D01*
X858344Y371687D01*
X859311Y368501D01*
X860880Y365565D01*
X862992Y362992D01*
X865565Y360880D01*
X868501Y359311D01*
X871687Y358344D01*
X875000Y358018D01*
Y358000D01*
X895000D01*
Y42000D01*
X875000D01*
Y41982D01*
X871687Y41656D01*
X868501Y40689D01*
X865565Y39120D01*
X862992Y37008D01*
X860880Y34435D01*
X859311Y31499D01*
X858344Y28313D01*
X858018Y25000D01*
X858000D01*
Y5000D01*
X625617D01*
X625091Y6270D01*
X626870Y8049D01*
X627000Y8024D01*
X628522Y8326D01*
X629812Y9188D01*
X630674Y10478D01*
X630976Y12000D01*
X630674Y13522D01*
X629812Y14812D01*
X628522Y15674D01*
X627000Y15976D01*
X625478Y15674D01*
X624188Y14812D01*
X623326Y13522D01*
X623024Y12000D01*
X623049Y11870D01*
X620881Y9702D01*
X616680D01*
X615919Y10972D01*
X616059Y11234D01*
X616522Y11326D01*
X617812Y12188D01*
X618674Y13478D01*
X618976Y15000D01*
X618674Y16522D01*
X617812Y17812D01*
X616522Y18674D01*
X615000Y18976D01*
X613478Y18674D01*
X612188Y17812D01*
X611326Y16522D01*
X611024Y15000D01*
X609788Y14702D01*
X408119D01*
X397910Y24911D01*
X397034Y25496D01*
X396000Y25702D01*
X344119D01*
X339696Y30125D01*
X340182Y31298D01*
X632638D01*
X645847Y18089D01*
X646723Y17504D01*
X647757Y17298D01*
X650312D01*
X650326Y17228D01*
X651188Y15938D01*
X652478Y15076D01*
X654000Y14774D01*
X655522Y15076D01*
X656812Y15938D01*
X657674Y17228D01*
X657976Y18750D01*
X657674Y20272D01*
X656853Y21500D01*
X657674Y22728D01*
X657976Y24250D01*
X657674Y25772D01*
X656812Y27062D01*
X655522Y27924D01*
X654000Y28226D01*
X652478Y27924D01*
X651188Y27062D01*
X650935Y26682D01*
X649300Y26521D01*
X638696Y37125D01*
X639182Y38298D01*
X651000D01*
X652034Y38504D01*
X652911Y39090D01*
X663371Y49549D01*
X663500Y49524D01*
X665022Y49826D01*
X666312Y50688D01*
X667174Y51978D01*
X667476Y53500D01*
X667174Y55022D01*
X666312Y56312D01*
X665022Y57174D01*
X663500Y57476D01*
X661978Y57174D01*
X660688Y56312D01*
X659826Y55022D01*
X659524Y53500D01*
X659549Y53370D01*
X649881Y43702D01*
X302119D01*
X283911Y61911D01*
X283034Y62496D01*
X282000Y62702D01*
X281000D01*
Y67298D01*
X305434D01*
X306228Y66028D01*
X306024Y65000D01*
X306326Y63478D01*
X307188Y62188D01*
X308478Y61326D01*
X310000Y61024D01*
X311522Y61326D01*
X312812Y62188D01*
X313674Y63478D01*
X313976Y65000D01*
X313772Y66028D01*
X314566Y67298D01*
X317881D01*
X324089Y61090D01*
X324090Y61090D01*
X324966Y60504D01*
X326000Y60298D01*
X326000Y60298D01*
X405000D01*
X406034Y60504D01*
X406911Y61090D01*
X411870Y66049D01*
X412000Y66024D01*
X413522Y66326D01*
X414812Y67188D01*
X415674Y68478D01*
X415976Y70000D01*
X415674Y71522D01*
X414812Y72812D01*
X413522Y73674D01*
X412000Y73976D01*
X410478Y73674D01*
X409188Y72812D01*
X408326Y71522D01*
X408024Y70000D01*
X408049Y69870D01*
X403881Y65702D01*
X388873D01*
X388488Y66972D01*
X388812Y67188D01*
X389674Y68478D01*
X389976Y70000D01*
X389674Y71522D01*
X388812Y72812D01*
X387522Y73674D01*
X386000Y73976D01*
X384478Y73674D01*
X383188Y72812D01*
X382326Y71522D01*
X382024Y70000D01*
X380788Y69702D01*
X333119D01*
X328696Y74125D01*
X329182Y75298D01*
X464638D01*
X467847Y72090D01*
X468723Y71504D01*
X469757Y71298D01*
X472312D01*
X472326Y71228D01*
X473188Y69938D01*
X474478Y69076D01*
X476000Y68774D01*
X477522Y69076D01*
X478812Y69938D01*
X479674Y71228D01*
X479976Y72750D01*
X479674Y74272D01*
X478853Y75500D01*
X479674Y76728D01*
X479976Y78250D01*
X479674Y79772D01*
X478834Y81028D01*
X478874Y81237D01*
X479247Y82298D01*
X497312D01*
X497326Y82228D01*
X498188Y80938D01*
X499478Y80076D01*
X501000Y79774D01*
X502522Y80076D01*
X503812Y80938D01*
X504674Y82228D01*
X504976Y83750D01*
X504674Y85272D01*
X503853Y86500D01*
X504674Y87728D01*
X504976Y89250D01*
X504674Y90772D01*
X503812Y92062D01*
X502522Y92924D01*
X501000Y93226D01*
X499478Y92924D01*
X498188Y92062D01*
X497326Y90772D01*
X497312Y90702D01*
X441000D01*
Y93179D01*
X445119Y97298D01*
X472312D01*
X472326Y97228D01*
X473188Y95938D01*
X474478Y95076D01*
X476000Y94774D01*
X477522Y95076D01*
X478812Y95938D01*
X479674Y97228D01*
X479976Y98750D01*
X479674Y100272D01*
X478853Y101500D01*
X479674Y102728D01*
X479976Y104250D01*
X479674Y105772D01*
X478812Y107062D01*
X477522Y107924D01*
X476000Y108226D01*
X474478Y107924D01*
X473188Y107062D01*
X472326Y105772D01*
X472312Y105702D01*
X442757D01*
X441723Y105496D01*
X440847Y104911D01*
X436638Y100702D01*
X362069D01*
X361543Y101972D01*
X364621Y105049D01*
X364750Y105024D01*
X366272Y105326D01*
X367562Y106188D01*
X368424Y107478D01*
X368726Y109000D01*
X368522Y110028D01*
X369316Y111298D01*
X374986D01*
X375665Y110028D01*
X375326Y109522D01*
X375024Y108000D01*
X375326Y106478D01*
X376188Y105188D01*
X377478Y104326D01*
X379000Y104024D01*
X380522Y104326D01*
X381812Y105188D01*
X382674Y106478D01*
X382976Y108000D01*
X382674Y109522D01*
X382335Y110028D01*
X383014Y111298D01*
X406131D01*
X408549Y108879D01*
X408524Y108750D01*
X408826Y107228D01*
X409688Y105938D01*
X410978Y105076D01*
X412500Y104774D01*
X414022Y105076D01*
X415312Y105938D01*
X415688D01*
X416978Y105076D01*
X418500Y104774D01*
X420022Y105076D01*
X421312Y105938D01*
X422174Y107228D01*
X422476Y108750D01*
X422222Y110028D01*
X422683Y110893D01*
X423015Y111298D01*
X497986D01*
X498665Y110028D01*
X498326Y109522D01*
X498024Y108000D01*
X498326Y106478D01*
X499188Y105188D01*
X500478Y104326D01*
X502000Y104024D01*
X503522Y104326D01*
X504812Y105188D01*
X505674Y106478D01*
X505976Y108000D01*
X505674Y109522D01*
X505335Y110028D01*
X506014Y111298D01*
X517986D01*
X518665Y110028D01*
X518326Y109522D01*
X518024Y108000D01*
X518326Y106478D01*
X519188Y105188D01*
X520478Y104326D01*
X522000Y104024D01*
X523522Y104326D01*
X524812Y105188D01*
X525674Y106478D01*
X525976Y108000D01*
X525674Y109522D01*
X525335Y110028D01*
X526014Y111298D01*
X550832D01*
X551431Y110178D01*
X551326Y110022D01*
X551024Y108500D01*
X551326Y106978D01*
X552188Y105688D01*
X553478Y104826D01*
X555000Y104524D01*
X556522Y104826D01*
X557812Y105688D01*
X558674Y106978D01*
X558976Y108500D01*
X558674Y110022D01*
X558569Y110178D01*
X559168Y111298D01*
X580986D01*
X581665Y110028D01*
X581326Y109522D01*
X581024Y108000D01*
X581326Y106478D01*
X582188Y105188D01*
X583478Y104326D01*
X585000Y104024D01*
X586522Y104326D01*
X587812Y105188D01*
X588674Y106478D01*
X588976Y108000D01*
X588674Y109522D01*
X588335Y110028D01*
X589014Y111298D01*
X626127D01*
X626512Y110028D01*
X626188Y109812D01*
X625326Y108522D01*
X625024Y107000D01*
X625326Y105478D01*
X626188Y104188D01*
X627478Y103326D01*
X629000Y103024D01*
X630522Y103326D01*
X631812Y104188D01*
X632674Y105478D01*
X632976Y107000D01*
X632674Y108522D01*
X631812Y109812D01*
X631488Y110028D01*
X631873Y111298D01*
X698881D01*
X704298Y105881D01*
Y100000D01*
X704504Y98966D01*
X705089Y98089D01*
X705337Y97842D01*
X705017Y96366D01*
X704188Y95812D01*
X703326Y94522D01*
X703024Y93000D01*
X703326Y91478D01*
X704188Y90188D01*
X705478Y89326D01*
X707000Y89024D01*
X708522Y89326D01*
X709812Y90188D01*
X710674Y91478D01*
X710976Y93000D01*
X710913Y93316D01*
X711719Y94298D01*
X715881D01*
X722089Y88090D01*
X722089Y88090D01*
X722966Y87504D01*
X724000Y87298D01*
X724000Y87298D01*
X744000D01*
X745034Y87504D01*
X745910Y88090D01*
X750910Y93090D01*
X751496Y93966D01*
X751702Y95000D01*
Y99115D01*
X751812Y99188D01*
X752674Y100478D01*
X752976Y102000D01*
X752674Y103522D01*
X751812Y104812D01*
X750522Y105674D01*
X749000Y105976D01*
X747478Y105674D01*
X746188Y104812D01*
X745392Y103620D01*
X744522Y102674D01*
X743000Y102976D01*
X741478Y102674D01*
X740188Y101812D01*
X739326Y100522D01*
X739024Y99000D01*
X739326Y97478D01*
X740188Y96188D01*
X741478Y95326D01*
X743000Y95024D01*
X743507Y95125D01*
X744133Y93954D01*
X742881Y92702D01*
X735566D01*
X734772Y93972D01*
X734976Y95000D01*
X734674Y96522D01*
X733881Y97707D01*
X733732Y98111D01*
Y98890D01*
X733881Y99293D01*
X734674Y100478D01*
X734976Y102000D01*
X734674Y103522D01*
X733812Y104812D01*
X732522Y105674D01*
X731000Y105976D01*
X730871Y105951D01*
X709911Y126910D01*
X709034Y127496D01*
X708000Y127702D01*
X650182D01*
X649696Y128875D01*
X675910Y155090D01*
X676496Y155966D01*
X676702Y157000D01*
Y215881D01*
X680910Y220089D01*
X681496Y220966D01*
X681702Y222000D01*
Y269115D01*
X681812Y269188D01*
X682674Y270478D01*
X682976Y272000D01*
X682674Y273522D01*
X681812Y274812D01*
X680522Y275674D01*
X679000Y275976D01*
X678286Y275834D01*
X677016Y276776D01*
Y316000D01*
X676558Y318302D01*
X675254Y320254D01*
X659254Y336254D01*
X657302Y337558D01*
X655000Y338016D01*
X500492D01*
X474254Y364254D01*
X472302Y365558D01*
X470000Y366016D01*
X329000D01*
X326698Y365558D01*
X324746Y364254D01*
X265508Y305016D01*
X173000D01*
X170698Y304558D01*
X168746Y303254D01*
X140746Y275254D01*
X139442Y273302D01*
X138984Y271000D01*
Y263937D01*
X127000D01*
X126259Y263790D01*
X125630Y263370D01*
X125210Y262741D01*
X125063Y262000D01*
Y245000D01*
X125210Y244259D01*
X125630Y243630D01*
X126259Y243210D01*
X127000Y243063D01*
X163000D01*
X163741Y243210D01*
X164370Y243630D01*
X164790Y244259D01*
X164937Y245000D01*
Y262000D01*
X164790Y262741D01*
X164370Y263370D01*
X163741Y263790D01*
X163000Y263937D01*
X151016D01*
Y268508D01*
X175492Y292984D01*
X268000D01*
X270302Y293442D01*
X272254Y294746D01*
X331492Y353984D01*
X467508D01*
X493746Y327746D01*
X495698Y326442D01*
X498000Y325984D01*
X652508D01*
X664984Y313508D01*
Y244000D01*
Y237000D01*
Y230000D01*
X665442Y227698D01*
X666746Y225746D01*
X668698Y224442D01*
X671000Y223984D01*
X673302Y224442D01*
X675028Y225596D01*
X676298Y225198D01*
Y223119D01*
X672089Y218911D01*
X671504Y218034D01*
X671298Y217000D01*
Y158119D01*
X643881Y130702D01*
X591243D01*
X590209Y130496D01*
X589332Y129910D01*
X588123Y128702D01*
X492119D01*
X488702Y132119D01*
Y134615D01*
X488812Y134688D01*
X489674Y135978D01*
X489806Y136644D01*
X489811Y136650D01*
X491175Y137198D01*
X491466Y137004D01*
X492500Y136798D01*
X492500Y136798D01*
X493302D01*
X493326Y136678D01*
X494188Y135388D01*
X495478Y134526D01*
X497000Y134224D01*
X498522Y134526D01*
X499812Y135388D01*
X500674Y136678D01*
X500976Y138200D01*
X500674Y139722D01*
X499820Y141000D01*
X500674Y142278D01*
X500976Y143800D01*
X500674Y145322D01*
X499812Y146612D01*
X498522Y147474D01*
X497000Y147776D01*
X495478Y147474D01*
X494188Y146612D01*
X492951Y147046D01*
X492277Y147496D01*
X491243Y147702D01*
X398737D01*
X398674Y148022D01*
X397812Y149312D01*
X396522Y150174D01*
X395000Y150476D01*
X393478Y150174D01*
X392188Y149312D01*
X391326Y148022D01*
X391024Y146500D01*
X391326Y144978D01*
X392188Y143688D01*
Y143312D01*
X391326Y142022D01*
X391024Y140500D01*
X391326Y138978D01*
X392188Y137688D01*
X393478Y136826D01*
X395000Y136524D01*
X396522Y136826D01*
X397812Y137688D01*
X398674Y138978D01*
X398737Y139298D01*
X481100D01*
X482129Y138028D01*
X482024Y137500D01*
X482326Y135978D01*
X483188Y134688D01*
X483298Y134615D01*
Y131000D01*
X483504Y129966D01*
X484090Y129089D01*
X486304Y126875D01*
X485818Y125702D01*
X359619D01*
X350451Y134870D01*
X350476Y135000D01*
X350174Y136522D01*
X349312Y137812D01*
X348022Y138674D01*
X346500Y138976D01*
X344978Y138674D01*
X343688Y137812D01*
X342826Y136522D01*
X342524Y135000D01*
X342826Y133478D01*
X343688Y132188D01*
X344978Y131326D01*
X346500Y131024D01*
X346630Y131049D01*
X353804Y123875D01*
X353318Y122702D01*
X236619D01*
X224451Y134871D01*
X224476Y135000D01*
X224174Y136522D01*
X223312Y137812D01*
X222022Y138674D01*
X220500Y138976D01*
X218978Y138674D01*
X217688Y137812D01*
X217312D01*
X216022Y138674D01*
X214500Y138976D01*
X212978Y138674D01*
X211688Y137812D01*
X210826Y136522D01*
X210524Y135000D01*
X210826Y133478D01*
X211688Y132188D01*
X212600Y131579D01*
X226304Y117875D01*
X225818Y116702D01*
X112119D01*
X98951Y129871D01*
X98976Y130000D01*
X98674Y131522D01*
X97812Y132812D01*
X96522Y133674D01*
X95000Y133976D01*
X93478Y133674D01*
X92188Y132812D01*
X91326Y131522D01*
X91024Y130000D01*
X91124Y129493D01*
X89954Y128867D01*
X88951Y129870D01*
X88976Y130000D01*
X88674Y131522D01*
X87812Y132812D01*
X86522Y133674D01*
X85000Y133976D01*
X84227Y133823D01*
X82957Y134736D01*
Y165775D01*
X88256Y171075D01*
X89522Y171326D01*
X90812Y172188D01*
X91674Y173478D01*
X91976Y175000D01*
X91674Y176522D01*
X90812Y177812D01*
X89522Y178674D01*
X88000Y178976D01*
X86478Y178674D01*
X85188Y177812D01*
X84326Y176522D01*
X84075Y175256D01*
X77909Y169091D01*
X77268Y168132D01*
X77043Y167000D01*
Y134736D01*
X75773Y133823D01*
X75000Y133976D01*
X73478Y133674D01*
X72188Y132812D01*
X71326Y131522D01*
X71024Y130000D01*
X71326Y128478D01*
X72188Y127188D01*
X73478Y126326D01*
X75000Y126024D01*
X75773Y126177D01*
X77043Y125264D01*
Y74736D01*
X75773Y73823D01*
X75000Y73976D01*
X73478Y73674D01*
X72188Y72812D01*
X71326Y71522D01*
X71024Y70000D01*
X71326Y68478D01*
X72188Y67188D01*
X73478Y66326D01*
X75000Y66024D01*
X75773Y66177D01*
X77043Y65264D01*
Y26952D01*
X76307Y26648D01*
X74239Y25061D01*
X72652Y22993D01*
X71655Y20584D01*
X71315Y18000D01*
X71655Y15416D01*
X72652Y13007D01*
X74239Y10939D01*
X76307Y9352D01*
X78716Y8355D01*
X81300Y8015D01*
X83884Y8355D01*
X86293Y9352D01*
X88361Y10939D01*
X89948Y13007D01*
X90945Y15416D01*
X91285Y18000D01*
X90945Y20584D01*
X89948Y22993D01*
X88361Y25061D01*
X86293Y26648D01*
X83884Y27645D01*
X82957Y27767D01*
Y125264D01*
X84227Y126177D01*
X85000Y126024D01*
X85130Y126049D01*
X102089Y109089D01*
X102090Y109089D01*
X102966Y108504D01*
X104000Y108298D01*
X104000Y108298D01*
X118075D01*
X118561Y107125D01*
X116589Y105153D01*
X116004Y104277D01*
X115798Y103243D01*
Y100688D01*
X115728Y100674D01*
X114438Y99812D01*
X113576Y98522D01*
X113274Y97000D01*
X113576Y95478D01*
X114438Y94188D01*
X115728Y93326D01*
X117250Y93024D01*
X118772Y93326D01*
X120000Y94147D01*
X121228Y93326D01*
X122750Y93024D01*
X124272Y93326D01*
X125562Y94188D01*
X126424Y95478D01*
X126726Y97000D01*
X126424Y98522D01*
X125562Y99812D01*
X125238Y100028D01*
X125623Y101298D01*
X144650D01*
X145250Y100028D01*
X144972Y99690D01*
X144116Y99860D01*
X142594Y99558D01*
X141304Y98696D01*
X140442Y97406D01*
X140140Y95884D01*
X140442Y94362D01*
X141304Y93072D01*
X142594Y92210D01*
X144043Y91922D01*
X144332Y90473D01*
X145194Y89183D01*
X146483Y88321D01*
X148005Y88018D01*
X149527Y88321D01*
X150817Y89183D01*
X151679Y90473D01*
X151982Y91995D01*
X153154Y92577D01*
X153565Y92614D01*
X170089Y76090D01*
X170089Y76090D01*
X170966Y75504D01*
X172000Y75298D01*
X200818D01*
X201304Y74125D01*
X197130Y69951D01*
X197000Y69976D01*
X195478Y69674D01*
X194188Y68812D01*
X193326Y67522D01*
X193024Y66000D01*
X193326Y64478D01*
X193665Y63972D01*
X192986Y62702D01*
X162000D01*
X162000Y62702D01*
X160966Y62496D01*
X160089Y61911D01*
X160089Y61911D01*
X157630Y59451D01*
X157500Y59476D01*
X155978Y59174D01*
X154688Y58312D01*
X153826Y57022D01*
X153524Y55500D01*
X153826Y53978D01*
X154688Y52688D01*
X155978Y51826D01*
X157500Y51524D01*
X158579Y51738D01*
X159826Y51978D01*
X160688Y50688D01*
X161978Y49826D01*
X163500Y49524D01*
X163629Y49549D01*
X172298Y40881D01*
Y20873D01*
X171028Y20488D01*
X170812Y20812D01*
X169522Y21674D01*
X168000Y21976D01*
X166478Y21674D01*
X165188Y20812D01*
X164326Y19522D01*
X164024Y18000D01*
X164326Y16478D01*
X164864Y15674D01*
X165176Y15166D01*
X164575Y14070D01*
X164188Y13812D01*
X163326Y12522D01*
X163024Y11000D01*
X163326Y9478D01*
X164000Y8470D01*
Y5000D01*
X42000D01*
Y25000D01*
X41982D01*
X41656Y28313D01*
X40689Y31499D01*
X39120Y34435D01*
X37008Y37008D01*
X34435Y39120D01*
X31499Y40689D01*
X28313Y41656D01*
X25000Y41982D01*
Y42000D01*
X5000D01*
Y148000D01*
X25000D01*
Y170000D01*
X57000D01*
Y198000D01*
X40000D01*
Y228000D01*
X57000D01*
Y260000D01*
X5000D01*
Y358000D01*
X31000D01*
X33000Y360000D01*
X46746D01*
X46750Y359999D01*
X53250D01*
X55259Y360399D01*
X56963Y361537D01*
X58101Y363241D01*
X58501Y365250D01*
Y378750D01*
X58101Y380759D01*
X56963Y382463D01*
X55259Y383601D01*
X53250Y384001D01*
X46750D01*
X45982Y383848D01*
X45000Y384654D01*
Y395000D01*
X858000D01*
Y375000D01*
D02*
G37*
G36*
X360978Y110028D02*
X360774Y109000D01*
X360799Y108870D01*
X357631Y105702D01*
X343119D01*
X341911Y106910D01*
X341034Y107496D01*
X340000Y107702D01*
X214119D01*
X211696Y110125D01*
X212182Y111298D01*
X360184D01*
X360978Y110028D01*
D02*
G37*
G36*
X163000Y245000D02*
X127000D01*
Y262000D01*
X163000D01*
Y245000D01*
D02*
G37*
%LPC*%
G36*
X145000Y143976D02*
X143478Y143674D01*
X142188Y142812D01*
X141326Y141522D01*
X141024Y140000D01*
X141326Y138478D01*
X142188Y137188D01*
X143478Y136326D01*
X145000Y136024D01*
X146522Y136326D01*
X147812Y137188D01*
X148674Y138478D01*
X148976Y140000D01*
X148674Y141522D01*
X147812Y142812D01*
X146522Y143674D01*
X145000Y143976D01*
D02*
G37*
G36*
X316000Y145976D02*
X314478Y145674D01*
X313188Y144812D01*
X312326Y143522D01*
X312024Y142000D01*
X312326Y140478D01*
X313188Y139188D01*
X314478Y138326D01*
X316000Y138024D01*
X317522Y138326D01*
X318812Y139188D01*
X319674Y140478D01*
X319976Y142000D01*
X319674Y143522D01*
X318812Y144812D01*
X317522Y145674D01*
X316000Y145976D01*
D02*
G37*
G36*
X121000Y143976D02*
X119478Y143674D01*
X118188Y142812D01*
X117326Y141522D01*
X117024Y140000D01*
X117326Y138478D01*
X118188Y137188D01*
X119478Y136326D01*
X121000Y136024D01*
X122522Y136326D01*
X123812Y137188D01*
X124674Y138478D01*
X124976Y140000D01*
X124674Y141522D01*
X123812Y142812D01*
X122522Y143674D01*
X121000Y143976D01*
D02*
G37*
G36*
X131000D02*
X129478Y143674D01*
X128188Y142812D01*
X127326Y141522D01*
X127024Y140000D01*
X127326Y138478D01*
X128188Y137188D01*
X129478Y136326D01*
X131000Y136024D01*
X132522Y136326D01*
X133812Y137188D01*
X134674Y138478D01*
X134976Y140000D01*
X134674Y141522D01*
X133812Y142812D01*
X132522Y143674D01*
X131000Y143976D01*
D02*
G37*
G36*
X748000Y142976D02*
X746478Y142674D01*
X745188Y141812D01*
X744812D01*
X743522Y142674D01*
X742000Y142976D01*
X740478Y142674D01*
X739188Y141812D01*
X738326Y140522D01*
X738024Y139000D01*
X738326Y137478D01*
X739188Y136188D01*
X740478Y135326D01*
X742000Y135024D01*
X743522Y135326D01*
X744812Y136188D01*
X745188D01*
X746478Y135326D01*
X748000Y135024D01*
X749522Y135326D01*
X750812Y136188D01*
X751674Y137478D01*
X751976Y139000D01*
X751674Y140522D01*
X750812Y141812D01*
X749522Y142674D01*
X748000Y142976D01*
D02*
G37*
G36*
X637000Y152976D02*
X635478Y152674D01*
X634188Y151812D01*
X633326Y150522D01*
X633024Y149000D01*
X633326Y147478D01*
X634188Y146188D01*
X635478Y145326D01*
X637000Y145024D01*
X638522Y145326D01*
X639812Y146188D01*
X640674Y147478D01*
X640976Y149000D01*
X640674Y150522D01*
X639812Y151812D01*
X638522Y152674D01*
X637000Y152976D01*
D02*
G37*
G36*
X205000Y153976D02*
X203478Y153674D01*
X202188Y152812D01*
X201326Y151522D01*
X201024Y150000D01*
X201326Y148478D01*
X202188Y147188D01*
X203478Y146326D01*
X203943Y146234D01*
X204527Y144823D01*
X204326Y144522D01*
X204024Y143000D01*
X204326Y141478D01*
X205188Y140188D01*
X206478Y139326D01*
X208000Y139024D01*
X209522Y139326D01*
X210812Y140188D01*
X211674Y141478D01*
X211976Y143000D01*
X211674Y144522D01*
X210812Y145812D01*
X209522Y146674D01*
X209057Y146766D01*
X208473Y148177D01*
X208674Y148478D01*
X208976Y150000D01*
X208674Y151522D01*
X207812Y152812D01*
X206522Y153674D01*
X205000Y153976D01*
D02*
G37*
G36*
X58000Y216476D02*
X56478Y216174D01*
X55188Y215312D01*
X54326Y214022D01*
X54024Y212500D01*
X54326Y210978D01*
X55147Y209750D01*
X54326Y208522D01*
X54024Y207000D01*
X54326Y205478D01*
X55188Y204188D01*
X56478Y203326D01*
X58000Y203024D01*
X59522Y203326D01*
X60812Y204188D01*
X61674Y205478D01*
X61688Y205548D01*
X64000D01*
X64000Y205548D01*
X148388D01*
X172847Y181089D01*
X173723Y180504D01*
X174757Y180298D01*
X194881D01*
X210089Y165089D01*
X210966Y164504D01*
X212000Y164298D01*
X226638D01*
X239347Y151589D01*
X240223Y151004D01*
X241257Y150798D01*
X243312D01*
X243326Y150728D01*
X244188Y149438D01*
X245478Y148576D01*
X247000Y148274D01*
X248522Y148576D01*
X249812Y149438D01*
X250674Y150728D01*
X250976Y152250D01*
X250674Y153772D01*
X249853Y155000D01*
X250674Y156228D01*
X250976Y157750D01*
X250674Y159272D01*
X249812Y160562D01*
X248522Y161424D01*
X247000Y161726D01*
X245478Y161424D01*
X244188Y160562D01*
X243972Y160238D01*
X242708Y160113D01*
X230910Y171910D01*
X230034Y172496D01*
X229000Y172702D01*
X214362D01*
X199153Y187910D01*
X198277Y188496D01*
X197243Y188702D01*
X177119D01*
X152661Y213161D01*
X151784Y213746D01*
X150750Y213952D01*
X61688D01*
X61674Y214022D01*
X60812Y215312D01*
X59522Y216174D01*
X58000Y216476D01*
D02*
G37*
G36*
X636000Y142976D02*
X634478Y142674D01*
X633188Y141812D01*
X632326Y140522D01*
X632024Y139000D01*
X632326Y137478D01*
X633188Y136188D01*
X634478Y135326D01*
X636000Y135024D01*
X637522Y135326D01*
X638326Y135864D01*
X638834Y136176D01*
X639930Y135575D01*
X640188Y135188D01*
X641478Y134326D01*
X643000Y134024D01*
X644522Y134326D01*
X645812Y135188D01*
X646674Y136478D01*
X646976Y138000D01*
X646674Y139522D01*
X645812Y140812D01*
X644522Y141674D01*
X643000Y141976D01*
X641478Y141674D01*
X640674Y141136D01*
X640166Y140824D01*
X639070Y141425D01*
X638812Y141812D01*
X637522Y142674D01*
X636000Y142976D01*
D02*
G37*
G36*
X772750Y102976D02*
X771228Y102674D01*
X770000Y101853D01*
X768772Y102674D01*
X767250Y102976D01*
X765728Y102674D01*
X764438Y101812D01*
X763576Y100522D01*
X763274Y99000D01*
X763576Y97478D01*
X764438Y96188D01*
X765697Y95347D01*
X765791Y94168D01*
X765794Y94115D01*
X757260Y85581D01*
X696879D01*
X695845Y85375D01*
X694968Y84789D01*
X681881Y71702D01*
X643000D01*
X641966Y71496D01*
X641089Y70911D01*
X641089Y70910D01*
X633631Y63452D01*
X631688D01*
X631674Y63522D01*
X630812Y64812D01*
X629522Y65674D01*
X628000Y65976D01*
X626478Y65674D01*
X625188Y64812D01*
X624326Y63522D01*
X624024Y62000D01*
X624326Y60478D01*
X625147Y59250D01*
X624326Y58022D01*
X624024Y56500D01*
X624326Y54978D01*
X625188Y53688D01*
X626478Y52826D01*
X628000Y52524D01*
X629522Y52826D01*
X630812Y53688D01*
X631674Y54978D01*
X631688Y55048D01*
X635993D01*
X637027Y55254D01*
X637903Y55840D01*
X645362Y63298D01*
X684243D01*
X685277Y63504D01*
X686153Y64089D01*
X699240Y77177D01*
X759621D01*
X760655Y77382D01*
X761532Y77968D01*
X773410Y89847D01*
X773996Y90723D01*
X774202Y91757D01*
Y95312D01*
X774272Y95326D01*
X775562Y96188D01*
X776424Y97478D01*
X776726Y99000D01*
X776424Y100522D01*
X775562Y101812D01*
X774272Y102674D01*
X772750Y102976D01*
D02*
G37*
G36*
X671000Y104976D02*
X669478Y104674D01*
X668250Y103853D01*
X667022Y104674D01*
X665500Y104976D01*
X663978Y104674D01*
X662688Y103812D01*
X661826Y102522D01*
X661524Y101000D01*
X661826Y99478D01*
X662688Y98188D01*
X663978Y97326D01*
X665500Y97024D01*
X667022Y97326D01*
X668250Y98147D01*
X669478Y97326D01*
X671000Y97024D01*
X672522Y97326D01*
X673812Y98188D01*
X674674Y99478D01*
X674976Y101000D01*
X674674Y102522D01*
X673812Y103812D01*
X672522Y104674D01*
X671000Y104976D01*
D02*
G37*
G36*
X868000Y103976D02*
X866478Y103674D01*
X865188Y102812D01*
X864326Y101522D01*
X864024Y100000D01*
X864326Y98478D01*
X865188Y97188D01*
X866478Y96326D01*
X868000Y96024D01*
X869522Y96326D01*
X870812Y97188D01*
X871674Y98478D01*
X871976Y100000D01*
X871674Y101522D01*
X870812Y102812D01*
X869522Y103674D01*
X868000Y103976D01*
D02*
G37*
G36*
X685000Y99976D02*
X683478Y99674D01*
X682250Y98853D01*
X681022Y99674D01*
X679500Y99976D01*
X677978Y99674D01*
X676688Y98812D01*
X675826Y97522D01*
X675524Y96000D01*
X675826Y94478D01*
X676688Y93188D01*
X677978Y92326D01*
X679500Y92024D01*
X681022Y92326D01*
X682250Y93147D01*
X683478Y92326D01*
X685000Y92024D01*
X686522Y92326D01*
X687812Y93188D01*
X688674Y94478D01*
X688976Y96000D01*
X688674Y97522D01*
X687812Y98812D01*
X686522Y99674D01*
X685000Y99976D01*
D02*
G37*
G36*
X697250Y106976D02*
X695728Y106674D01*
X694500Y105853D01*
X693272Y106674D01*
X691750Y106976D01*
X690228Y106674D01*
X688938Y105812D01*
X688076Y104522D01*
X687774Y103000D01*
X688076Y101478D01*
X688938Y100188D01*
X690228Y99326D01*
X691750Y99024D01*
X693272Y99326D01*
X694500Y100147D01*
X695728Y99326D01*
X697250Y99024D01*
X698772Y99326D01*
X700062Y100188D01*
X700924Y101478D01*
X701226Y103000D01*
X700924Y104522D01*
X700062Y105812D01*
X698772Y106674D01*
X697250Y106976D01*
D02*
G37*
G36*
X358500Y138976D02*
X356978Y138674D01*
X355688Y137812D01*
X354826Y136522D01*
X354524Y135000D01*
X354826Y133478D01*
X355688Y132188D01*
X356978Y131326D01*
X358500Y131024D01*
X360022Y131326D01*
X361312Y132188D01*
X362174Y133478D01*
X362476Y135000D01*
X362174Y136522D01*
X361312Y137812D01*
X360022Y138674D01*
X358500Y138976D01*
D02*
G37*
G36*
X375000Y139976D02*
X373478Y139674D01*
X372188Y138812D01*
X371326Y137522D01*
X371024Y136000D01*
X371326Y134478D01*
X372188Y133188D01*
X373478Y132326D01*
X375000Y132024D01*
X376522Y132326D01*
X377812Y133188D01*
X378674Y134478D01*
X378976Y136000D01*
X378674Y137522D01*
X377812Y138812D01*
X376522Y139674D01*
X375000Y139976D01*
D02*
G37*
G36*
X43000Y124976D02*
X41478Y124674D01*
X40188Y123812D01*
X39326Y122522D01*
X39024Y121000D01*
X39326Y119478D01*
X40188Y118188D01*
X41478Y117326D01*
X43000Y117024D01*
X44522Y117326D01*
X45812Y118188D01*
X46674Y119478D01*
X46976Y121000D01*
X46674Y122522D01*
X45812Y123812D01*
X44522Y124674D01*
X43000Y124976D01*
D02*
G37*
G36*
X65000Y133976D02*
X63478Y133674D01*
X62188Y132812D01*
X61326Y131522D01*
X61024Y130000D01*
X61326Y128478D01*
X62188Y127188D01*
X63478Y126326D01*
X65000Y126024D01*
X66522Y126326D01*
X67812Y127188D01*
X68674Y128478D01*
X68976Y130000D01*
X68674Y131522D01*
X67812Y132812D01*
X66522Y133674D01*
X65000Y133976D01*
D02*
G37*
G36*
X225000Y160976D02*
X223478Y160674D01*
X222188Y159812D01*
X221326Y158522D01*
X221024Y157000D01*
X221326Y155478D01*
X222188Y154188D01*
X223478Y153326D01*
X225000Y153024D01*
X226522Y153326D01*
X227812Y154188D01*
X228674Y155478D01*
X228976Y157000D01*
X228674Y158522D01*
X227812Y159812D01*
X226522Y160674D01*
X225000Y160976D01*
D02*
G37*
G36*
X459000Y198976D02*
X457478Y198674D01*
X456188Y197812D01*
X455326Y196522D01*
X455024Y195000D01*
X455326Y193478D01*
X456188Y192188D01*
X457478Y191326D01*
X459000Y191024D01*
X460522Y191326D01*
X461812Y192188D01*
X462674Y193478D01*
X462976Y195000D01*
X462674Y196522D01*
X461812Y197812D01*
X460522Y198674D01*
X459000Y198976D01*
D02*
G37*
G36*
X390650Y211085D02*
X388066Y210745D01*
X385657Y209748D01*
X383589Y208161D01*
X382002Y206093D01*
X381005Y203684D01*
X380665Y201100D01*
X381005Y198516D01*
X382002Y196107D01*
X383589Y194039D01*
X385657Y192452D01*
X388066Y191455D01*
X390650Y191115D01*
X393234Y191455D01*
X395643Y192452D01*
X397711Y194039D01*
X399298Y196107D01*
X400295Y198516D01*
X400635Y201100D01*
X400295Y203684D01*
X399298Y206093D01*
X397711Y208161D01*
X395643Y209748D01*
X393234Y210745D01*
X390650Y211085D01*
D02*
G37*
G36*
X636000Y193976D02*
X634478Y193674D01*
X633188Y192812D01*
X632326Y191522D01*
X632024Y190000D01*
X632326Y188478D01*
X633188Y187188D01*
X634478Y186326D01*
X636000Y186024D01*
X637522Y186326D01*
X638812Y187188D01*
X639674Y188478D01*
X639976Y190000D01*
X639674Y191522D01*
X638812Y192812D01*
X637522Y193674D01*
X636000Y193976D01*
D02*
G37*
G36*
X296000Y191976D02*
X294478Y191674D01*
X293188Y190812D01*
X292326Y189522D01*
X292024Y188000D01*
X292326Y186478D01*
X293188Y185188D01*
X294478Y184326D01*
X296000Y184024D01*
X297522Y184326D01*
X298812Y185188D01*
X299674Y186478D01*
X299976Y188000D01*
X299674Y189522D01*
X298812Y190812D01*
X297522Y191674D01*
X296000Y191976D01*
D02*
G37*
G36*
X306000D02*
X304478Y191674D01*
X303188Y190812D01*
X302326Y189522D01*
X302024Y188000D01*
X302326Y186478D01*
X303188Y185188D01*
X304478Y184326D01*
X306000Y184024D01*
X307522Y184326D01*
X308812Y185188D01*
X309674Y186478D01*
X309976Y188000D01*
X309674Y189522D01*
X308812Y190812D01*
X307522Y191674D01*
X306000Y191976D01*
D02*
G37*
G36*
X517000Y201976D02*
X515478Y201674D01*
X514188Y200812D01*
X513326Y199522D01*
X513024Y198000D01*
X513326Y196478D01*
X514188Y195188D01*
X515478Y194326D01*
X517000Y194024D01*
X518522Y194326D01*
X519812Y195188D01*
X520674Y196478D01*
X520976Y198000D01*
X520674Y199522D01*
X519812Y200812D01*
X518522Y201674D01*
X517000Y201976D01*
D02*
G37*
G36*
X63000Y202976D02*
X61478Y202674D01*
X60188Y201812D01*
X59326Y200522D01*
X59024Y199000D01*
X59326Y197478D01*
X60188Y196188D01*
X61478Y195326D01*
X63000Y195024D01*
X64522Y195326D01*
X65812Y196188D01*
X66674Y197478D01*
X66976Y199000D01*
X66674Y200522D01*
X65812Y201812D01*
X64522Y202674D01*
X63000Y202976D01*
D02*
G37*
G36*
X306000Y201976D02*
X304478Y201674D01*
X303188Y200812D01*
X302326Y199522D01*
X302024Y198000D01*
X302326Y196478D01*
X303188Y195188D01*
X304478Y194326D01*
X306000Y194024D01*
X307522Y194326D01*
X308812Y195188D01*
X309674Y196478D01*
X309976Y198000D01*
X309674Y199522D01*
X308812Y200812D01*
X307522Y201674D01*
X306000Y201976D01*
D02*
G37*
G36*
X416050Y211085D02*
X413466Y210745D01*
X411057Y209748D01*
X408989Y208161D01*
X407402Y206093D01*
X406405Y203684D01*
X406065Y201100D01*
X406405Y198516D01*
X407402Y196107D01*
X408989Y194039D01*
X411057Y192452D01*
X413466Y191455D01*
X416050Y191115D01*
X418634Y191455D01*
X421043Y192452D01*
X423111Y194039D01*
X424698Y196107D01*
X425695Y198516D01*
X426035Y201100D01*
X425695Y203684D01*
X424698Y206093D01*
X423111Y208161D01*
X421043Y209748D01*
X418634Y210745D01*
X416050Y211085D01*
D02*
G37*
G36*
X441450D02*
X438866Y210745D01*
X436457Y209748D01*
X434389Y208161D01*
X432802Y206093D01*
X431805Y203684D01*
X431465Y201100D01*
X431805Y198516D01*
X432802Y196107D01*
X434389Y194039D01*
X436457Y192452D01*
X438866Y191455D01*
X441450Y191115D01*
X444034Y191455D01*
X446443Y192452D01*
X448511Y194039D01*
X450098Y196107D01*
X451095Y198516D01*
X451435Y201100D01*
X451095Y203684D01*
X450098Y206093D01*
X448511Y208161D01*
X446443Y209748D01*
X444034Y210745D01*
X441450Y211085D01*
D02*
G37*
G36*
X170000Y177976D02*
X168478Y177674D01*
X167188Y176812D01*
X166326Y175522D01*
X166024Y174000D01*
X166326Y172478D01*
X167188Y171188D01*
X168478Y170326D01*
X170000Y170024D01*
X171522Y170326D01*
X172812Y171188D01*
X173674Y172478D01*
X173976Y174000D01*
X173674Y175522D01*
X172812Y176812D01*
X171522Y177674D01*
X170000Y177976D01*
D02*
G37*
G36*
X190000D02*
X188478Y177674D01*
X187188Y176812D01*
X186326Y175522D01*
X186024Y174000D01*
X186326Y172478D01*
X187188Y171188D01*
X188478Y170326D01*
X190000Y170024D01*
X191522Y170326D01*
X192812Y171188D01*
X193674Y172478D01*
X193976Y174000D01*
X193674Y175522D01*
X192812Y176812D01*
X191522Y177674D01*
X190000Y177976D01*
D02*
G37*
G36*
X279000Y175976D02*
X277478Y175674D01*
X276188Y174812D01*
X275326Y173522D01*
X275024Y172000D01*
X275326Y170478D01*
X276188Y169188D01*
X277478Y168326D01*
X279000Y168024D01*
X280522Y168326D01*
X281812Y169188D01*
X282674Y170478D01*
X282976Y172000D01*
X282674Y173522D01*
X281812Y174812D01*
X280522Y175674D01*
X279000Y175976D01*
D02*
G37*
G36*
X334757Y247702D02*
X333723Y247496D01*
X332847Y246910D01*
X261590Y175653D01*
X261004Y174777D01*
X260798Y173743D01*
Y171688D01*
X260728Y171674D01*
X259438Y170812D01*
X258576Y169522D01*
X258274Y168000D01*
X258576Y166478D01*
X259438Y165188D01*
X260728Y164326D01*
X262250Y164024D01*
X263772Y164326D01*
X265000Y165147D01*
X266228Y164326D01*
X267750Y164024D01*
X269272Y164326D01*
X270562Y165188D01*
X271424Y166478D01*
X271726Y168000D01*
X271424Y169522D01*
X270562Y170812D01*
X270238Y171028D01*
X270113Y172292D01*
X337119Y239298D01*
X433881D01*
X505463Y167716D01*
X505338Y166452D01*
X505181Y166347D01*
X504319Y165057D01*
X504016Y163535D01*
X504319Y162014D01*
X505181Y160724D01*
X506471Y159862D01*
X507993Y159559D01*
X509515Y159862D01*
X510793Y160716D01*
X512071Y159862D01*
X513593Y159559D01*
X515115Y159862D01*
X516405Y160724D01*
X517267Y162014D01*
X517569Y163535D01*
X517267Y165057D01*
X516405Y166347D01*
X515115Y167209D01*
X514995Y167233D01*
Y168950D01*
X514789Y169984D01*
X514203Y170860D01*
X438153Y246910D01*
X437277Y247496D01*
X436243Y247702D01*
X334757D01*
X334757Y247702D01*
D02*
G37*
G36*
X638000Y173976D02*
X636478Y173674D01*
X635188Y172812D01*
X634326Y171522D01*
X634024Y170000D01*
X634326Y168478D01*
X635053Y167390D01*
X634188Y166812D01*
X633326Y165522D01*
X633024Y164000D01*
X633326Y162478D01*
X634188Y161188D01*
X635478Y160326D01*
X637000Y160024D01*
X638522Y160326D01*
X639812Y161188D01*
X640674Y162478D01*
X640976Y164000D01*
X640674Y165522D01*
X639946Y166610D01*
X640812Y167188D01*
X641674Y168478D01*
X641976Y170000D01*
X641674Y171522D01*
X640812Y172812D01*
X639522Y173674D01*
X638000Y173976D01*
D02*
G37*
G36*
X875500Y192100D02*
X866103D01*
X866283Y190728D01*
X867392Y188053D01*
X869155Y185755D01*
X871453Y183992D01*
X874128Y182883D01*
X875500Y182703D01*
Y192100D01*
D02*
G37*
G36*
X887897D02*
X878500D01*
Y182703D01*
X879872Y182883D01*
X882547Y183992D01*
X884845Y185755D01*
X886609Y188053D01*
X887717Y190728D01*
X887897Y192100D01*
D02*
G37*
G36*
X740000Y193976D02*
X738478Y193674D01*
X737188Y192812D01*
X736326Y191522D01*
X736024Y190000D01*
X736326Y188478D01*
X737188Y187188D01*
X737298Y187115D01*
Y182873D01*
X736028Y182488D01*
X735812Y182812D01*
X734522Y183674D01*
X733000Y183976D01*
X731478Y183674D01*
X730188Y182812D01*
X729326Y181522D01*
X729024Y180000D01*
X729326Y178478D01*
X730188Y177188D01*
X731478Y176326D01*
X732505Y176122D01*
X733008Y174829D01*
X732089Y173911D01*
X731504Y173034D01*
X731298Y172000D01*
Y170119D01*
X705130Y143951D01*
X705000Y143976D01*
X703478Y143674D01*
X702188Y142812D01*
X701326Y141522D01*
X701024Y140000D01*
X701326Y138478D01*
X702188Y137188D01*
X703478Y136326D01*
X705000Y136024D01*
X706522Y136326D01*
X707812Y137188D01*
X708674Y138478D01*
X708976Y140000D01*
X708951Y140129D01*
X735910Y167090D01*
X736496Y167966D01*
X736702Y169000D01*
Y170881D01*
X741910Y176089D01*
X741910Y176089D01*
X742496Y176966D01*
X742702Y178000D01*
X742702Y178000D01*
Y187115D01*
X742812Y187188D01*
X743674Y188478D01*
X743976Y190000D01*
X743674Y191522D01*
X742812Y192812D01*
X741522Y193674D01*
X740000Y193976D01*
D02*
G37*
G36*
X723000Y183976D02*
X721478Y183674D01*
X720188Y182812D01*
X719326Y181522D01*
X719024Y180000D01*
X719326Y178478D01*
X720188Y177188D01*
X721478Y176326D01*
X723000Y176024D01*
X724522Y176326D01*
X725812Y177188D01*
X726674Y178478D01*
X726976Y180000D01*
X726674Y181522D01*
X725812Y182812D01*
X724522Y183674D01*
X723000Y183976D01*
D02*
G37*
G36*
X640000Y184976D02*
X638478Y184674D01*
X637188Y183812D01*
X636326Y182522D01*
X636024Y181000D01*
X636326Y179478D01*
X637188Y178188D01*
X638478Y177326D01*
X640000Y177024D01*
X641522Y177326D01*
X642812Y178188D01*
X643674Y179478D01*
X643976Y181000D01*
X643674Y182522D01*
X642812Y183812D01*
X641522Y184674D01*
X640000Y184976D01*
D02*
G37*
G36*
X751000Y29976D02*
X749478Y29674D01*
X748188Y28812D01*
X747812D01*
X746522Y29674D01*
X745000Y29976D01*
X743478Y29674D01*
X742188Y28812D01*
X741326Y27522D01*
X741024Y26000D01*
X741326Y24478D01*
X742188Y23188D01*
X743478Y22326D01*
X745000Y22024D01*
X746522Y22326D01*
X747812Y23188D01*
X748188D01*
X749478Y22326D01*
X751000Y22024D01*
X752522Y22326D01*
X753812Y23188D01*
X754674Y24478D01*
X754976Y26000D01*
X754674Y27522D01*
X753812Y28812D01*
X752522Y29674D01*
X751000Y29976D01*
D02*
G37*
G36*
X768000D02*
X766478Y29674D01*
X765188Y28812D01*
X764812D01*
X763522Y29674D01*
X762000Y29976D01*
X760478Y29674D01*
X759188Y28812D01*
X758326Y27522D01*
X758024Y26000D01*
X758326Y24478D01*
X759188Y23188D01*
X760478Y22326D01*
X762000Y22024D01*
X763522Y22326D01*
X764812Y23188D01*
X765188D01*
X766478Y22326D01*
X768000Y22024D01*
X769522Y22326D01*
X770812Y23188D01*
X771674Y24478D01*
X771976Y26000D01*
X771674Y27522D01*
X770812Y28812D01*
X769522Y29674D01*
X768000Y29976D01*
D02*
G37*
G36*
X823000D02*
X821478Y29674D01*
X820188Y28812D01*
X819326Y27522D01*
X819024Y26000D01*
X819326Y24478D01*
X819694Y23928D01*
X819250Y22462D01*
X818998Y22355D01*
X818522Y22674D01*
X817000Y22976D01*
X815478Y22674D01*
X814188Y21812D01*
X813326Y20522D01*
X813024Y19000D01*
X813326Y17478D01*
X814188Y16188D01*
X815478Y15326D01*
X817000Y15024D01*
X818522Y15326D01*
X819812Y16188D01*
X820188D01*
X821478Y15326D01*
X823000Y15024D01*
X824522Y15326D01*
X825812Y16188D01*
X826188D01*
X827478Y15326D01*
X829000Y15024D01*
X830522Y15326D01*
X831812Y16188D01*
X832674Y17478D01*
X832976Y19000D01*
X832674Y20522D01*
X831812Y21812D01*
X830522Y22674D01*
X829000Y22976D01*
X827478Y22674D01*
X827002Y22355D01*
X826750Y22462D01*
X826306Y23928D01*
X826674Y24478D01*
X826976Y26000D01*
X826674Y27522D01*
X825812Y28812D01*
X824522Y29674D01*
X823000Y29976D01*
D02*
G37*
G36*
X691000D02*
X689478Y29674D01*
X688188Y28812D01*
X687326Y27522D01*
X687024Y26000D01*
X687326Y24478D01*
X688188Y23188D01*
X689478Y22326D01*
X691000Y22024D01*
X692522Y22326D01*
X693812Y23188D01*
X694674Y24478D01*
X694976Y26000D01*
X694674Y27522D01*
X693812Y28812D01*
X692522Y29674D01*
X691000Y29976D01*
D02*
G37*
G36*
X735000D02*
X733478Y29674D01*
X732188Y28812D01*
X731326Y27522D01*
X731024Y26000D01*
X731326Y24478D01*
X732188Y23188D01*
X733478Y22326D01*
X735000Y22024D01*
X736522Y22326D01*
X737812Y23188D01*
X738674Y24478D01*
X738976Y26000D01*
X738674Y27522D01*
X737812Y28812D01*
X736522Y29674D01*
X735000Y29976D01*
D02*
G37*
G36*
X337500Y56476D02*
X335978Y56174D01*
X334688Y55312D01*
X333826Y54022D01*
X333524Y52500D01*
X333826Y50978D01*
X334688Y49688D01*
X335978Y48826D01*
X337500Y48524D01*
X339022Y48826D01*
X340312Y49688D01*
X341174Y50978D01*
X341476Y52500D01*
X341174Y54022D01*
X340312Y55312D01*
X339022Y56174D01*
X337500Y56476D01*
D02*
G37*
G36*
X355500D02*
X353978Y56174D01*
X352688Y55312D01*
X351826Y54022D01*
X351524Y52500D01*
X351826Y50978D01*
X352688Y49688D01*
X353978Y48826D01*
X355500Y48524D01*
X357022Y48826D01*
X358312Y49688D01*
X359174Y50978D01*
X359476Y52500D01*
X359174Y54022D01*
X358312Y55312D01*
X357022Y56174D01*
X355500Y56476D01*
D02*
G37*
G36*
X307500D02*
X305978Y56174D01*
X304688Y55312D01*
X303826Y54022D01*
X303524Y52500D01*
X303826Y50978D01*
X304688Y49688D01*
X305978Y48826D01*
X307500Y48524D01*
X309022Y48826D01*
X310312Y49688D01*
X311174Y50978D01*
X311476Y52500D01*
X311174Y54022D01*
X310312Y55312D01*
X309022Y56174D01*
X307500Y56476D01*
D02*
G37*
G36*
X721000Y29976D02*
X719478Y29674D01*
X718500Y29020D01*
X717522Y29674D01*
X716000Y29976D01*
X714478Y29674D01*
X713188Y28812D01*
X712745Y28149D01*
X711255D01*
X710812Y28812D01*
X709522Y29674D01*
X708000Y29976D01*
X706478Y29674D01*
X705188Y28812D01*
X704812D01*
X703522Y29674D01*
X702000Y29976D01*
X700478Y29674D01*
X699188Y28812D01*
X698326Y27522D01*
X698024Y26000D01*
X698326Y24478D01*
X699188Y23188D01*
X700478Y22326D01*
X702000Y22024D01*
X703522Y22326D01*
X704812Y23188D01*
X705188D01*
X706478Y22326D01*
X708000Y22024D01*
X709522Y22326D01*
X710812Y23188D01*
X711255Y23851D01*
X712745D01*
X713188Y23188D01*
X714478Y22326D01*
X716000Y22024D01*
X717522Y22326D01*
X718500Y22980D01*
X719478Y22326D01*
X721000Y22024D01*
X722522Y22326D01*
X723812Y23188D01*
X724674Y24478D01*
X724976Y26000D01*
X724674Y27522D01*
X723812Y28812D01*
X722522Y29674D01*
X721000Y29976D01*
D02*
G37*
G36*
X807000Y30976D02*
X805478Y30674D01*
X804188Y29812D01*
X803745Y29149D01*
X802255D01*
X801812Y29812D01*
X800522Y30674D01*
X799000Y30976D01*
X797478Y30674D01*
X796188Y29812D01*
X795326Y28522D01*
X795024Y27000D01*
X795326Y25478D01*
X796188Y24188D01*
X797478Y23326D01*
X799000Y23024D01*
X800522Y23326D01*
X801812Y24188D01*
X802255Y24851D01*
X803745D01*
X804188Y24188D01*
X805478Y23326D01*
X807000Y23024D01*
X808522Y23326D01*
X809812Y24188D01*
X810674Y25478D01*
X810976Y27000D01*
X810674Y28522D01*
X809812Y29812D01*
X808522Y30674D01*
X807000Y30976D01*
D02*
G37*
G36*
X513000Y23976D02*
X511478Y23674D01*
X510188Y22812D01*
X509326Y21522D01*
X509024Y20000D01*
X509326Y18478D01*
X510188Y17188D01*
X511478Y16326D01*
X513000Y16024D01*
X514522Y16326D01*
X515812Y17188D01*
X516674Y18478D01*
X516976Y20000D01*
X516674Y21522D01*
X515812Y22812D01*
X514522Y23674D01*
X513000Y23976D01*
D02*
G37*
G36*
X539000Y24976D02*
X537478Y24674D01*
X536188Y23812D01*
X535326Y22522D01*
X535024Y21000D01*
X535326Y19478D01*
X536188Y18188D01*
X537478Y17326D01*
X539000Y17024D01*
X540522Y17326D01*
X541812Y18188D01*
X542674Y19478D01*
X542976Y21000D01*
X542674Y22522D01*
X541812Y23812D01*
X540522Y24674D01*
X539000Y24976D01*
D02*
G37*
G36*
X425000Y23976D02*
X423478Y23674D01*
X422188Y22812D01*
X421326Y21522D01*
X421024Y20000D01*
X421326Y18478D01*
X422188Y17188D01*
X423478Y16326D01*
X425000Y16024D01*
X426522Y16326D01*
X427812Y17188D01*
X428674Y18478D01*
X428976Y20000D01*
X428674Y21522D01*
X427812Y22812D01*
X426522Y23674D01*
X425000Y23976D01*
D02*
G37*
G36*
X106700Y27985D02*
X104116Y27645D01*
X101707Y26648D01*
X99639Y25061D01*
X98052Y22993D01*
X97055Y20584D01*
X96715Y18000D01*
X97055Y15416D01*
X98052Y13007D01*
X99639Y10939D01*
X101707Y9352D01*
X104116Y8355D01*
X106700Y8015D01*
X109284Y8355D01*
X111693Y9352D01*
X113761Y10939D01*
X115348Y13007D01*
X116345Y15416D01*
X116685Y18000D01*
X116345Y20584D01*
X115348Y22993D01*
X113761Y25061D01*
X111693Y26648D01*
X109284Y27645D01*
X106700Y27985D01*
D02*
G37*
G36*
X807000Y14976D02*
X805478Y14674D01*
X804188Y13812D01*
X803745Y13149D01*
X802255D01*
X801812Y13812D01*
X800522Y14674D01*
X799000Y14976D01*
X797478Y14674D01*
X796188Y13812D01*
X795326Y12522D01*
X795024Y11000D01*
X795326Y9478D01*
X796188Y8188D01*
X797478Y7326D01*
X799000Y7024D01*
X800522Y7326D01*
X801812Y8188D01*
X802255Y8851D01*
X803745D01*
X804188Y8188D01*
X805478Y7326D01*
X807000Y7024D01*
X808522Y7326D01*
X809812Y8188D01*
X810674Y9478D01*
X810976Y11000D01*
X810674Y12522D01*
X809812Y13812D01*
X808522Y14674D01*
X807000Y14976D01*
D02*
G37*
G36*
X463000Y27976D02*
X461478Y27674D01*
X460188Y26812D01*
X459326Y25522D01*
X459024Y24000D01*
X459326Y22478D01*
X460188Y21188D01*
X461478Y20326D01*
X463000Y20024D01*
X464522Y20326D01*
X465812Y21188D01*
X466674Y22478D01*
X466976Y24000D01*
X466674Y25522D01*
X465812Y26812D01*
X464522Y27674D01*
X463000Y27976D01*
D02*
G37*
G36*
X488000Y28976D02*
X486478Y28674D01*
X485188Y27812D01*
X484326Y26522D01*
X484024Y25000D01*
X484326Y23478D01*
X485188Y22188D01*
X486478Y21326D01*
X488000Y21024D01*
X489522Y21326D01*
X490812Y22188D01*
X491674Y23478D01*
X491976Y25000D01*
X491674Y26522D01*
X490812Y27812D01*
X489522Y28674D01*
X488000Y28976D01*
D02*
G37*
G36*
X437000Y27976D02*
X435478Y27674D01*
X434188Y26812D01*
X433326Y25522D01*
X433024Y24000D01*
X433326Y22478D01*
X434188Y21188D01*
X435478Y20326D01*
X437000Y20024D01*
X438522Y20326D01*
X439812Y21188D01*
X440674Y22478D01*
X440976Y24000D01*
X440674Y25522D01*
X439812Y26812D01*
X438522Y27674D01*
X437000Y27976D01*
D02*
G37*
G36*
X564000Y24976D02*
X562478Y24674D01*
X561188Y23812D01*
X560326Y22522D01*
X560024Y21000D01*
X560326Y19478D01*
X561188Y18188D01*
X562478Y17326D01*
X564000Y17024D01*
X565522Y17326D01*
X566812Y18188D01*
X567674Y19478D01*
X567976Y21000D01*
X567674Y22522D01*
X566812Y23812D01*
X565522Y24674D01*
X564000Y24976D01*
D02*
G37*
G36*
X412000Y26976D02*
X410478Y26674D01*
X409188Y25812D01*
X408326Y24522D01*
X408024Y23000D01*
X408326Y21478D01*
X409188Y20188D01*
X410478Y19326D01*
X412000Y19024D01*
X413522Y19326D01*
X414812Y20188D01*
X415674Y21478D01*
X415976Y23000D01*
X415674Y24522D01*
X414812Y25812D01*
X413522Y26674D01*
X412000Y26976D01*
D02*
G37*
G36*
X415500Y56476D02*
X413978Y56174D01*
X412688Y55312D01*
X411826Y54022D01*
X411524Y52500D01*
X411826Y50978D01*
X412688Y49688D01*
X413978Y48826D01*
X415500Y48524D01*
X417022Y48826D01*
X418312Y49688D01*
X419174Y50978D01*
X419476Y52500D01*
X419174Y54022D01*
X418312Y55312D01*
X417022Y56174D01*
X415500Y56476D01*
D02*
G37*
G36*
X772000Y78976D02*
X770478Y78674D01*
X769188Y77812D01*
X768326Y76522D01*
X768024Y75000D01*
X768326Y73478D01*
X769188Y72188D01*
X770478Y71326D01*
X772000Y71024D01*
X773522Y71326D01*
X774812Y72188D01*
X775674Y73478D01*
X775976Y75000D01*
X775674Y76522D01*
X774812Y77812D01*
X773522Y78674D01*
X772000Y78976D01*
D02*
G37*
G36*
X784000Y88464D02*
X782068Y88209D01*
X780268Y87464D01*
X778722Y86278D01*
X777536Y84732D01*
X776790Y82932D01*
X776536Y81000D01*
X776790Y79068D01*
X777536Y77268D01*
X778722Y75722D01*
X780268Y74536D01*
X782068Y73790D01*
X784000Y73536D01*
X785932Y73790D01*
X787732Y74536D01*
X789278Y75722D01*
X790464Y77268D01*
X791209Y79068D01*
X791464Y81000D01*
X791209Y82932D01*
X790464Y84732D01*
X789278Y86278D01*
X787732Y87464D01*
X785932Y88209D01*
X784000Y88464D01*
D02*
G37*
G36*
X162000Y78976D02*
X160478Y78674D01*
X159188Y77812D01*
X158326Y76522D01*
X158024Y75000D01*
X158326Y73478D01*
X159188Y72188D01*
X160478Y71326D01*
X162000Y71024D01*
X163522Y71326D01*
X164812Y72188D01*
X165674Y73478D01*
X165976Y75000D01*
X165674Y76522D01*
X164812Y77812D01*
X163522Y78674D01*
X162000Y78976D01*
D02*
G37*
G36*
X116000Y90985D02*
X113416Y90645D01*
X111007Y89648D01*
X108939Y88061D01*
X107352Y85993D01*
X106355Y83584D01*
X106015Y81000D01*
X106355Y78416D01*
X107352Y76007D01*
X108939Y73939D01*
X111007Y72352D01*
X113416Y71355D01*
X116000Y71015D01*
X118584Y71355D01*
X120993Y72352D01*
X123061Y73939D01*
X124648Y76007D01*
X125645Y78416D01*
X125985Y81000D01*
X125645Y83584D01*
X124648Y85993D01*
X123061Y88061D01*
X120993Y89648D01*
X118584Y90645D01*
X116000Y90985D01*
D02*
G37*
G36*
X143000Y78976D02*
X141478Y78674D01*
X140188Y77812D01*
X139326Y76522D01*
X139024Y75000D01*
X139326Y73478D01*
X140188Y72188D01*
X141478Y71326D01*
X143000Y71024D01*
X144522Y71326D01*
X145812Y72188D01*
X146674Y73478D01*
X146976Y75000D01*
X146674Y76522D01*
X145812Y77812D01*
X144522Y78674D01*
X143000Y78976D01*
D02*
G37*
G36*
X790000Y98976D02*
X788478Y98674D01*
X787188Y97812D01*
X786326Y96522D01*
X786024Y95000D01*
X786326Y93478D01*
X787188Y92188D01*
X788478Y91326D01*
X790000Y91024D01*
X791522Y91326D01*
X792812Y92188D01*
X793674Y93478D01*
X793976Y95000D01*
X793674Y96522D01*
X792812Y97812D01*
X791522Y98674D01*
X790000Y98976D01*
D02*
G37*
G36*
X643000Y106976D02*
X641478Y106674D01*
X640188Y105812D01*
X639326Y104522D01*
X639024Y103000D01*
X639326Y101478D01*
X640147Y100250D01*
X639326Y99022D01*
X639024Y97500D01*
X639326Y95978D01*
X640188Y94688D01*
X641478Y93826D01*
X643000Y93524D01*
X644522Y93826D01*
X645812Y94688D01*
X646674Y95978D01*
X646976Y97500D01*
X646674Y99022D01*
X645853Y100250D01*
X646674Y101478D01*
X646976Y103000D01*
X646674Y104522D01*
X645812Y105812D01*
X644522Y106674D01*
X643000Y106976D01*
D02*
G37*
G36*
X45000Y98976D02*
X43478Y98674D01*
X42188Y97812D01*
X41326Y96522D01*
X41024Y95000D01*
X41326Y93478D01*
X42188Y92188D01*
X43478Y91326D01*
X45000Y91024D01*
X46522Y91326D01*
X47812Y92188D01*
X48674Y93478D01*
X48976Y95000D01*
X48674Y96522D01*
X47812Y97812D01*
X46522Y98674D01*
X45000Y98976D01*
D02*
G37*
G36*
X59000Y85976D02*
X57478Y85674D01*
X56188Y84812D01*
X55326Y83522D01*
X55024Y82000D01*
X55326Y80478D01*
X56188Y79188D01*
X57478Y78326D01*
X59000Y78024D01*
X60522Y78326D01*
X61812Y79188D01*
X62674Y80478D01*
X62976Y82000D01*
X62674Y83522D01*
X61812Y84812D01*
X60522Y85674D01*
X59000Y85976D01*
D02*
G37*
G36*
X808000Y96976D02*
X806478Y96674D01*
X805188Y95812D01*
X804326Y94522D01*
X804312Y94452D01*
X800750D01*
X799716Y94246D01*
X798839Y93660D01*
X794090Y88911D01*
X793504Y88034D01*
X793298Y87000D01*
Y43119D01*
X770631Y20452D01*
X682688D01*
X682674Y20522D01*
X681812Y21812D01*
X680522Y22674D01*
X679000Y22976D01*
X677478Y22674D01*
X676188Y21812D01*
X675326Y20522D01*
X675024Y19000D01*
X675326Y17478D01*
X676147Y16250D01*
X675326Y15022D01*
X675024Y13500D01*
X675326Y11978D01*
X676188Y10688D01*
X677478Y9826D01*
X679000Y9524D01*
X680522Y9826D01*
X681812Y10688D01*
X682674Y11978D01*
X682688Y12048D01*
X772993D01*
X774027Y12254D01*
X774903Y12839D01*
X800910Y38847D01*
X801496Y39723D01*
X801702Y40757D01*
Y84638D01*
X803112Y86048D01*
X804312D01*
X804326Y85978D01*
X805188Y84688D01*
X806478Y83826D01*
X808000Y83524D01*
X809522Y83826D01*
X810812Y84688D01*
X811674Y85978D01*
X811976Y87500D01*
X811674Y89022D01*
X810853Y90250D01*
X811674Y91478D01*
X811976Y93000D01*
X811674Y94522D01*
X810812Y95812D01*
X809522Y96674D01*
X808000Y96976D01*
D02*
G37*
G36*
X325500Y56476D02*
X323978Y56174D01*
X323484Y55843D01*
X322500Y55397D01*
X321516Y55843D01*
X321022Y56174D01*
X319500Y56476D01*
X317978Y56174D01*
X316688Y55312D01*
X315826Y54022D01*
X315524Y52500D01*
X315826Y50978D01*
X316688Y49688D01*
X317978Y48826D01*
X319500Y48524D01*
X321022Y48826D01*
X322312Y49688D01*
X322688D01*
X323978Y48826D01*
X325500Y48524D01*
X327022Y48826D01*
X328312Y49688D01*
X329174Y50978D01*
X329476Y52500D01*
X329174Y54022D01*
X328312Y55312D01*
X327022Y56174D01*
X325500Y56476D01*
D02*
G37*
G36*
X488000Y67976D02*
X486478Y67674D01*
X485188Y66812D01*
X484326Y65522D01*
X484024Y64000D01*
X484326Y62478D01*
X485188Y61188D01*
X486478Y60326D01*
X488000Y60024D01*
X489522Y60326D01*
X490812Y61188D01*
X491674Y62478D01*
X491976Y64000D01*
X491674Y65522D01*
X490812Y66812D01*
X489522Y67674D01*
X488000Y67976D01*
D02*
G37*
G36*
X691500Y56476D02*
X689978Y56174D01*
X688688Y55312D01*
X688312D01*
X687022Y56174D01*
X685500Y56476D01*
X683978Y56174D01*
X682688Y55312D01*
X682312D01*
X681022Y56174D01*
X679500Y56476D01*
X677978Y56174D01*
X676688Y55312D01*
X675826Y54022D01*
X675524Y52500D01*
X675826Y50978D01*
X676688Y49688D01*
X677978Y48826D01*
X679500Y48524D01*
X681022Y48826D01*
X682312Y49688D01*
X682688D01*
X683978Y48826D01*
X685500Y48524D01*
X687022Y48826D01*
X688312Y49688D01*
X688688D01*
X689978Y48826D01*
X691500Y48524D01*
X693022Y48826D01*
X694312Y49688D01*
X695174Y50978D01*
X695476Y52500D01*
X695174Y54022D01*
X694312Y55312D01*
X693022Y56174D01*
X691500Y56476D01*
D02*
G37*
G36*
X373500Y56976D02*
X371978Y56674D01*
X370688Y55812D01*
X369826Y54522D01*
X369524Y53000D01*
X369826Y51478D01*
X370688Y50188D01*
X371978Y49326D01*
X373500Y49024D01*
X375022Y49326D01*
X376312Y50188D01*
X377174Y51478D01*
X377476Y53000D01*
X377174Y54522D01*
X376312Y55812D01*
X375022Y56674D01*
X373500Y56976D01*
D02*
G37*
G36*
X125000Y61976D02*
X123478Y61674D01*
X122188Y60812D01*
X121326Y59522D01*
X121024Y58000D01*
X121326Y56478D01*
X122188Y55188D01*
X123478Y54326D01*
X125000Y54024D01*
X126522Y54326D01*
X127812Y55188D01*
X128674Y56478D01*
X128976Y58000D01*
X128674Y59522D01*
X127812Y60812D01*
X126522Y61674D01*
X125000Y61976D01*
D02*
G37*
G36*
X783000Y66226D02*
X781478Y65924D01*
X780188Y65062D01*
X779326Y63772D01*
X779312Y63702D01*
X707688D01*
X707674Y63772D01*
X706812Y65062D01*
X705522Y65924D01*
X704000Y66226D01*
X702478Y65924D01*
X701188Y65062D01*
X700326Y63772D01*
X700024Y62250D01*
X700326Y60728D01*
X701147Y59500D01*
X700326Y58272D01*
X700024Y56750D01*
X700326Y55228D01*
X701188Y53938D01*
X702478Y53076D01*
X704000Y52774D01*
X705522Y53076D01*
X706812Y53938D01*
X707674Y55228D01*
X707688Y55298D01*
X779312D01*
X779326Y55228D01*
X780188Y53938D01*
X781478Y53076D01*
X783000Y52774D01*
X784522Y53076D01*
X785812Y53938D01*
X786674Y55228D01*
X786976Y56750D01*
X786674Y58272D01*
X785853Y59500D01*
X786674Y60728D01*
X786976Y62250D01*
X786674Y63772D01*
X785812Y65062D01*
X784522Y65924D01*
X783000Y66226D01*
D02*
G37*
G36*
X28000Y73976D02*
X26478Y73674D01*
X25188Y72812D01*
X24326Y71522D01*
X24024Y70000D01*
X24326Y68478D01*
X25188Y67188D01*
X26478Y66326D01*
X28000Y66024D01*
X29522Y66326D01*
X30812Y67188D01*
X31674Y68478D01*
X31976Y70000D01*
X31674Y71522D01*
X30812Y72812D01*
X29522Y73674D01*
X28000Y73976D01*
D02*
G37*
G36*
X501000Y70976D02*
X499478Y70674D01*
X498188Y69812D01*
X497326Y68522D01*
X497024Y67000D01*
X497326Y65478D01*
X498188Y64188D01*
X499478Y63326D01*
X501000Y63024D01*
X502522Y63326D01*
X503812Y64188D01*
X504674Y65478D01*
X504976Y67000D01*
X504674Y68522D01*
X503812Y69812D01*
X502522Y70674D01*
X501000Y70976D01*
D02*
G37*
G36*
X135000Y68976D02*
X133478Y68674D01*
X132188Y67812D01*
X131326Y66522D01*
X131024Y65000D01*
X131326Y63478D01*
X132188Y62188D01*
X133478Y61326D01*
X135000Y61024D01*
X136522Y61326D01*
X137812Y62188D01*
X138674Y63478D01*
X138976Y65000D01*
X138674Y66522D01*
X137812Y67812D01*
X136522Y68674D01*
X135000Y68976D01*
D02*
G37*
G36*
X90000Y70976D02*
X88478Y70674D01*
X87188Y69812D01*
X86326Y68522D01*
X86024Y67000D01*
X86326Y65478D01*
X87188Y64188D01*
X88478Y63326D01*
X90000Y63024D01*
X91522Y63326D01*
X92812Y64188D01*
X93674Y65478D01*
X93976Y67000D01*
X93674Y68522D01*
X92812Y69812D01*
X91522Y70674D01*
X90000Y70976D01*
D02*
G37*
G36*
X40000Y333976D02*
X38478Y333674D01*
X37188Y332812D01*
X36326Y331522D01*
X36024Y330000D01*
X36326Y328478D01*
X37188Y327188D01*
X38478Y326326D01*
X40000Y326024D01*
X41522Y326326D01*
X42812Y327188D01*
X43674Y328478D01*
X43976Y330000D01*
X43674Y331522D01*
X42812Y332812D01*
X41522Y333674D01*
X40000Y333976D01*
D02*
G37*
G36*
X333754Y349007D02*
X331170Y348667D01*
X328761Y347670D01*
X326693Y346083D01*
X325106Y344015D01*
X324109Y341606D01*
X323769Y339022D01*
X324109Y336438D01*
X325106Y334029D01*
X326693Y331961D01*
X328761Y330374D01*
X331170Y329377D01*
X333754Y329037D01*
X336338Y329377D01*
X338747Y330374D01*
X340815Y331961D01*
X342402Y334029D01*
X343399Y336438D01*
X343739Y339022D01*
X343399Y341606D01*
X342402Y344015D01*
X340815Y346083D01*
X338747Y347670D01*
X336338Y348667D01*
X333754Y349007D01*
D02*
G37*
G36*
X536000Y323976D02*
X534478Y323674D01*
X533188Y322812D01*
X532326Y321522D01*
X532024Y320000D01*
X532326Y318478D01*
X533188Y317188D01*
X534478Y316326D01*
X536000Y316024D01*
X537522Y316326D01*
X538812Y317188D01*
X539674Y318478D01*
X539976Y320000D01*
X539674Y321522D01*
X538812Y322812D01*
X537522Y323674D01*
X536000Y323976D01*
D02*
G37*
G36*
X585000Y321976D02*
X583478Y321674D01*
X582188Y320812D01*
X581326Y319522D01*
X581024Y318000D01*
X581326Y316478D01*
X582188Y315188D01*
X583478Y314326D01*
X585000Y314024D01*
X586522Y314326D01*
X587812Y315188D01*
X588674Y316478D01*
X588976Y318000D01*
X588674Y319522D01*
X587812Y320812D01*
X586522Y321674D01*
X585000Y321976D01*
D02*
G37*
G36*
X620000D02*
X618478Y321674D01*
X617188Y320812D01*
X616326Y319522D01*
X616024Y318000D01*
X616326Y316478D01*
X617188Y315188D01*
X618478Y314326D01*
X620000Y314024D01*
X621522Y314326D01*
X622812Y315188D01*
X623674Y316478D01*
X623976Y318000D01*
X623674Y319522D01*
X622812Y320812D01*
X621522Y321674D01*
X620000Y321976D01*
D02*
G37*
G36*
X644000Y347976D02*
X642478Y347674D01*
X641188Y346812D01*
X640326Y345522D01*
X640024Y344000D01*
X640326Y342478D01*
X641188Y341188D01*
X642478Y340326D01*
X644000Y340024D01*
X645522Y340326D01*
X646812Y341188D01*
X647674Y342478D01*
X647976Y344000D01*
X647674Y345522D01*
X646812Y346812D01*
X645522Y347674D01*
X644000Y347976D01*
D02*
G37*
G36*
X178000Y341976D02*
X176478Y341674D01*
X175188Y340812D01*
X174812D01*
X173522Y341674D01*
X172000Y341976D01*
X170478Y341674D01*
X169188Y340812D01*
X168812D01*
X167522Y341674D01*
X166000Y341976D01*
X164478Y341674D01*
X163188Y340812D01*
X162812D01*
X161522Y341674D01*
X160000Y341976D01*
X158478Y341674D01*
X157188Y340812D01*
X156326Y339522D01*
X156024Y338000D01*
X156326Y336478D01*
X157188Y335188D01*
X158478Y334326D01*
X160000Y334024D01*
X161522Y334326D01*
X162812Y335188D01*
X163188D01*
X164478Y334326D01*
X166000Y334024D01*
X167522Y334326D01*
X168812Y335188D01*
X169188D01*
X170478Y334326D01*
X172000Y334024D01*
X173522Y334326D01*
X174812Y335188D01*
X175188D01*
X176478Y334326D01*
X178000Y334024D01*
X179522Y334326D01*
X180812Y335188D01*
X181674Y336478D01*
X181976Y338000D01*
X181674Y339522D01*
X180812Y340812D01*
X179522Y341674D01*
X178000Y341976D01*
D02*
G37*
G36*
X797000Y354972D02*
X794807Y354684D01*
X792764Y353837D01*
X791009Y352491D01*
X789663Y350736D01*
X788816Y348693D01*
X788528Y346500D01*
X788816Y344307D01*
X789663Y342264D01*
X791009Y340509D01*
X792764Y339163D01*
X794807Y338316D01*
X797000Y338027D01*
X799193Y338316D01*
X801236Y339163D01*
X802991Y340509D01*
X804337Y342264D01*
X805184Y344307D01*
X805472Y346500D01*
X805184Y348693D01*
X804337Y350736D01*
X802991Y352491D01*
X801236Y353837D01*
X799193Y354684D01*
X797000Y354972D01*
D02*
G37*
G36*
X52000Y345976D02*
X50478Y345674D01*
X49188Y344812D01*
X48326Y343522D01*
X48024Y342000D01*
X48326Y340478D01*
X49188Y339188D01*
X50478Y338326D01*
X52000Y338024D01*
X53522Y338326D01*
X54812Y339188D01*
X55674Y340478D01*
X55976Y342000D01*
X55674Y343522D01*
X54812Y344812D01*
X53522Y345674D01*
X52000Y345976D01*
D02*
G37*
G36*
X707000Y354972D02*
X704807Y354684D01*
X702764Y353837D01*
X701009Y352491D01*
X699663Y350736D01*
X698816Y348693D01*
X698528Y346500D01*
X698816Y344307D01*
X699663Y342264D01*
X701009Y340509D01*
X702764Y339163D01*
X704807Y338316D01*
X707000Y338027D01*
X709193Y338316D01*
X711236Y339163D01*
X712991Y340509D01*
X714337Y342264D01*
X715184Y344307D01*
X715472Y346500D01*
X715184Y348693D01*
X714337Y350736D01*
X712991Y352491D01*
X711236Y353837D01*
X709193Y354684D01*
X707000Y354972D01*
D02*
G37*
G36*
X35900Y322900D02*
X16100D01*
Y303100D01*
X35900D01*
Y322900D01*
D02*
G37*
G36*
X729000Y307976D02*
X727478Y307674D01*
X726293Y306881D01*
X725890Y306732D01*
X725110D01*
X724707Y306881D01*
X723522Y307674D01*
X722000Y307976D01*
X720478Y307674D01*
X719188Y306812D01*
X718326Y305522D01*
X718024Y304000D01*
X718326Y302478D01*
X719188Y301188D01*
X720478Y300326D01*
X722000Y300024D01*
X723522Y300326D01*
X724707Y301119D01*
X725110Y301268D01*
X725890D01*
X726293Y301119D01*
X727478Y300326D01*
X729000Y300024D01*
X730522Y300326D01*
X731812Y301188D01*
X732026Y301508D01*
X732674Y301493D01*
X733430Y301324D01*
X734188Y300188D01*
X735478Y299326D01*
X737000Y299024D01*
X738522Y299326D01*
X739812Y300188D01*
X740674Y301478D01*
X740976Y303000D01*
X740674Y304522D01*
X739812Y305812D01*
X738522Y306674D01*
X737000Y306976D01*
X735478Y306674D01*
X734188Y305812D01*
X733975Y305492D01*
X733326Y305507D01*
X732570Y305676D01*
X731812Y306812D01*
X730522Y307674D01*
X729000Y307976D01*
D02*
G37*
G36*
X707000Y306976D02*
X705478Y306674D01*
X704188Y305812D01*
X703326Y304522D01*
X703024Y303000D01*
X703326Y301478D01*
X704188Y300188D01*
X705478Y299326D01*
X707000Y299024D01*
X708522Y299326D01*
X709812Y300188D01*
X710674Y301478D01*
X710976Y303000D01*
X710674Y304522D01*
X709812Y305812D01*
X708522Y306674D01*
X707000Y306976D01*
D02*
G37*
G36*
X60000Y300976D02*
X58478Y300674D01*
X57188Y299812D01*
X56326Y298522D01*
X56024Y297000D01*
X56326Y295478D01*
X57188Y294188D01*
X58478Y293326D01*
X60000Y293024D01*
X61522Y293326D01*
X62812Y294188D01*
X63674Y295478D01*
X63976Y297000D01*
X63674Y298522D01*
X62812Y299812D01*
X61522Y300674D01*
X60000Y300976D01*
D02*
G37*
G36*
X95000Y294976D02*
X93478Y294674D01*
X92293Y293881D01*
X91889Y293732D01*
X91110D01*
X90707Y293881D01*
X89522Y294674D01*
X88000Y294976D01*
X86478Y294674D01*
X85293Y293881D01*
X84889Y293732D01*
X84110D01*
X83707Y293881D01*
X82522Y294674D01*
X81000Y294976D01*
X79478Y294674D01*
X78293Y293881D01*
X77889Y293732D01*
X77111D01*
X76707Y293881D01*
X75522Y294674D01*
X74000Y294976D01*
X72478Y294674D01*
X71188Y293812D01*
X70326Y292522D01*
X70024Y291000D01*
X70326Y289478D01*
X71188Y288188D01*
X72478Y287326D01*
X74000Y287024D01*
X75522Y287326D01*
X76707Y288119D01*
X77111Y288268D01*
X77889D01*
X78293Y288119D01*
X79478Y287326D01*
X81000Y287024D01*
X82522Y287326D01*
X83707Y288119D01*
X84110Y288268D01*
X84889D01*
X85293Y288119D01*
X86478Y287326D01*
X88000Y287024D01*
X89522Y287326D01*
X90707Y288119D01*
X91110Y288268D01*
X91889D01*
X92293Y288119D01*
X93478Y287326D01*
X95000Y287024D01*
X96522Y287326D01*
X97812Y288188D01*
X98674Y289478D01*
X98976Y291000D01*
X98674Y292522D01*
X97812Y293812D01*
X96522Y294674D01*
X95000Y294976D01*
D02*
G37*
G36*
X460246Y333767D02*
X457662Y333427D01*
X455253Y332430D01*
X453185Y330843D01*
X451598Y328775D01*
X450601Y326366D01*
X450261Y323782D01*
X450601Y321198D01*
X451598Y318789D01*
X453185Y316721D01*
X455253Y315134D01*
X457662Y314137D01*
X460246Y313797D01*
X462830Y314137D01*
X465239Y315134D01*
X467307Y316721D01*
X468894Y318789D01*
X469891Y321198D01*
X470231Y323782D01*
X469891Y326366D01*
X468894Y328775D01*
X467307Y330843D01*
X465239Y332430D01*
X462830Y333427D01*
X460246Y333767D01*
D02*
G37*
G36*
X555000Y321976D02*
X553478Y321674D01*
X552188Y320812D01*
X551326Y319522D01*
X551024Y318000D01*
X551326Y316478D01*
X552188Y315188D01*
X553478Y314326D01*
X555000Y314024D01*
X556522Y314326D01*
X557812Y315188D01*
X558674Y316478D01*
X558976Y318000D01*
X558674Y319522D01*
X557812Y320812D01*
X556522Y321674D01*
X555000Y321976D01*
D02*
G37*
G36*
X798000Y320976D02*
X796478Y320674D01*
X795188Y319812D01*
X794326Y318522D01*
X794024Y317000D01*
X794326Y315478D01*
X795188Y314188D01*
X796478Y313326D01*
X798000Y313024D01*
X799522Y313326D01*
X800812Y314188D01*
X801674Y315478D01*
X801976Y317000D01*
X801674Y318522D01*
X800812Y319812D01*
X799522Y320674D01*
X798000Y320976D01*
D02*
G37*
G36*
X104000Y339976D02*
X102478Y339674D01*
X101188Y338812D01*
X100326Y337522D01*
X100024Y336000D01*
X100326Y334478D01*
X101188Y333188D01*
X101851Y332745D01*
Y331255D01*
X101188Y330812D01*
X100326Y329522D01*
X100024Y328000D01*
X100326Y326478D01*
X101188Y325188D01*
X101851Y324745D01*
Y323255D01*
X101188Y322812D01*
X100326Y321522D01*
X100024Y320000D01*
X100326Y318478D01*
X101188Y317188D01*
X101851Y316745D01*
Y315255D01*
X101188Y314812D01*
X100326Y313522D01*
X100024Y312000D01*
X100326Y310478D01*
X101188Y309188D01*
X102478Y308326D01*
X104000Y308024D01*
X105522Y308326D01*
X106812Y309188D01*
X107674Y310478D01*
X107976Y312000D01*
X107674Y313522D01*
X106812Y314812D01*
X106149Y315255D01*
Y316745D01*
X106812Y317188D01*
X107674Y318478D01*
X107976Y320000D01*
X107674Y321522D01*
X106812Y322812D01*
X106149Y323255D01*
Y324745D01*
X106812Y325188D01*
X107674Y326478D01*
X107976Y328000D01*
X107674Y329522D01*
X106812Y330812D01*
X106149Y331255D01*
Y332745D01*
X106812Y333188D01*
X107674Y334478D01*
X107976Y336000D01*
X107674Y337522D01*
X106812Y338812D01*
X105522Y339674D01*
X104000Y339976D01*
D02*
G37*
G36*
X701000Y315976D02*
X699478Y315674D01*
X698188Y314812D01*
X697326Y313522D01*
X697024Y312000D01*
X697326Y310478D01*
X698188Y309188D01*
X699478Y308326D01*
X701000Y308024D01*
X702522Y308326D01*
X703812Y309188D01*
X704674Y310478D01*
X704976Y312000D01*
X704674Y313522D01*
X703812Y314812D01*
X702522Y315674D01*
X701000Y315976D01*
D02*
G37*
G36*
X685000Y348976D02*
X683478Y348674D01*
X682188Y347812D01*
X681326Y346522D01*
X681024Y345000D01*
X681326Y343478D01*
X682188Y342188D01*
X683478Y341326D01*
X685000Y341024D01*
X686522Y341326D01*
X687812Y342188D01*
X688674Y343478D01*
X688976Y345000D01*
X688674Y346522D01*
X687812Y347812D01*
X686522Y348674D01*
X685000Y348976D01*
D02*
G37*
G36*
X119900Y380900D02*
X102100D01*
Y363100D01*
X119900D01*
Y380900D01*
D02*
G37*
G36*
X504000Y378976D02*
X502478Y378674D01*
X501188Y377812D01*
X500326Y376522D01*
X500024Y375000D01*
X500326Y373478D01*
X501188Y372188D01*
X502478Y371326D01*
X504000Y371024D01*
X505522Y371326D01*
X506812Y372188D01*
X507674Y373478D01*
X507976Y375000D01*
X507674Y376522D01*
X506812Y377812D01*
X505522Y378674D01*
X504000Y378976D01*
D02*
G37*
G36*
X91000Y380977D02*
X88677Y380671D01*
X86512Y379774D01*
X84652Y378348D01*
X83226Y376488D01*
X82329Y374323D01*
X82023Y372000D01*
X82329Y369677D01*
X83226Y367512D01*
X84652Y365652D01*
X86512Y364226D01*
X88677Y363329D01*
X91000Y363023D01*
X93323Y363329D01*
X95488Y364226D01*
X97348Y365652D01*
X98774Y367512D01*
X99671Y369677D01*
X99977Y372000D01*
X99671Y374323D01*
X98774Y376488D01*
X97348Y378348D01*
X95488Y379774D01*
X93323Y380671D01*
X91000Y380977D01*
D02*
G37*
G36*
X644000Y369976D02*
X642478Y369674D01*
X641188Y368812D01*
X640326Y367522D01*
X640024Y366000D01*
X640326Y364478D01*
X641188Y363188D01*
X642478Y362326D01*
X644000Y362024D01*
X645522Y362326D01*
X646812Y363188D01*
X647674Y364478D01*
X647976Y366000D01*
X647674Y367522D01*
X646812Y368812D01*
X645522Y369674D01*
X644000Y369976D01*
D02*
G37*
G36*
X71000Y380977D02*
X68677Y380671D01*
X66512Y379774D01*
X64652Y378348D01*
X63226Y376488D01*
X62329Y374323D01*
X62023Y372000D01*
X62329Y369677D01*
X63226Y367512D01*
X64652Y365652D01*
X66512Y364226D01*
X68677Y363329D01*
X71000Y363023D01*
X73323Y363329D01*
X75488Y364226D01*
X77348Y365652D01*
X78774Y367512D01*
X79671Y369677D01*
X79977Y372000D01*
X79671Y374323D01*
X78774Y376488D01*
X77348Y378348D01*
X75488Y379774D01*
X73323Y380671D01*
X71000Y380977D01*
D02*
G37*
G36*
X620000Y380976D02*
X618478Y380674D01*
X617188Y379812D01*
X616326Y378522D01*
X616024Y377000D01*
X616326Y375478D01*
X617188Y374188D01*
X618478Y373326D01*
X620000Y373024D01*
X621522Y373326D01*
X622812Y374188D01*
X623674Y375478D01*
X623976Y377000D01*
X623674Y378522D01*
X622812Y379812D01*
X621522Y380674D01*
X620000Y380976D01*
D02*
G37*
G36*
X644000D02*
X642478Y380674D01*
X641188Y379812D01*
X640326Y378522D01*
X640024Y377000D01*
X640326Y375478D01*
X641188Y374188D01*
X642478Y373326D01*
X644000Y373024D01*
X645522Y373326D01*
X646812Y374188D01*
X647674Y375478D01*
X647976Y377000D01*
X647674Y378522D01*
X646812Y379812D01*
X645522Y380674D01*
X644000Y380976D01*
D02*
G37*
G36*
X585000D02*
X583478Y380674D01*
X582188Y379812D01*
X581326Y378522D01*
X581024Y377000D01*
X581326Y375478D01*
X582188Y374188D01*
X583478Y373326D01*
X585000Y373024D01*
X586522Y373326D01*
X587812Y374188D01*
X588674Y375478D01*
X588976Y377000D01*
X588674Y378522D01*
X587812Y379812D01*
X586522Y380674D01*
X585000Y380976D01*
D02*
G37*
G36*
X530000D02*
X528478Y380674D01*
X527188Y379812D01*
X526326Y378522D01*
X526024Y377000D01*
X526326Y375478D01*
X527188Y374188D01*
X528478Y373326D01*
X530000Y373024D01*
X531522Y373326D01*
X532812Y374188D01*
X533674Y375478D01*
X533976Y377000D01*
X533674Y378522D01*
X532812Y379812D01*
X531522Y380674D01*
X530000Y380976D01*
D02*
G37*
G36*
X555000D02*
X553478Y380674D01*
X552188Y379812D01*
X551326Y378522D01*
X551024Y377000D01*
X551326Y375478D01*
X552188Y374188D01*
X553478Y373326D01*
X555000Y373024D01*
X556522Y373326D01*
X557812Y374188D01*
X558674Y375478D01*
X558976Y377000D01*
X558674Y378522D01*
X557812Y379812D01*
X556522Y380674D01*
X555000Y380976D01*
D02*
G37*
G36*
X395000Y351976D02*
X393478Y351674D01*
X392188Y350812D01*
X391326Y349522D01*
X391024Y348000D01*
X391326Y346478D01*
X392188Y345188D01*
X393478Y344326D01*
X395000Y344024D01*
X396522Y344326D01*
X397812Y345188D01*
X398674Y346478D01*
X398976Y348000D01*
X398674Y349522D01*
X397812Y350812D01*
X396522Y351674D01*
X395000Y351976D01*
D02*
G37*
G36*
X65000Y358976D02*
X63478Y358674D01*
X62188Y357812D01*
X61326Y356522D01*
X61024Y355000D01*
X61326Y353478D01*
X62188Y352188D01*
X63478Y351326D01*
X65000Y351024D01*
X66522Y351326D01*
X67812Y352188D01*
X68674Y353478D01*
X68976Y355000D01*
X68674Y356522D01*
X67812Y357812D01*
X66522Y358674D01*
X65000Y358976D01*
D02*
G37*
G36*
X503000Y350976D02*
X501478Y350674D01*
X500188Y349812D01*
X499326Y348522D01*
X499024Y347000D01*
X499326Y345478D01*
X500188Y344188D01*
X501478Y343326D01*
X503000Y343024D01*
X504522Y343326D01*
X505812Y344188D01*
X506674Y345478D01*
X506976Y347000D01*
X506674Y348522D01*
X505812Y349812D01*
X504522Y350674D01*
X503000Y350976D01*
D02*
G37*
G36*
X288000Y349976D02*
X286478Y349674D01*
X285188Y348812D01*
X284326Y347522D01*
X284024Y346000D01*
X284326Y344478D01*
X285188Y343188D01*
X286478Y342326D01*
X288000Y342024D01*
X289522Y342326D01*
X290812Y343188D01*
X291674Y344478D01*
X291976Y346000D01*
X291674Y347522D01*
X290812Y348812D01*
X289522Y349674D01*
X288000Y349976D01*
D02*
G37*
G36*
X298000D02*
X296478Y349674D01*
X295188Y348812D01*
X294326Y347522D01*
X294024Y346000D01*
X294326Y344478D01*
X295188Y343188D01*
X296478Y342326D01*
X298000Y342024D01*
X299522Y342326D01*
X300812Y343188D01*
X301674Y344478D01*
X301976Y346000D01*
X301674Y347522D01*
X300812Y348812D01*
X299522Y349674D01*
X298000Y349976D01*
D02*
G37*
G36*
X192500Y373960D02*
X190699Y373722D01*
X189020Y373027D01*
X187579Y371921D01*
X186473Y370480D01*
X185778Y368801D01*
X185541Y367000D01*
X185778Y365199D01*
X186473Y363520D01*
X187579Y362079D01*
X189020Y360973D01*
X190699Y360278D01*
X192500Y360041D01*
X194301Y360278D01*
X195980Y360973D01*
X197421Y362079D01*
X198527Y363520D01*
X199222Y365199D01*
X199459Y367000D01*
X199222Y368801D01*
X198527Y370480D01*
X197421Y371921D01*
X195980Y373027D01*
X194301Y373722D01*
X192500Y373960D01*
D02*
G37*
G36*
X272500D02*
X270699Y373722D01*
X269020Y373027D01*
X267579Y371921D01*
X266473Y370480D01*
X265778Y368801D01*
X265541Y367000D01*
X265778Y365199D01*
X266473Y363520D01*
X267579Y362079D01*
X269020Y360973D01*
X270699Y360278D01*
X272500Y360041D01*
X274301Y360278D01*
X275980Y360973D01*
X277421Y362079D01*
X278527Y363520D01*
X279222Y365199D01*
X279459Y367000D01*
X279222Y368801D01*
X278527Y370480D01*
X277421Y371921D01*
X275980Y373027D01*
X274301Y373722D01*
X272500Y373960D01*
D02*
G37*
G36*
X135250Y384001D02*
X128750D01*
X126741Y383601D01*
X125037Y382463D01*
X123899Y380759D01*
X123499Y378750D01*
Y365250D01*
X123899Y363241D01*
X125037Y361537D01*
X126741Y360399D01*
X128750Y359999D01*
X135250D01*
X137259Y360399D01*
X138963Y361537D01*
X140101Y363241D01*
X140501Y365250D01*
Y378750D01*
X140101Y380759D01*
X138963Y382463D01*
X137259Y383601D01*
X135250Y384001D01*
D02*
G37*
G36*
X644000Y359976D02*
X642478Y359674D01*
X641188Y358812D01*
X640326Y357522D01*
X640024Y356000D01*
X640326Y354478D01*
X641188Y353188D01*
X642478Y352326D01*
X644000Y352024D01*
X645522Y352326D01*
X646812Y353188D01*
X647674Y354478D01*
X647976Y356000D01*
X647674Y357522D01*
X646812Y358812D01*
X645522Y359674D01*
X644000Y359976D01*
D02*
G37*
G36*
X503000Y363976D02*
X501478Y363674D01*
X500188Y362812D01*
X499326Y361522D01*
X499024Y360000D01*
X499326Y358478D01*
X500188Y357188D01*
X501478Y356326D01*
X503000Y356024D01*
X504522Y356326D01*
X505812Y357188D01*
X506674Y358478D01*
X506976Y360000D01*
X506674Y361522D01*
X505812Y362812D01*
X504522Y363674D01*
X503000Y363976D01*
D02*
G37*
G36*
X877000Y254385D02*
X874416Y254045D01*
X872007Y253048D01*
X869939Y251461D01*
X868352Y249393D01*
X867355Y246984D01*
X867015Y244400D01*
X867355Y241816D01*
X868304Y239525D01*
X865481Y236702D01*
X752000D01*
X750966Y236496D01*
X750089Y235911D01*
X724881Y210702D01*
X690688D01*
X690674Y210772D01*
X689812Y212062D01*
X688522Y212924D01*
X687000Y213226D01*
X685478Y212924D01*
X684188Y212062D01*
X683326Y210772D01*
X683024Y209250D01*
X683326Y207728D01*
X684147Y206500D01*
X683326Y205272D01*
X683024Y203750D01*
X683326Y202228D01*
X684188Y200938D01*
X685478Y200076D01*
X687000Y199774D01*
X688522Y200076D01*
X689812Y200938D01*
X690674Y202228D01*
X690688Y202298D01*
X727243D01*
X728277Y202504D01*
X729153Y203090D01*
X754362Y228298D01*
X863881D01*
X868304Y223875D01*
X867355Y221584D01*
X867015Y219000D01*
X867355Y216416D01*
X868352Y214007D01*
X869939Y211939D01*
X872007Y210352D01*
X874416Y209355D01*
X877000Y209015D01*
X879584Y209355D01*
X881993Y210352D01*
X884061Y211939D01*
X885648Y214007D01*
X886645Y216416D01*
X886985Y219000D01*
X886645Y221584D01*
X885648Y223993D01*
X884061Y226061D01*
X881993Y227648D01*
X879584Y228645D01*
X877000Y228985D01*
X874416Y228645D01*
X872125Y227696D01*
X868858Y230963D01*
X869019Y232598D01*
X872125Y235704D01*
X874416Y234755D01*
X877000Y234415D01*
X879584Y234755D01*
X881993Y235752D01*
X884061Y237339D01*
X885648Y239407D01*
X886645Y241816D01*
X886985Y244400D01*
X886645Y246984D01*
X885648Y249393D01*
X884061Y251461D01*
X881993Y253048D01*
X879584Y254045D01*
X877000Y254385D01*
D02*
G37*
G36*
X233500Y250476D02*
X231978Y250174D01*
X230688Y249312D01*
X229826Y248022D01*
X229524Y246500D01*
X229826Y244978D01*
X230688Y243688D01*
X231978Y242826D01*
X233500Y242524D01*
X235022Y242826D01*
X236312Y243688D01*
X237174Y244978D01*
X237476Y246500D01*
X237174Y248022D01*
X236312Y249312D01*
X235022Y250174D01*
X233500Y250476D01*
D02*
G37*
G36*
X541700Y252685D02*
X539116Y252345D01*
X536707Y251348D01*
X534639Y249761D01*
X533052Y247693D01*
X532055Y245284D01*
X531715Y242700D01*
X532055Y240116D01*
X533052Y237707D01*
X534639Y235639D01*
X536707Y234052D01*
X539116Y233055D01*
X541700Y232715D01*
X544284Y233055D01*
X546693Y234052D01*
X548761Y235639D01*
X550348Y237707D01*
X551345Y240116D01*
X551685Y242700D01*
X551345Y245284D01*
X550348Y247693D01*
X548761Y249761D01*
X546693Y251348D01*
X544284Y252345D01*
X541700Y252685D01*
D02*
G37*
G36*
X694000Y233976D02*
X692478Y233674D01*
X691188Y232812D01*
X690326Y231522D01*
X690024Y230000D01*
X690326Y228478D01*
X691188Y227188D01*
X692478Y226326D01*
X694000Y226024D01*
X695522Y226326D01*
X696812Y227188D01*
X697674Y228478D01*
X697976Y230000D01*
X697674Y231522D01*
X696812Y232812D01*
X695522Y233674D01*
X694000Y233976D01*
D02*
G37*
G36*
X610200Y241200D02*
X600803D01*
X600983Y239828D01*
X602091Y237153D01*
X603855Y234855D01*
X606153Y233092D01*
X608828Y231983D01*
X610200Y231803D01*
Y241200D01*
D02*
G37*
G36*
X475740Y272531D02*
X472372Y272088D01*
X469234Y270788D01*
X466540Y268720D01*
X464472Y266026D01*
X463172Y262888D01*
X462729Y259520D01*
X463172Y256152D01*
X464472Y253014D01*
X466540Y250320D01*
X469234Y248252D01*
X472372Y246952D01*
X475740Y246509D01*
X479108Y246952D01*
X482246Y248252D01*
X484940Y250320D01*
X487008Y253014D01*
X488308Y256152D01*
X488751Y259520D01*
X488308Y262888D01*
X487008Y266026D01*
X484940Y268720D01*
X482246Y270788D01*
X479108Y272088D01*
X475740Y272531D01*
D02*
G37*
G36*
X730000Y261976D02*
X728478Y261674D01*
X727188Y260812D01*
X726326Y259522D01*
X726024Y258000D01*
X726326Y256478D01*
X727188Y255188D01*
X728478Y254326D01*
X730000Y254024D01*
X731522Y254326D01*
X732812Y255188D01*
X733674Y256478D01*
X733976Y258000D01*
X733674Y259522D01*
X732812Y260812D01*
X731522Y261674D01*
X730000Y261976D01*
D02*
G37*
G36*
X318260Y272531D02*
X314892Y272088D01*
X311754Y270788D01*
X309060Y268720D01*
X306992Y266026D01*
X305692Y262888D01*
X305249Y259520D01*
X305692Y256152D01*
X306992Y253014D01*
X309060Y250320D01*
X311754Y248252D01*
X314892Y246952D01*
X318260Y246509D01*
X321628Y246952D01*
X324766Y248252D01*
X327460Y250320D01*
X329528Y253014D01*
X330828Y256152D01*
X331271Y259520D01*
X330828Y262888D01*
X329528Y266026D01*
X327460Y268720D01*
X324766Y270788D01*
X321628Y272088D01*
X318260Y272531D01*
D02*
G37*
G36*
X610200Y253597D02*
X608828Y253417D01*
X606153Y252309D01*
X603855Y250545D01*
X602091Y248247D01*
X600983Y245572D01*
X600803Y244200D01*
X610200D01*
Y253597D01*
D02*
G37*
G36*
X642400Y258694D02*
X638597Y258319D01*
X634940Y257210D01*
X631570Y255409D01*
X628616Y252984D01*
X626191Y250030D01*
X624390Y246660D01*
X623807Y244739D01*
X622512Y244846D01*
X622417Y245572D01*
X621309Y248247D01*
X619545Y250545D01*
X617247Y252309D01*
X614572Y253417D01*
X613200Y253597D01*
Y242700D01*
Y231803D01*
X614572Y231983D01*
X617247Y233092D01*
X619545Y234855D01*
X621309Y237153D01*
X621731Y238173D01*
X623026Y237981D01*
X623281Y235397D01*
X624390Y231740D01*
X626191Y228370D01*
X628616Y225416D01*
X631570Y222992D01*
X634940Y221190D01*
X638597Y220081D01*
X642400Y219706D01*
X646203Y220081D01*
X649860Y221190D01*
X653230Y222992D01*
X656184Y225416D01*
X658608Y228370D01*
X660410Y231740D01*
X661519Y235397D01*
X661894Y239200D01*
X661519Y243003D01*
X660410Y246660D01*
X658608Y250030D01*
X656184Y252984D01*
X653230Y255409D01*
X649860Y257210D01*
X646203Y258319D01*
X642400Y258694D01*
D02*
G37*
G36*
X288000Y223976D02*
X286478Y223674D01*
X285188Y222812D01*
X284326Y221522D01*
X284024Y220000D01*
X284326Y218478D01*
X285188Y217188D01*
X286478Y216326D01*
X288000Y216024D01*
X289522Y216326D01*
X290812Y217188D01*
X291674Y218478D01*
X291976Y220000D01*
X291674Y221522D01*
X290812Y222812D01*
X289522Y223674D01*
X288000Y223976D01*
D02*
G37*
G36*
X298000D02*
X296478Y223674D01*
X295188Y222812D01*
X294326Y221522D01*
X294024Y220000D01*
X294326Y218478D01*
X295188Y217188D01*
X296478Y216326D01*
X298000Y216024D01*
X299522Y216326D01*
X300812Y217188D01*
X301674Y218478D01*
X301976Y220000D01*
X301674Y221522D01*
X300812Y222812D01*
X299522Y223674D01*
X298000Y223976D01*
D02*
G37*
G36*
X235000Y213976D02*
X233478Y213674D01*
X232188Y212812D01*
X231326Y211522D01*
X231024Y210000D01*
X231326Y208478D01*
X232188Y207188D01*
X233478Y206326D01*
X235000Y206024D01*
X236522Y206326D01*
X237812Y207188D01*
X238674Y208478D01*
X238976Y210000D01*
X238674Y211522D01*
X237812Y212812D01*
X236522Y213674D01*
X235000Y213976D01*
D02*
G37*
G36*
X875500Y204497D02*
X874128Y204317D01*
X871453Y203209D01*
X869155Y201445D01*
X867392Y199147D01*
X866283Y196472D01*
X866103Y195100D01*
X875500D01*
Y204497D01*
D02*
G37*
G36*
X878500D02*
Y195100D01*
X887897D01*
X887717Y196472D01*
X886609Y199147D01*
X884845Y201445D01*
X882547Y203209D01*
X879872Y204317D01*
X878500Y204497D01*
D02*
G37*
G36*
X428750Y236485D02*
X426166Y236145D01*
X423757Y235148D01*
X421689Y233561D01*
X420102Y231493D01*
X419105Y229084D01*
X418765Y226500D01*
X419105Y223916D01*
X420102Y221507D01*
X421689Y219439D01*
X423757Y217852D01*
X426166Y216855D01*
X428750Y216515D01*
X431334Y216855D01*
X433743Y217852D01*
X435811Y219439D01*
X437398Y221507D01*
X438395Y223916D01*
X438735Y226500D01*
X438395Y229084D01*
X437398Y231493D01*
X435811Y233561D01*
X433743Y235148D01*
X431334Y236145D01*
X428750Y236485D01*
D02*
G37*
G36*
X211500Y225476D02*
X209978Y225174D01*
X208688Y224312D01*
X207826Y223022D01*
X207524Y221500D01*
X207717Y220529D01*
X206840Y219480D01*
X206739Y219429D01*
X206500Y219476D01*
X204978Y219174D01*
X203688Y218312D01*
X202826Y217022D01*
X202524Y215500D01*
X202826Y213978D01*
X203688Y212688D01*
X204978Y211826D01*
X206500Y211524D01*
X208022Y211826D01*
X209312Y212688D01*
X210174Y213978D01*
X210476Y215500D01*
X210283Y216471D01*
X211161Y217521D01*
X211261Y217571D01*
X211500Y217524D01*
X213022Y217826D01*
X214312Y218688D01*
X215174Y219978D01*
X215476Y221500D01*
X215174Y223022D01*
X214312Y224312D01*
X213022Y225174D01*
X211500Y225476D01*
D02*
G37*
G36*
X403350Y236485D02*
X400766Y236145D01*
X398357Y235148D01*
X396289Y233561D01*
X394702Y231493D01*
X393705Y229084D01*
X393365Y226500D01*
X393705Y223916D01*
X394702Y221507D01*
X396289Y219439D01*
X398357Y217852D01*
X400766Y216855D01*
X403350Y216515D01*
X405934Y216855D01*
X408343Y217852D01*
X410411Y219439D01*
X411998Y221507D01*
X412995Y223916D01*
X413335Y226500D01*
X412995Y229084D01*
X411998Y231493D01*
X410411Y233561D01*
X408343Y235148D01*
X405934Y236145D01*
X403350Y236485D01*
D02*
G37*
G36*
X352550D02*
X349966Y236145D01*
X347557Y235148D01*
X345489Y233561D01*
X343902Y231493D01*
X342905Y229084D01*
X342565Y226500D01*
X342905Y223916D01*
X343902Y221507D01*
X344305Y220983D01*
X344298Y220950D01*
Y185757D01*
X344504Y184723D01*
X345089Y183847D01*
X376347Y152590D01*
X377223Y152004D01*
X378257Y151798D01*
X493302D01*
X493326Y151678D01*
X494188Y150388D01*
X495478Y149526D01*
X497000Y149224D01*
X498522Y149526D01*
X499812Y150388D01*
X500674Y151678D01*
X500976Y153200D01*
X500674Y154722D01*
X499820Y156000D01*
X500674Y157278D01*
X500976Y158800D01*
X500674Y160322D01*
X499812Y161612D01*
X498522Y162474D01*
X497000Y162776D01*
X495478Y162474D01*
X494188Y161612D01*
X493326Y160322D01*
X493302Y160202D01*
X380619D01*
X352702Y188119D01*
Y207881D01*
X353119Y208298D01*
X356694D01*
X357320Y207028D01*
X356602Y206093D01*
X355605Y203684D01*
X355265Y201100D01*
X355605Y198516D01*
X356602Y196107D01*
X358189Y194039D01*
X360257Y192452D01*
X362666Y191455D01*
X365250Y191115D01*
X367834Y191455D01*
X370243Y192452D01*
X372311Y194039D01*
X373898Y196107D01*
X374895Y198516D01*
X375235Y201100D01*
X374895Y203684D01*
X373898Y206093D01*
X372311Y208161D01*
X370243Y209748D01*
X367834Y210745D01*
X366961Y210860D01*
X364911Y212910D01*
X364034Y213496D01*
X363000Y213702D01*
X352000D01*
X350966Y213496D01*
X349702Y214179D01*
Y215652D01*
X350972Y216722D01*
X352550Y216515D01*
X355134Y216855D01*
X357543Y217852D01*
X359611Y219439D01*
X361198Y221507D01*
X362195Y223916D01*
X362535Y226500D01*
X362195Y229084D01*
X361198Y231493D01*
X359611Y233561D01*
X357543Y235148D01*
X355134Y236145D01*
X352550Y236485D01*
D02*
G37*
G36*
X377950D02*
X375366Y236145D01*
X372957Y235148D01*
X370889Y233561D01*
X369302Y231493D01*
X368305Y229084D01*
X367965Y226500D01*
X368305Y223916D01*
X369302Y221507D01*
X370889Y219439D01*
X372957Y217852D01*
X375366Y216855D01*
X377950Y216515D01*
X380534Y216855D01*
X382943Y217852D01*
X385011Y219439D01*
X386598Y221507D01*
X387595Y223916D01*
X387935Y226500D01*
X387595Y229084D01*
X386598Y231493D01*
X385011Y233561D01*
X382943Y235148D01*
X380534Y236145D01*
X377950Y236485D01*
D02*
G37*
G36*
X642400Y315494D02*
X638597Y315119D01*
X634940Y314010D01*
X631570Y312208D01*
X628616Y309784D01*
X626191Y306830D01*
X624390Y303460D01*
X623281Y299803D01*
X622906Y296000D01*
X623281Y292197D01*
X624390Y288540D01*
X626191Y285170D01*
X628616Y282216D01*
X631570Y279791D01*
X634940Y277990D01*
X638597Y276881D01*
X642400Y276506D01*
X646203Y276881D01*
X649860Y277990D01*
X653230Y279791D01*
X656184Y282216D01*
X658608Y285170D01*
X660410Y288540D01*
X661519Y292197D01*
X661894Y296000D01*
X661519Y299803D01*
X660410Y303460D01*
X658608Y306830D01*
X656184Y309784D01*
X653230Y312208D01*
X649860Y314010D01*
X646203Y315119D01*
X642400Y315494D01*
D02*
G37*
G36*
X24500Y286500D02*
X15103D01*
X15283Y285128D01*
X16392Y282453D01*
X18155Y280155D01*
X20452Y278391D01*
X23128Y277283D01*
X24500Y277103D01*
Y286500D01*
D02*
G37*
G36*
X511000Y315494D02*
X507197Y315119D01*
X503540Y314010D01*
X500170Y312208D01*
X497216Y309784D01*
X494791Y306830D01*
X492990Y303460D01*
X491881Y299803D01*
X491506Y296000D01*
X491881Y292197D01*
X492990Y288540D01*
X494791Y285170D01*
X497216Y282216D01*
X500170Y279791D01*
X503540Y277990D01*
X507197Y276881D01*
X511000Y276506D01*
X514803Y276881D01*
X518460Y277990D01*
X521830Y279791D01*
X524784Y282216D01*
X527209Y285170D01*
X529010Y288540D01*
X530119Y292197D01*
X530494Y296000D01*
X530119Y299803D01*
X529010Y303460D01*
X527209Y306830D01*
X524784Y309784D01*
X521830Y312208D01*
X518460Y314010D01*
X514803Y315119D01*
X511000Y315494D01*
D02*
G37*
G36*
X454150Y308489D02*
X450543Y308134D01*
X447075Y307082D01*
X443878Y305373D01*
X441076Y303074D01*
X438777Y300272D01*
X437068Y297076D01*
X436016Y293607D01*
X435661Y290000D01*
X436016Y286393D01*
X437068Y282925D01*
X438777Y279728D01*
X441076Y276926D01*
X443878Y274627D01*
X447075Y272918D01*
X450543Y271866D01*
X454150Y271511D01*
X457757Y271866D01*
X461225Y272918D01*
X464422Y274627D01*
X467224Y276926D01*
X469523Y279728D01*
X471232Y282925D01*
X472284Y286393D01*
X472639Y290000D01*
X472284Y293607D01*
X471232Y297076D01*
X469523Y300272D01*
X467224Y303074D01*
X464422Y305373D01*
X461225Y307082D01*
X457757Y308134D01*
X454150Y308489D01*
D02*
G37*
G36*
X586700Y278885D02*
X584116Y278545D01*
X581707Y277548D01*
X579639Y275961D01*
X578052Y273893D01*
X577387Y272287D01*
X576013D01*
X575348Y273893D01*
X573761Y275961D01*
X571693Y277548D01*
X569284Y278545D01*
X566700Y278885D01*
X564116Y278545D01*
X561707Y277548D01*
X559639Y275961D01*
X558052Y273893D01*
X557055Y271484D01*
X556715Y268900D01*
X557055Y266316D01*
X558052Y263907D01*
X559639Y261839D01*
X561707Y260252D01*
X564116Y259255D01*
X566700Y258915D01*
X569284Y259255D01*
X571693Y260252D01*
X573761Y261839D01*
X575348Y263907D01*
X576013Y265513D01*
X577387D01*
X578052Y263907D01*
X579639Y261839D01*
X581707Y260252D01*
X584116Y259255D01*
X586700Y258915D01*
X589284Y259255D01*
X591693Y260252D01*
X593761Y261839D01*
X595348Y263907D01*
X596345Y266316D01*
X596685Y268900D01*
X596345Y271484D01*
X595348Y273893D01*
X593761Y275961D01*
X591693Y277548D01*
X589284Y278545D01*
X586700Y278885D01*
D02*
G37*
G36*
X24500Y298897D02*
X23128Y298717D01*
X20452Y297609D01*
X18155Y295845D01*
X16392Y293547D01*
X15283Y290872D01*
X15103Y289500D01*
X24500D01*
Y298897D01*
D02*
G37*
G36*
X27500D02*
Y289500D01*
X36897D01*
X36717Y290872D01*
X35608Y293547D01*
X33845Y295845D01*
X31548Y297609D01*
X28872Y298717D01*
X27500Y298897D01*
D02*
G37*
G36*
X434846Y349007D02*
X432262Y348667D01*
X429853Y347670D01*
X427785Y346083D01*
X426198Y344015D01*
X425201Y341606D01*
X424861Y339022D01*
X425201Y336438D01*
X426150Y334147D01*
X425089Y333087D01*
X424504Y332210D01*
X424298Y331176D01*
Y282319D01*
X423028Y281793D01*
X417702Y287119D01*
Y312000D01*
X417496Y313034D01*
X416911Y313911D01*
X405129Y325692D01*
X404252Y326278D01*
X403218Y326484D01*
X368750D01*
X367802Y328775D01*
X366215Y330843D01*
X364147Y332430D01*
X361738Y333427D01*
X359154Y333767D01*
X356570Y333427D01*
X354161Y332430D01*
X352093Y330843D01*
X350506Y328775D01*
X349509Y326366D01*
X349169Y323782D01*
X349509Y321198D01*
X350506Y318789D01*
X352093Y316721D01*
X354161Y315134D01*
X356570Y314137D01*
X359154Y313797D01*
X361738Y314137D01*
X364147Y315134D01*
X366215Y316721D01*
X367802Y318789D01*
X368750Y321080D01*
X402099D01*
X409008Y314171D01*
X408505Y312878D01*
X407478Y312674D01*
X406188Y311812D01*
X405326Y310522D01*
X405024Y309000D01*
X405326Y307478D01*
X406188Y306188D01*
X406298Y306115D01*
Y286000D01*
X406504Y284966D01*
X407090Y284089D01*
X483089Y208090D01*
X483966Y207504D01*
X485000Y207298D01*
X532762D01*
X532835Y207221D01*
X533288Y206028D01*
X522630Y195370D01*
X522630Y195370D01*
X519630Y192370D01*
X519210Y191741D01*
X519063Y191000D01*
X519063Y191000D01*
Y147000D01*
Y134089D01*
X519100Y133901D01*
X519100Y133710D01*
X519173Y133534D01*
X519210Y133347D01*
X519216Y133338D01*
X519343Y133033D01*
X519345Y133022D01*
X519451Y132864D01*
X519523Y132688D01*
X519562Y132650D01*
X519585Y132601D01*
X519585Y132601D01*
X519688Y132508D01*
X519765Y132393D01*
X520393Y131765D01*
X520553Y131658D01*
X520689Y131523D01*
X520864Y131451D01*
X521022Y131345D01*
X521033Y131343D01*
X521338Y131216D01*
X521338Y131216D01*
X521348Y131210D01*
X521534Y131173D01*
X521711Y131100D01*
X521902Y131100D01*
X522089Y131063D01*
X527887D01*
X528199Y131125D01*
X528515Y131167D01*
X529628Y131549D01*
X529681Y131580D01*
X529741Y131592D01*
X530006Y131769D01*
X530282Y131929D01*
X530319Y131978D01*
X530370Y132012D01*
X530547Y132276D01*
X530740Y132530D01*
X530756Y132589D01*
X530790Y132640D01*
X530852Y132952D01*
X530933Y133261D01*
X530925Y133321D01*
X530937Y133382D01*
Y143370D01*
X530937Y186198D01*
X530937Y186198D01*
X542789Y198050D01*
X548802Y204063D01*
X548803Y204063D01*
X588809D01*
X588997Y204100D01*
X589188Y204100D01*
X589364Y204173D01*
X589551Y204210D01*
X589574Y204226D01*
X589681Y204270D01*
X589816Y204361D01*
X589886Y204389D01*
X589910Y204405D01*
X589963Y204458D01*
X590310Y204690D01*
X590542Y205038D01*
X590595Y205091D01*
X590611Y205115D01*
X590639Y205184D01*
X590730Y205319D01*
X590730Y205319D01*
X590774Y205426D01*
X590790Y205449D01*
X590827Y205637D01*
X590900Y205813D01*
Y206004D01*
X590937Y206191D01*
Y209277D01*
X590937Y209277D01*
X590937Y209277D01*
X592207Y210181D01*
X593000Y210024D01*
X594522Y210326D01*
X595812Y211188D01*
X596385Y212046D01*
X596674Y212478D01*
X596842Y213127D01*
X596842D01*
Y213127D01*
X598098D01*
X598103Y213102D01*
X598326Y211978D01*
X599188Y210688D01*
X600478Y209826D01*
X602000Y209524D01*
X603522Y209826D01*
X604812Y210688D01*
X605674Y211978D01*
X605976Y213500D01*
X605674Y215022D01*
X605001Y216028D01*
X605348Y217015D01*
X605564Y217298D01*
X616881D01*
X653298Y180881D01*
Y176885D01*
X653188Y176812D01*
X652326Y175522D01*
X652024Y174000D01*
X652326Y172478D01*
X653188Y171188D01*
X654478Y170326D01*
X656000Y170024D01*
X657522Y170326D01*
X658812Y171188D01*
X659674Y172478D01*
X659829Y173259D01*
X660310Y174049D01*
X661209Y174181D01*
X662000Y174024D01*
X663522Y174326D01*
X664812Y175188D01*
X665674Y176478D01*
X665976Y178000D01*
X665674Y179522D01*
X664812Y180812D01*
X664702Y180885D01*
Y182000D01*
X664496Y183034D01*
X663911Y183911D01*
X618910Y228911D01*
X618034Y229496D01*
X617000Y229702D01*
X567119D01*
X565188Y231633D01*
X565782Y232836D01*
X566700Y232715D01*
X569284Y233055D01*
X571693Y234052D01*
X573761Y235639D01*
X575348Y237707D01*
X576013Y239313D01*
X577387D01*
X578052Y237707D01*
X579639Y235639D01*
X581707Y234052D01*
X584116Y233055D01*
X586700Y232715D01*
X589284Y233055D01*
X591693Y234052D01*
X593761Y235639D01*
X595348Y237707D01*
X596345Y240116D01*
X596685Y242700D01*
X596345Y245284D01*
X595348Y247693D01*
X593761Y249761D01*
X591693Y251348D01*
X589284Y252345D01*
X586700Y252685D01*
X584116Y252345D01*
X581707Y251348D01*
X579639Y249761D01*
X578052Y247693D01*
X577387Y246087D01*
X576013D01*
X575348Y247693D01*
X573761Y249761D01*
X571693Y251348D01*
X569284Y252345D01*
X566700Y252685D01*
X564116Y252345D01*
X561707Y251348D01*
X559639Y249761D01*
X558052Y247693D01*
X557055Y245284D01*
X556715Y242700D01*
X557055Y240116D01*
X558052Y237707D01*
X558717Y236841D01*
X558155Y235702D01*
X554000D01*
X552966Y235496D01*
X552089Y234911D01*
X547881Y230702D01*
X539000D01*
X537966Y230496D01*
X537090Y229911D01*
X526881Y219702D01*
X517929D01*
X517741Y220972D01*
X518460Y221190D01*
X521830Y222992D01*
X524784Y225416D01*
X527209Y228370D01*
X529010Y231740D01*
X530119Y235397D01*
X530494Y239200D01*
X530119Y243003D01*
X529010Y246660D01*
X527209Y250030D01*
X524784Y252984D01*
X521830Y255409D01*
X518460Y257210D01*
X514803Y258319D01*
X511000Y258694D01*
X507197Y258319D01*
X503540Y257210D01*
X500170Y255409D01*
X497216Y252984D01*
X494791Y250030D01*
X492990Y246660D01*
X491881Y243003D01*
X491506Y239200D01*
X491881Y235397D01*
X492990Y231740D01*
X494791Y228370D01*
X497216Y225416D01*
X500170Y222992D01*
X503540Y221190D01*
X504259Y220972D01*
X504071Y219702D01*
X492119D01*
X429702Y282119D01*
Y329062D01*
X430972Y329911D01*
X432262Y329377D01*
X434846Y329037D01*
X437430Y329377D01*
X439839Y330374D01*
X441907Y331961D01*
X443494Y334029D01*
X444491Y336438D01*
X444831Y339022D01*
X444491Y341606D01*
X443494Y344015D01*
X441907Y346083D01*
X439839Y347670D01*
X437430Y348667D01*
X434846Y349007D01*
D02*
G37*
G36*
X36897Y286500D02*
X27500D01*
Y277103D01*
X28872Y277283D01*
X31548Y278391D01*
X33845Y280155D01*
X35608Y282453D01*
X36717Y285128D01*
X36897Y286500D01*
D02*
G37*
G36*
X224000Y288976D02*
X222478Y288674D01*
X221188Y287812D01*
X220326Y286522D01*
X220024Y285000D01*
X220326Y283478D01*
X221188Y282188D01*
X222478Y281326D01*
X224000Y281024D01*
X225522Y281326D01*
X226812Y282188D01*
X227674Y283478D01*
X227976Y285000D01*
X227674Y286522D01*
X226812Y287812D01*
X225522Y288674D01*
X224000Y288976D01*
D02*
G37*
G36*
X886900Y279700D02*
X867100D01*
Y259900D01*
X886900D01*
Y279700D01*
D02*
G37*
G36*
X694000Y267976D02*
X692478Y267674D01*
X691188Y266812D01*
X690326Y265522D01*
X690024Y264000D01*
X690326Y262478D01*
X691188Y261188D01*
X692478Y260326D01*
X694000Y260024D01*
X695522Y260326D01*
X696812Y261188D01*
X697674Y262478D01*
X697976Y264000D01*
X697674Y265522D01*
X696812Y266812D01*
X695522Y267674D01*
X694000Y267976D01*
D02*
G37*
G36*
X541700Y278885D02*
X539116Y278545D01*
X536707Y277548D01*
X534639Y275961D01*
X533052Y273893D01*
X532055Y271484D01*
X531715Y268900D01*
X532055Y266316D01*
X533052Y263907D01*
X534639Y261839D01*
X536707Y260252D01*
X539116Y259255D01*
X541700Y258915D01*
X544284Y259255D01*
X546693Y260252D01*
X548761Y261839D01*
X550348Y263907D01*
X551345Y266316D01*
X551685Y268900D01*
X551345Y271484D01*
X550348Y273893D01*
X548761Y275961D01*
X546693Y277548D01*
X544284Y278545D01*
X541700Y278885D01*
D02*
G37*
G36*
X610200Y267400D02*
X600803D01*
X600983Y266028D01*
X602091Y263353D01*
X603855Y261055D01*
X606153Y259291D01*
X608828Y258183D01*
X610200Y258003D01*
Y267400D01*
D02*
G37*
G36*
X622597D02*
X613200D01*
Y258003D01*
X614572Y258183D01*
X617247Y259291D01*
X619545Y261055D01*
X621309Y263353D01*
X622417Y266028D01*
X622597Y267400D01*
D02*
G37*
G36*
X613200Y279797D02*
Y270400D01*
X622597D01*
X622417Y271772D01*
X621309Y274447D01*
X619545Y276745D01*
X617247Y278508D01*
X614572Y279617D01*
X613200Y279797D01*
D02*
G37*
G36*
X339850Y308489D02*
X336243Y308134D01*
X332775Y307082D01*
X329578Y305373D01*
X326776Y303074D01*
X324477Y300272D01*
X322768Y297076D01*
X321716Y293607D01*
X321361Y290000D01*
X321716Y286393D01*
X322768Y282925D01*
X324477Y279728D01*
X326776Y276926D01*
X329578Y274627D01*
X332775Y272918D01*
X336243Y271866D01*
X339850Y271511D01*
X343457Y271866D01*
X346925Y272918D01*
X350122Y274627D01*
X352924Y276926D01*
X355223Y279728D01*
X356932Y282925D01*
X357984Y286393D01*
X358339Y290000D01*
X357984Y293607D01*
X356932Y297076D01*
X355223Y300272D01*
X352924Y303074D01*
X350122Y305373D01*
X346925Y307082D01*
X343457Y308134D01*
X339850Y308489D01*
D02*
G37*
G36*
X610200Y279797D02*
X608828Y279617D01*
X606153Y278508D01*
X603855Y276745D01*
X602091Y274447D01*
X600983Y271772D01*
X600803Y270400D01*
X610200D01*
Y279797D01*
D02*
G37*
G36*
X712000Y268976D02*
X710478Y268674D01*
X709188Y267812D01*
X708326Y266522D01*
X708024Y265000D01*
X708326Y263478D01*
X709188Y262188D01*
X710478Y261326D01*
X712000Y261024D01*
X713522Y261326D01*
X714812Y262188D01*
X715674Y263478D01*
X715976Y265000D01*
X715674Y266522D01*
X714812Y267812D01*
X713522Y268674D01*
X712000Y268976D01*
D02*
G37*
G36*
X723000D02*
X721478Y268674D01*
X720188Y267812D01*
X719326Y266522D01*
X719024Y265000D01*
X719326Y263478D01*
X720188Y262188D01*
X721478Y261326D01*
X723000Y261024D01*
X724522Y261326D01*
X725812Y262188D01*
X726674Y263478D01*
X726976Y265000D01*
X726674Y266522D01*
X725812Y267812D01*
X724522Y268674D01*
X723000Y268976D01*
D02*
G37*
%LPD*%
G36*
X589000Y209277D02*
X589000Y209277D01*
X589000D01*
Y206191D01*
X588984Y206167D01*
X588940Y206060D01*
X588833Y206016D01*
X588809Y206000D01*
X548803D01*
X548802Y206000D01*
X548802Y206000D01*
X548000D01*
X541419Y199419D01*
X529567Y187568D01*
X529567Y187567D01*
X529000Y187000D01*
X529000Y143370D01*
Y133382D01*
X527887Y133000D01*
X522089D01*
X522080Y133006D01*
X521774Y133133D01*
X521763Y133135D01*
X521763Y133135D01*
X521135Y133763D01*
X521135Y133763D01*
X521133Y133774D01*
X521006Y134079D01*
X521000Y134089D01*
Y147000D01*
Y191000D01*
X524000Y194000D01*
X535000Y205000D01*
X547000Y217000D01*
X589000D01*
Y209277D01*
D02*
G37*
D39*
X622000Y7000D02*
X627000Y12000D01*
X188000Y7000D02*
X622000D01*
X175000Y20000D02*
X188000Y7000D01*
X612000Y12000D02*
X615000Y15000D01*
X407000Y12000D02*
X612000D01*
X396000Y23000D02*
X407000Y12000D01*
X656000Y174000D02*
Y182000D01*
X618000Y220000D02*
X656000Y182000D01*
X544000Y220000D02*
X618000D01*
X662000Y178000D02*
Y182000D01*
X617000Y227000D02*
X662000Y182000D01*
X566000Y227000D02*
X617000D01*
X866600Y234000D02*
X877000Y244400D01*
X752000Y234000D02*
X866600D01*
X726000Y208000D02*
X752000Y234000D01*
X688250Y208000D02*
X726000D01*
X687000Y209250D02*
X688250Y208000D01*
X865000Y231000D02*
X877000Y219000D01*
X753243Y231000D02*
X865000D01*
X727243Y205000D02*
X753243Y231000D01*
X688250Y205000D02*
X727243D01*
X687000Y203750D02*
X688250Y205000D01*
X495700Y142500D02*
X497000Y143800D01*
X491243Y145000D02*
X493743Y142500D01*
X495700D01*
X396500Y145000D02*
X491243D01*
X395000Y146500D02*
X396500Y145000D01*
X490000Y142000D02*
X492500Y139500D01*
X396500Y142000D02*
X490000D01*
X492500Y139500D02*
X495700D01*
X395000Y140500D02*
X396500Y142000D01*
X495700Y139500D02*
X497000Y138200D01*
X486000Y131000D02*
Y137500D01*
X491000Y126000D02*
X589243D01*
X486000Y131000D02*
X491000Y126000D01*
X427000Y331176D02*
X434846Y339022D01*
X427000Y281000D02*
Y331176D01*
Y281000D02*
X491000Y217000D01*
X528000D01*
X415000Y286000D02*
Y312000D01*
Y286000D02*
X488000Y213000D01*
X531000D01*
X542000Y224000D01*
X409000Y286000D02*
Y309000D01*
X534000Y210000D02*
X544000Y220000D01*
X409000Y286000D02*
X485000Y210000D01*
X534000D01*
X403218Y323782D02*
X415000Y312000D01*
X359154Y323782D02*
X403218D01*
X378257Y154500D02*
X495700D01*
X379500Y157500D02*
X495700D01*
X497000Y158800D01*
X350000Y187000D02*
X379500Y157500D01*
X495700Y154500D02*
X497000Y153200D01*
X347000Y220950D02*
X352550Y226500D01*
X347000Y185757D02*
X378257Y154500D01*
X347000Y185757D02*
Y220950D01*
X334757Y245000D02*
X436243D01*
X336000Y242000D02*
X435000D01*
X436243Y245000D02*
X512293Y168950D01*
Y164835D02*
X513593Y163535D01*
X512293Y164835D02*
Y168950D01*
X509293Y164835D02*
Y167707D01*
X507993Y163535D02*
X509293Y164835D01*
X435000Y242000D02*
X509293Y167707D01*
X263500Y173743D02*
X334757Y245000D01*
X266500Y172500D02*
X336000Y242000D01*
X263500Y169250D02*
Y173743D01*
X266500Y169250D02*
Y172500D01*
Y169250D02*
X267750Y168000D01*
X262250D02*
X263500Y169250D01*
X60250Y211250D02*
X150750D01*
X60250Y208250D02*
X149507D01*
X213243Y170000D02*
X229000D01*
X197243Y186000D02*
X213243Y170000D01*
X245750Y156500D02*
X247000Y157750D01*
X229000Y170000D02*
X242500Y156500D01*
X245750D01*
X150750Y211250D02*
X176000Y186000D01*
X197243D01*
X241257Y153500D02*
X245750D01*
X212000Y167000D02*
X227757D01*
X196000Y183000D02*
X212000Y167000D01*
X227757D02*
X241257Y153500D01*
X245750D02*
X247000Y152250D01*
X149507Y208250D02*
X174757Y183000D01*
X196000D01*
X59250Y211250D02*
X64000D01*
X58000Y212500D02*
X59250Y211250D01*
X59250Y208250D02*
X64000D01*
X58000Y207000D02*
X59250Y208250D01*
X734000Y172000D02*
X740000Y178000D01*
X734000Y169000D02*
Y172000D01*
X591243Y128000D02*
X645000D01*
X705000Y140000D02*
X734000Y169000D01*
X200000Y93000D02*
X310000D01*
X421000Y114000D02*
X700000D01*
X707000Y100000D02*
X710000Y97000D01*
X707000Y100000D02*
Y107000D01*
X700000Y114000D02*
X707000Y107000D01*
X231000Y117000D02*
X704000D01*
X712000Y102000D02*
Y109000D01*
X704000Y117000D02*
X712000Y109000D01*
X235500Y120000D02*
X591728D01*
X358500Y123000D02*
X590485D01*
X591728Y120000D02*
X593728Y122000D01*
X592485Y125000D02*
X708000D01*
X593728Y122000D02*
X704000D01*
X590485Y123000D02*
X592485Y125000D01*
X589243Y126000D02*
X591243Y128000D01*
X346500Y135000D02*
X358500Y123000D01*
X220500Y135000D02*
X235500Y120000D01*
X214500Y133500D02*
X231000Y117000D01*
X407250Y114000D02*
X412500Y108750D01*
X111000Y114000D02*
X407250D01*
X95000Y130000D02*
X111000Y114000D01*
X207000Y111000D02*
X213000Y105000D01*
X104000Y111000D02*
X207000D01*
X85000Y130000D02*
X104000Y111000D01*
X213000Y105000D02*
X340000D01*
X342000Y103000D01*
X358750D01*
X364750Y109000D01*
X708000Y125000D02*
X731000Y102000D01*
X704000Y122000D02*
X731000Y95000D01*
X418500Y111500D02*
X421000Y114000D01*
X418500Y108750D02*
Y111500D01*
X710000Y97000D02*
X717000D01*
X724000Y90000D01*
X744000D01*
X749000Y95000D01*
Y102000D01*
X214500Y133500D02*
Y135000D01*
X157500Y55500D02*
X162000Y60000D01*
X704000Y62250D02*
X705250Y61000D01*
X781750D01*
X783000Y62250D01*
X704000Y56750D02*
X705250Y58000D01*
X781750D02*
X783000Y56750D01*
X705250Y58000D02*
X781750D01*
X274000Y48000D02*
X275757D01*
X652750Y20000D02*
X654000Y18750D01*
X633757Y34000D02*
X647757Y20000D01*
X652750D01*
X289757Y34000D02*
X633757D01*
X649000Y23000D02*
X652750D01*
X635000Y37000D02*
X649000Y23000D01*
X652750D02*
X654000Y24250D01*
X291000Y37000D02*
X635000D01*
X275757Y48000D02*
X289757Y34000D01*
X277889Y50111D02*
Y51889D01*
Y50111D02*
X291000Y37000D01*
X740000Y178000D02*
Y190000D01*
X474750Y77000D02*
X476000Y78250D01*
X471000Y77000D02*
X474750D01*
X148005Y91995D02*
Y93763D01*
X465757Y78000D02*
X469757Y74000D01*
X154000Y96000D02*
X172000Y78000D01*
X465757D01*
X148005Y93763D02*
X150243Y96000D01*
X154000D01*
X469757Y74000D02*
X474750D01*
X467000Y81000D02*
X471000Y77000D01*
X155243Y99000D02*
X173243Y81000D01*
X467000D01*
X144116Y95884D02*
X145884D01*
X149000Y99000D01*
X155243D01*
X474750Y74000D02*
X476000Y72750D01*
X177000Y85000D02*
X499750D01*
X501000Y83750D01*
X178243Y88000D02*
X499750D01*
X121500Y98250D02*
X122750Y97000D01*
X158000Y104000D02*
X177000Y85000D01*
X121500Y98250D02*
Y102000D01*
X123500Y104000D01*
X158000D01*
X117250Y97000D02*
X118500Y98250D01*
X159243Y107000D02*
X178243Y88000D01*
X118500Y98250D02*
Y103243D01*
X122257Y107000D01*
X159243D01*
X499750Y88000D02*
X501000Y89250D01*
X474750Y100000D02*
X476000Y98750D01*
X474750Y103000D02*
X476000Y104250D01*
X181250Y98250D02*
X182500Y97000D01*
X326757Y98000D02*
X329757Y95000D01*
X200121Y103879D02*
X206000Y98000D01*
X181250Y98250D02*
Y101000D01*
X184129Y103879D01*
X200121D01*
X206000Y98000D02*
X326757D01*
X329757Y95000D02*
X439000D01*
X444000Y100000D01*
X177000Y97000D02*
X178250Y98250D01*
Y102243D01*
X328000Y101000D02*
X331000Y98000D01*
X201364Y106879D02*
X207243Y101000D01*
X328000D01*
X178250Y102243D02*
X182886Y106879D01*
X201364D01*
X331000Y98000D02*
X437757D01*
X442757Y103000D01*
X444000Y100000D02*
X474750D01*
X442757Y103000D02*
X474750D01*
X674000Y217000D02*
X679000Y222000D01*
X674000Y157000D02*
Y217000D01*
X645000Y128000D02*
X674000Y157000D01*
X679000Y222000D02*
Y272000D01*
X350000Y187000D02*
Y209000D01*
X352000Y211000D01*
X363000D01*
X365250Y208750D01*
Y201100D02*
Y208750D01*
X181500Y20500D02*
Y27500D01*
X336000Y30000D02*
X343000Y23000D01*
X396000D01*
X162000Y60000D02*
X282000D01*
X651000Y41000D02*
X663500Y53500D01*
X282000Y60000D02*
X301000Y41000D01*
X651000D01*
X319000Y70000D02*
X326000Y63000D01*
X405000D01*
X412000Y70000D01*
X325000Y74000D02*
X332000Y67000D01*
X383000D01*
X386000Y70000D01*
X197000Y66000D02*
X205000Y74000D01*
X325000D01*
X221000Y65000D02*
X226000Y70000D01*
X319000D01*
X242000Y43000D02*
X250000Y35000D01*
X272000D01*
X192500Y37000D02*
X238000D01*
X245000Y30000D01*
X175500Y54000D02*
X192500Y37000D01*
X245000Y30000D02*
X336000D01*
X217500Y52500D02*
X227000Y43000D01*
X242000D01*
X307000Y20000D02*
X310000Y23000D01*
X292000Y20000D02*
X307000D01*
X286000Y26000D02*
X292000Y20000D01*
X237000Y26000D02*
X286000D01*
X230000Y33000D02*
X237000Y26000D01*
X199250Y33000D02*
X230000D01*
X193750Y27500D02*
X199250Y33000D01*
X181500Y20500D02*
X189000Y13000D01*
X325000D01*
X335000Y23000D01*
X163500Y53500D02*
X175000Y42000D01*
Y20000D02*
Y42000D01*
X730000Y17750D02*
X771750D01*
X680250Y14750D02*
X772993D01*
X679000Y19000D02*
X680250Y17750D01*
X771750D02*
X796000Y42000D01*
Y87000D01*
X800750Y91750D01*
X806750D01*
X808000Y93000D01*
X679000Y13500D02*
X680250Y14750D01*
X772993D02*
X799000Y40757D01*
Y85757D01*
X801993Y88750D01*
X806750D02*
X808000Y87500D01*
X801993Y88750D02*
X806750D01*
X680250Y17750D02*
X730000D01*
X528000Y217000D02*
X539000Y228000D01*
X560000Y233000D02*
X566000Y227000D01*
X542000Y224000D02*
X553000D01*
X557000Y228000D01*
X554000Y233000D02*
X560000D01*
X539000Y228000D02*
X549000D01*
X554000Y233000D01*
X635993Y57750D02*
X644243Y66000D01*
X634750Y60750D02*
X643000Y69000D01*
X683000D01*
X644243Y66000D02*
X684243D01*
X698121Y79879D01*
X683000Y69000D02*
X696879Y82879D01*
X629250Y57750D02*
X635993D01*
X628000Y56500D02*
X629250Y57750D01*
X759621Y79879D02*
X771500Y91757D01*
Y97750D01*
X772750Y99000D01*
X629250Y60750D02*
X634750D01*
X628000Y62000D02*
X629250Y60750D01*
X758379Y82879D02*
X768500Y93000D01*
Y97750D01*
X767250Y99000D02*
X768500Y97750D01*
X698121Y79879D02*
X759621D01*
X696879Y82879D02*
X758379D01*
D41*
X525000Y163750D02*
Y171000D01*
D42*
X80000Y19200D02*
X81200Y18000D01*
X80000Y19200D02*
Y167000D01*
X88000Y175000D01*
D44*
X655000Y332000D02*
X671000Y316000D01*
X498000Y332000D02*
X655000D01*
X470000Y360000D02*
X498000Y332000D01*
X671000Y244000D02*
Y316000D01*
Y230000D02*
Y237000D01*
Y244000D01*
X145000Y271000D02*
X173000Y299000D01*
X145000Y253000D02*
Y271000D01*
X173000Y299000D02*
X268000D01*
X329000Y360000D01*
X470000D01*
D46*
X81300Y18000D02*
D03*
X26000Y288000D02*
D03*
X611700Y268900D02*
D03*
Y242700D02*
D03*
X365250Y201100D02*
D03*
X352550Y226500D02*
D03*
X359154Y323782D02*
D03*
X434846Y339022D02*
D03*
X877000Y244400D02*
D03*
Y219000D02*
D03*
Y193600D02*
D03*
D59*
X261000Y373000D02*
D03*
X261750Y315250D02*
D03*
X261750Y321750D02*
D03*
X349500Y28000D02*
D03*
X106000Y273000D02*
D03*
X537000Y204000D02*
D03*
X687000Y209250D02*
D03*
Y203750D02*
D03*
X446000Y94000D02*
D03*
X469000Y108000D02*
D03*
X481750Y149750D02*
D03*
X497000Y172000D02*
D03*
X497000Y143800D02*
D03*
X395000Y146500D02*
D03*
X497000Y138200D02*
D03*
X395000Y140500D02*
D03*
X148000Y8000D02*
D03*
X391000Y135000D02*
D03*
X382000Y170000D02*
D03*
X401000Y168000D02*
D03*
X486000Y137500D02*
D03*
X730750Y135000D02*
D03*
X385500Y53000D02*
D03*
X367500D02*
D03*
X154000Y171000D02*
D03*
X166000Y218000D02*
D03*
X662000Y178000D02*
D03*
X656000Y174000D02*
D03*
X409000Y309000D02*
D03*
X662000Y189000D02*
D03*
X334000Y167000D02*
D03*
X414000Y177000D02*
D03*
X501000Y165000D02*
D03*
X497000Y158800D02*
D03*
Y153200D02*
D03*
X513593Y163535D02*
D03*
X507993D02*
D03*
X262250Y168000D02*
D03*
X267750D02*
D03*
X247000Y157750D02*
D03*
Y152250D02*
D03*
X824000Y267000D02*
D03*
X806000D02*
D03*
Y323000D02*
D03*
X831000Y66000D02*
D03*
X847000Y57000D02*
D03*
X861000Y74000D02*
D03*
X848000Y170000D02*
D03*
X806000Y187000D02*
D03*
X824000Y195000D02*
D03*
X806000Y225000D02*
D03*
X824000D02*
D03*
Y323000D02*
D03*
X806000Y295000D02*
D03*
Y239000D02*
D03*
Y353000D02*
D03*
X732500Y380000D02*
D03*
X777500D02*
D03*
X692500D02*
D03*
X95000Y7500D02*
D03*
X839000Y8000D02*
D03*
X61000D02*
D03*
X170000Y382500D02*
D03*
X305000D02*
D03*
X85000Y390000D02*
D03*
X48000D02*
D03*
X10000Y265000D02*
D03*
Y300000D02*
D03*
Y340000D02*
D03*
Y145000D02*
D03*
Y100000D02*
D03*
Y61000D02*
D03*
X890000Y339000D02*
D03*
Y61000D02*
D03*
Y100000D02*
D03*
Y150000D02*
D03*
Y225000D02*
D03*
Y275000D02*
D03*
Y325000D02*
D03*
X839000Y390000D02*
D03*
X825000D02*
D03*
X795000D02*
D03*
X658500Y134500D02*
D03*
X814000Y90000D02*
D03*
X336000Y72000D02*
D03*
X110000Y97000D02*
D03*
X191000Y73000D02*
D03*
X200000Y93000D02*
D03*
X586500Y135000D02*
D03*
X226500Y109250D02*
D03*
X298500Y109500D02*
D03*
X310000Y93000D02*
D03*
X523500Y135250D02*
D03*
X352500Y107500D02*
D03*
X525000Y163750D02*
D03*
X524500Y148500D02*
D03*
X661000Y348000D02*
D03*
Y340000D02*
D03*
X672000Y366000D02*
D03*
Y376000D02*
D03*
X147000Y171000D02*
D03*
X679000Y306000D02*
D03*
Y283000D02*
D03*
X196000Y284000D02*
D03*
X679000Y272000D02*
D03*
X705000Y140000D02*
D03*
X547500Y27500D02*
D03*
X137000Y167000D02*
D03*
X121000D02*
D03*
X418500Y108750D02*
D03*
X95000Y130000D02*
D03*
X85000D02*
D03*
X412500Y108750D02*
D03*
X27000Y130000D02*
D03*
X58000Y212500D02*
D03*
Y207000D02*
D03*
X220500Y135000D02*
D03*
X214500D02*
D03*
X346500D02*
D03*
X749000Y102000D02*
D03*
X731000D02*
D03*
Y95000D02*
D03*
X712000Y102000D02*
D03*
X581000Y140000D02*
D03*
X571000D02*
D03*
X561000D02*
D03*
X551000D02*
D03*
X105000Y104000D02*
D03*
Y129000D02*
D03*
X135000Y99000D02*
D03*
X272000Y35000D02*
D03*
X476000Y72750D02*
D03*
Y78250D02*
D03*
X514500Y108500D02*
D03*
X717000Y271000D02*
D03*
X747000Y303000D02*
D03*
X762000D02*
D03*
X777000D02*
D03*
X792000D02*
D03*
X833000Y355000D02*
D03*
X671500Y354000D02*
D03*
X833000Y290000D02*
D03*
Y300000D02*
D03*
X308000Y159000D02*
D03*
Y177000D02*
D03*
X563000Y214000D02*
D03*
X585000D02*
D03*
X659000Y149000D02*
D03*
X154000Y218000D02*
D03*
X145000D02*
D03*
X75000Y334000D02*
D03*
Y324000D02*
D03*
X250000Y290000D02*
D03*
X190000Y290000D02*
D03*
X601000Y190000D02*
D03*
X591000D02*
D03*
X581000D02*
D03*
X571000D02*
D03*
X561000D02*
D03*
X551000D02*
D03*
X601000Y180000D02*
D03*
X591000D02*
D03*
X581000D02*
D03*
X571000D02*
D03*
X561000D02*
D03*
X551000D02*
D03*
X611000Y170000D02*
D03*
X601000D02*
D03*
X591000D02*
D03*
X581000D02*
D03*
X571000D02*
D03*
X561000D02*
D03*
X551000D02*
D03*
Y150000D02*
D03*
Y160000D02*
D03*
X561000D02*
D03*
X571000D02*
D03*
X581000D02*
D03*
X591000D02*
D03*
X601000D02*
D03*
X611000D02*
D03*
X561000Y150000D02*
D03*
X571000D02*
D03*
X581000D02*
D03*
X591000D02*
D03*
X601000D02*
D03*
X611000D02*
D03*
X591000Y140000D02*
D03*
X601000D02*
D03*
X611000D02*
D03*
X230000Y308000D02*
D03*
Y318000D02*
D03*
X220000D02*
D03*
Y308000D02*
D03*
X210000D02*
D03*
Y318000D02*
D03*
Y328000D02*
D03*
X220000D02*
D03*
X230000D02*
D03*
Y340000D02*
D03*
X220000D02*
D03*
X210000D02*
D03*
X718000Y171000D02*
D03*
X728000D02*
D03*
X741000D02*
D03*
X749000D02*
D03*
X763000D02*
D03*
X771000D02*
D03*
X778500Y201000D02*
D03*
X785000Y104000D02*
D03*
X731000Y74000D02*
D03*
X727000Y10000D02*
D03*
X743000Y10000D02*
D03*
X759000D02*
D03*
X775000Y10000D02*
D03*
X711000D02*
D03*
X754500Y135000D02*
D03*
X712500D02*
D03*
X676500Y108500D02*
D03*
X658500D02*
D03*
X562500D02*
D03*
X442500Y135000D02*
D03*
X424500Y109000D02*
D03*
X370500D02*
D03*
X334500Y135000D02*
D03*
X316500D02*
D03*
X244500D02*
D03*
X208500D02*
D03*
X190500D02*
D03*
X172500D02*
D03*
X154500D02*
D03*
X751500Y52500D02*
D03*
X727500D02*
D03*
X709500D02*
D03*
X655500D02*
D03*
X637500D02*
D03*
X619500D02*
D03*
X601500Y52000D02*
D03*
X583500Y52500D02*
D03*
X565500D02*
D03*
X529500D02*
D03*
X511500D02*
D03*
X493500D02*
D03*
X475500D02*
D03*
X457500D02*
D03*
X439500D02*
D03*
X403500D02*
D03*
X331500D02*
D03*
X313500D02*
D03*
X133500D02*
D03*
X169500Y27500D02*
D03*
X151500D02*
D03*
X660000Y209000D02*
D03*
X752000Y74000D02*
D03*
X776000Y52500D02*
D03*
X804000Y37000D02*
D03*
X676000Y26000D02*
D03*
X716000Y313000D02*
D03*
X694000Y220000D02*
D03*
X707000Y334000D02*
D03*
X703000Y248000D02*
D03*
X815000Y129000D02*
D03*
X845000D02*
D03*
X862000Y84000D02*
D03*
X843000Y78000D02*
D03*
X823000D02*
D03*
X274000Y48000D02*
D03*
X277889Y51889D02*
D03*
X704000Y62250D02*
D03*
X783000D02*
D03*
X704000Y56750D02*
D03*
X783000D02*
D03*
X855000Y128000D02*
D03*
X861000Y289000D02*
D03*
X841000Y252000D02*
D03*
X861000D02*
D03*
X814000Y44000D02*
D03*
X654000Y18750D02*
D03*
Y24250D02*
D03*
X163500Y53500D02*
D03*
X157500Y55500D02*
D03*
X175500Y54000D02*
D03*
X695000Y334000D02*
D03*
X501000Y148500D02*
D03*
X251000Y147000D02*
D03*
X278000Y160000D02*
D03*
X149000Y199000D02*
D03*
Y185000D02*
D03*
X88000Y202000D02*
D03*
Y175000D02*
D03*
X38000Y147000D02*
D03*
X57000Y226000D02*
D03*
X63000D02*
D03*
X45000Y159000D02*
D03*
Y153000D02*
D03*
X835000Y261000D02*
D03*
X828000Y239000D02*
D03*
X364750Y109000D02*
D03*
X612000Y190000D02*
D03*
X611000Y180000D02*
D03*
X366000Y103000D02*
D03*
X704000Y69000D02*
D03*
X779000Y99000D02*
D03*
X674000Y92000D02*
D03*
X657000Y101000D02*
D03*
X685000Y197000D02*
D03*
X692000Y214000D02*
D03*
X676000Y8000D02*
D03*
X257000Y164000D02*
D03*
X274000Y167000D02*
D03*
X242000Y148000D02*
D03*
X64000Y217000D02*
D03*
X142000Y90000D02*
D03*
X127000Y92000D02*
D03*
X783000Y69000D02*
D03*
Y50000D02*
D03*
X804000Y82000D02*
D03*
X740000Y190000D02*
D03*
X17000Y95000D02*
D03*
X27000Y112000D02*
D03*
X671000Y230000D02*
D03*
Y237000D02*
D03*
Y244000D02*
D03*
X57000Y102000D02*
D03*
X148005Y91995D02*
D03*
X144116Y95884D02*
D03*
X501000Y83750D02*
D03*
Y89250D02*
D03*
X122750Y97000D02*
D03*
X117250D02*
D03*
X476000Y98750D02*
D03*
Y104250D02*
D03*
X478500Y135000D02*
D03*
X501000Y192000D02*
D03*
X507000Y204000D02*
D03*
X406500Y134500D02*
D03*
X449000Y173000D02*
D03*
X460000Y135000D02*
D03*
X547500Y108500D02*
D03*
X494000Y109000D02*
D03*
X492000Y93000D02*
D03*
X182500Y97000D02*
D03*
X177000D02*
D03*
X470000Y95000D02*
D03*
X482000Y108000D02*
D03*
X405000D02*
D03*
X388500Y109000D02*
D03*
X622500Y109750D02*
D03*
X636000Y107000D02*
D03*
X614000Y95000D02*
D03*
X465000Y172000D02*
D03*
X663500Y53500D02*
D03*
X589700Y22440D02*
D03*
X462700Y71740D02*
D03*
X528000Y72000D02*
D03*
X193750Y27500D02*
D03*
X310000Y23000D02*
D03*
X181500Y27500D02*
D03*
X217500Y52500D02*
D03*
X615000Y15000D02*
D03*
X335000Y23000D02*
D03*
X421500Y27500D02*
D03*
X221000Y65000D02*
D03*
X285000D02*
D03*
X412000Y70000D02*
D03*
X386000D02*
D03*
X197000Y66000D02*
D03*
X627000Y12000D02*
D03*
X679000Y19000D02*
D03*
X808000Y93000D02*
D03*
X679000Y13500D02*
D03*
X808000Y87500D02*
D03*
X832000Y43000D02*
D03*
X557000Y228000D02*
D03*
X628000Y56500D02*
D03*
X772750Y99000D02*
D03*
X628000Y62000D02*
D03*
X767250Y99000D02*
D03*
X293000Y377000D02*
D03*
X290000Y360000D02*
D03*
X308000D02*
D03*
X178250Y354250D02*
D03*
X178250Y321750D02*
D03*
X178250Y315250D02*
D03*
X146500Y376500D02*
D03*
X155000Y362000D02*
D03*
X243000Y284000D02*
D03*
X196000Y225000D02*
D03*
Y245000D02*
D03*
X258500Y246500D02*
D03*
Y223500D02*
D03*
X262000Y275000D02*
D03*
X267000Y190000D02*
D03*
X259000Y195000D02*
D03*
X244000Y221000D02*
D03*
X226000D02*
D03*
X310000Y278000D02*
D03*
X60000Y272000D02*
D03*
X185000Y197000D02*
D03*
X145000Y248000D02*
D03*
X130000D02*
D03*
X160000D02*
D03*
X135000Y218000D02*
D03*
X122000D02*
D03*
X116000Y261000D02*
D03*
X127000Y269000D02*
D03*
X174000Y267000D02*
D03*
M02*
