G04 Layer_Physical_Order=4*
G04 Layer_Color=128*
%FSLAX44Y44*%
%MOMM*%
G71*
G01*
G75*
%ADD55C,1.4000*%
%ADD60C,1.0000*%
%ADD61C,2.0000*%
%ADD62C,1.5000*%
%ADD63C,1.7000*%
%ADD64C,2.9000*%
%ADD65C,3.7000*%
G04:AMPARAMS|DCode=66|XSize=2.6mm|YSize=2.6mm|CornerRadius=0mm|HoleSize=0mm|Usage=FLASHONLY|Rotation=0.000|XOffset=0mm|YOffset=0mm|HoleType=Round|Shape=Relief|Width=0.3mm|Gap=0.3mm|Entries=4|*
%AMTHD66*
7,0,0,2.6000,2.0000,0.3000,45*
%
%ADD66THD66*%
%ADD67O,1.7000X0.9000*%
%ADD68C,1.2500*%
%ADD69C,1.2000*%
%ADD70O,1.1000X1.9000*%
%ADD71C,2.4000*%
%ADD72C,0.6000*%
G36*
X57000Y228000D02*
X40000D01*
Y198000D01*
X57000D01*
Y194000D01*
Y170000D01*
X25000D01*
Y148000D01*
X5000D01*
Y260000D01*
X57000D01*
Y228000D01*
D02*
G37*
D55*
X272500Y367000D02*
D03*
X192500D02*
D03*
X81300Y18000D02*
D03*
X106700D02*
D03*
X26000Y313000D02*
D03*
X541700Y268900D02*
D03*
X566700D02*
D03*
X586700D02*
D03*
X541700Y242700D02*
D03*
X566700D02*
D03*
X586700D02*
D03*
X365250Y201100D02*
D03*
X390650D02*
D03*
X416050D02*
D03*
X352550Y226500D02*
D03*
X377950D02*
D03*
X403350D02*
D03*
X428750Y226500D02*
D03*
X441450Y201100D02*
D03*
X333754Y339022D02*
D03*
X359154Y323782D02*
D03*
X434846Y339022D02*
D03*
X460246Y323782D02*
D03*
X877000Y269800D02*
D03*
Y244400D02*
D03*
Y219000D02*
D03*
D60*
X0Y-0D02*
X900000D01*
Y400000D01*
X0D02*
X900000D01*
X0Y-0D02*
Y400000D01*
D61*
X116000Y81000D02*
D03*
X475740Y259520D02*
D03*
X318260D02*
D03*
D62*
X784000Y81000D02*
D03*
D63*
X797000Y346500D02*
D03*
X707000D02*
D03*
D64*
X511000Y296000D02*
D03*
Y239200D02*
D03*
X642400D02*
D03*
Y296000D02*
D03*
D65*
X454150Y290000D02*
D03*
X339850D02*
D03*
D66*
X26000Y288000D02*
D03*
X611700Y268900D02*
D03*
Y242700D02*
D03*
X877000Y193600D02*
D03*
D67*
X20000Y248000D02*
D03*
Y178000D02*
D03*
D68*
X47000Y238000D02*
D03*
Y188000D02*
D03*
D69*
X71000Y372000D02*
D03*
X91000D02*
D03*
X111000D02*
D03*
D70*
X132000D02*
D03*
X50000D02*
D03*
D71*
X25000Y25000D02*
D03*
Y375000D02*
D03*
X875000D02*
D03*
Y25000D02*
D03*
D72*
X537000Y204000D02*
D03*
X687000Y209250D02*
D03*
Y203750D02*
D03*
X497000Y143800D02*
D03*
X395000Y146500D02*
D03*
X497000Y138200D02*
D03*
X395000Y140500D02*
D03*
X486000Y137500D02*
D03*
X643000Y138000D02*
D03*
X636000Y190000D02*
D03*
X640000Y181000D02*
D03*
X638000Y170000D02*
D03*
X637000Y164000D02*
D03*
X636000Y139000D02*
D03*
X662000Y178000D02*
D03*
X656000Y174000D02*
D03*
X409000Y309000D02*
D03*
X459000Y195000D02*
D03*
X497000Y158800D02*
D03*
Y153200D02*
D03*
X513593Y163535D02*
D03*
X507993D02*
D03*
X262250Y168000D02*
D03*
X267750D02*
D03*
X379000Y108000D02*
D03*
X247000Y157750D02*
D03*
Y152250D02*
D03*
X395000Y348000D02*
D03*
X701000Y312000D02*
D03*
X644000Y366000D02*
D03*
X730000Y258000D02*
D03*
X697250Y103000D02*
D03*
X691750D02*
D03*
X602000Y213500D02*
D03*
X723000Y265000D02*
D03*
X170000Y174000D02*
D03*
X190000D02*
D03*
X200000Y93000D02*
D03*
X722000Y304000D02*
D03*
X729000D02*
D03*
X310000Y93000D02*
D03*
X523500Y135250D02*
D03*
X525000Y163750D02*
D03*
X524500Y148500D02*
D03*
X620000Y377000D02*
D03*
X585000D02*
D03*
X555000D02*
D03*
X530000D02*
D03*
X503000Y347000D02*
D03*
Y360000D02*
D03*
X536000Y320000D02*
D03*
X555000Y318000D02*
D03*
X585000D02*
D03*
X620000D02*
D03*
X644000Y344000D02*
D03*
Y356000D02*
D03*
Y377000D02*
D03*
X504000Y375000D02*
D03*
X143000Y75000D02*
D03*
X168000Y18000D02*
D03*
X135000Y65000D02*
D03*
X679000Y272000D02*
D03*
X723000Y180000D02*
D03*
X733000D02*
D03*
X705000Y140000D02*
D03*
X418500Y108750D02*
D03*
X95000Y130000D02*
D03*
X85000D02*
D03*
X358500Y135000D02*
D03*
X412500Y108750D02*
D03*
X75000Y130000D02*
D03*
X65000D02*
D03*
X125000Y58000D02*
D03*
X225000Y157000D02*
D03*
X58000Y212500D02*
D03*
Y207000D02*
D03*
X220500Y135000D02*
D03*
X214500D02*
D03*
X346500D02*
D03*
X749000Y102000D02*
D03*
X731000D02*
D03*
Y95000D02*
D03*
X712000Y102000D02*
D03*
X90000Y67000D02*
D03*
X162000Y75000D02*
D03*
X272000Y35000D02*
D03*
X235500Y52500D02*
D03*
X376000Y18000D02*
D03*
X229500Y52500D02*
D03*
X476000Y72750D02*
D03*
Y78250D02*
D03*
X555000Y108500D02*
D03*
X585000Y108000D02*
D03*
X205000Y150000D02*
D03*
X208000Y143000D02*
D03*
X807000Y11000D02*
D03*
X172000Y338000D02*
D03*
X563000Y214000D02*
D03*
X585000D02*
D03*
X593000D02*
D03*
X637000Y149000D02*
D03*
X145000Y140000D02*
D03*
X298000Y220000D02*
D03*
X306000Y188000D02*
D03*
X296000D02*
D03*
X160000Y338000D02*
D03*
X95000Y291000D02*
D03*
X88000D02*
D03*
X81000D02*
D03*
X104000Y336000D02*
D03*
Y328000D02*
D03*
Y320000D02*
D03*
X40000Y330000D02*
D03*
X52000Y342000D02*
D03*
X65000Y355000D02*
D03*
X166000Y338000D02*
D03*
X178000D02*
D03*
X104000Y312000D02*
D03*
X799000Y27000D02*
D03*
X807000D02*
D03*
X799000Y11000D02*
D03*
X743000Y99000D02*
D03*
X748000Y139000D02*
D03*
X742000D02*
D03*
X716000Y26000D02*
D03*
X721000D02*
D03*
X768000D02*
D03*
X745000D02*
D03*
X762000D02*
D03*
X751000D02*
D03*
X735000D02*
D03*
X167000Y11000D02*
D03*
X194000Y18000D02*
D03*
X685500Y52500D02*
D03*
X737000Y303000D02*
D03*
X707000D02*
D03*
X694000Y264000D02*
D03*
Y230000D02*
D03*
X712000Y265000D02*
D03*
X868000Y100000D02*
D03*
X790000Y95000D02*
D03*
X643000Y97500D02*
D03*
Y103000D02*
D03*
X671000Y101000D02*
D03*
X665500D02*
D03*
X679500Y96000D02*
D03*
X685000D02*
D03*
X274000Y48000D02*
D03*
X277889Y51889D02*
D03*
X704000Y62250D02*
D03*
X783000D02*
D03*
X704000Y56750D02*
D03*
X783000D02*
D03*
X829000Y19000D02*
D03*
X823000D02*
D03*
X817000D02*
D03*
X823000Y26000D02*
D03*
X131000Y140000D02*
D03*
X121000D02*
D03*
X654000Y18750D02*
D03*
Y24250D02*
D03*
X163500Y53500D02*
D03*
X157500Y55500D02*
D03*
X175500Y54000D02*
D03*
X279000Y172000D02*
D03*
X88000Y175000D02*
D03*
X13000Y160000D02*
D03*
Y152000D02*
D03*
X20000Y203000D02*
D03*
X364750Y109000D02*
D03*
X740000Y190000D02*
D03*
X63000Y199000D02*
D03*
X43000Y121000D02*
D03*
X75000Y70000D02*
D03*
X28000D02*
D03*
X45000Y95000D02*
D03*
X316000Y142000D02*
D03*
X798000Y317000D02*
D03*
X685000Y345000D02*
D03*
X671000Y230000D02*
D03*
Y237000D02*
D03*
Y244000D02*
D03*
X59000Y82000D02*
D03*
X148005Y91995D02*
D03*
X144116Y95884D02*
D03*
X501000Y83750D02*
D03*
Y89250D02*
D03*
X122750Y97000D02*
D03*
X117250D02*
D03*
X476000Y98750D02*
D03*
Y104250D02*
D03*
X517000Y198000D02*
D03*
X522000Y108000D02*
D03*
X502000D02*
D03*
X182500Y97000D02*
D03*
X177000D02*
D03*
X375000Y136000D02*
D03*
X629000Y107000D02*
D03*
X20000Y223000D02*
D03*
X663500Y53500D02*
D03*
X437000Y24000D02*
D03*
X463000D02*
D03*
X488000Y64000D02*
D03*
X501000Y67000D02*
D03*
X488000Y25000D02*
D03*
X234000Y21000D02*
D03*
X209000Y65000D02*
D03*
X349000Y18000D02*
D03*
X193750Y27500D02*
D03*
X310000Y23000D02*
D03*
X181500Y27500D02*
D03*
X539000Y21000D02*
D03*
X564000D02*
D03*
X337500Y52500D02*
D03*
X319500D02*
D03*
X373500Y53000D02*
D03*
X513000Y20000D02*
D03*
X217500Y52500D02*
D03*
X615000Y15000D02*
D03*
X335000Y23000D02*
D03*
X325500Y52500D02*
D03*
X355500D02*
D03*
X412000Y23000D02*
D03*
X425000Y20000D02*
D03*
X415500Y52500D02*
D03*
X221000Y65000D02*
D03*
X234000D02*
D03*
X260000D02*
D03*
X310000D02*
D03*
X412000Y70000D02*
D03*
X386000D02*
D03*
X197000Y66000D02*
D03*
X275000Y21000D02*
D03*
X627000Y12000D02*
D03*
X307500Y52500D02*
D03*
X679500D02*
D03*
X691500D02*
D03*
X707000Y93000D02*
D03*
X679000Y19000D02*
D03*
X808000Y93000D02*
D03*
X679000Y13500D02*
D03*
X808000Y87500D02*
D03*
X691000Y26000D02*
D03*
X557000Y228000D02*
D03*
X628000Y56500D02*
D03*
X772750Y99000D02*
D03*
X628000Y62000D02*
D03*
X767250Y99000D02*
D03*
X772000Y75000D02*
D03*
X702000Y26000D02*
D03*
X708000D02*
D03*
X298000Y346000D02*
D03*
X224000Y285000D02*
D03*
X211500Y221500D02*
D03*
X206500Y215500D02*
D03*
X233500Y246500D02*
D03*
X60000Y297000D02*
D03*
X235000Y210000D02*
D03*
X145000Y248000D02*
D03*
X130000D02*
D03*
X160000D02*
D03*
X288000Y346000D02*
D03*
X74000Y291000D02*
D03*
X288000Y220000D02*
D03*
X306000Y198000D02*
D03*
M02*
