G04 Layer_Color=32896*
%FSLAX44Y44*%
%MOMM*%
G71*
G01*
G75*
%ADD39C,0.1500*%
%ADD40C,0.3000*%
%ADD42C,0.2000*%
%ADD73C,0.2500*%
%ADD95C,0.1800*%
D39*
X324000Y149000D02*
X328000Y145000D01*
X312000Y149000D02*
X324000D01*
X308000Y153000D02*
X312000Y149000D01*
X712000Y239000D02*
X718000Y233000D01*
X703000Y239000D02*
X712000D01*
X700000Y242000D02*
X703000Y239000D01*
X202000Y216003D02*
Y249000D01*
X205000Y252000D01*
Y269000D01*
X208000Y272000D01*
X176000Y268000D02*
X180000Y272000D01*
X176000Y216000D02*
Y268000D01*
X259000Y272000D02*
X262000Y269000D01*
Y269000D02*
Y269000D01*
X305000Y194000D02*
X308000D01*
X312000Y190000D01*
Y181000D02*
Y190000D01*
Y181000D02*
X314000Y179000D01*
X330000D01*
X780000Y71000D02*
X813000D01*
X776000Y67000D02*
X780000Y71000D01*
X752000Y67000D02*
X776000D01*
X123000Y281000D02*
X130000D01*
X123000Y268000D02*
Y299000D01*
X112000Y328000D02*
X167000D01*
X369000Y105000D02*
X373000D01*
X363000Y111000D02*
X369000Y105000D01*
X363000Y111000D02*
Y135000D01*
X420000Y105000D02*
Y119000D01*
X402000Y137000D02*
X420000Y119000D01*
X402000Y137000D02*
Y141000D01*
X846000Y3000D02*
X850000Y7000D01*
X809000Y3000D02*
X846000D01*
X807000D02*
X809000D01*
X799000Y11000D02*
X807000Y3000D01*
X850000Y95000D02*
X855000Y100000D01*
X850000Y85000D02*
Y95000D01*
X842997Y77997D02*
X850000Y85000D01*
X842997Y54991D02*
Y77997D01*
Y54991D02*
X843009D01*
X846500Y51500D01*
Y51500D02*
Y51500D01*
X776000Y63000D02*
X819000D01*
X826000Y70000D01*
X842997D01*
X475517Y107942D02*
Y109827D01*
X477402Y111713D01*
X479287Y111713D01*
X483058Y107942D01*
Y106058D01*
X481172Y104172D01*
X479287Y104172D01*
X478345Y101345D02*
X476460Y99460D01*
X477402Y100402D01*
X471747Y106058D01*
X473632Y106058D01*
X464207Y98517D02*
X467035Y99460D01*
X470805D01*
X472690Y97575D01*
Y95690D01*
X470805Y93805D01*
X468920Y93805D01*
X467977Y94747D01*
Y96632D01*
X470805Y99460D01*
X364664Y144332D02*
X365997Y142999D01*
Y140333D01*
X364664Y139000D01*
X359333D01*
X358000Y140333D01*
Y142999D01*
X359333Y144332D01*
X358000Y146997D02*
Y149663D01*
Y148330D01*
X365997D01*
X364664Y146997D01*
X358000Y157661D02*
X365997D01*
X361999Y153662D01*
Y158994D01*
X157668Y392664D02*
X159001Y393997D01*
X161667D01*
X163000Y392664D01*
Y391332D01*
X161667Y389999D01*
X159001D01*
X157668Y388666D01*
Y387333D01*
X159001Y386000D01*
X161667D01*
X163000Y387333D01*
X155003Y393997D02*
Y386000D01*
X152337Y388666D01*
X149671Y386000D01*
Y393997D01*
X147005Y386000D02*
X144339D01*
X145672D01*
Y393997D01*
X147005Y392664D01*
X247668Y217665D02*
X249001Y218997D01*
X251667D01*
X253000Y217665D01*
Y212333D01*
X251667Y211000D01*
X249001D01*
X247668Y212333D01*
X245003Y211000D02*
X242337D01*
X243670D01*
Y218997D01*
X245003Y217665D01*
X238338D02*
X237005Y218997D01*
X234339D01*
X233006Y217665D01*
Y212333D01*
X234339Y211000D01*
X237005D01*
X238338Y212333D01*
Y217665D01*
X225009Y218997D02*
X230341D01*
Y214999D01*
X227675Y216332D01*
X226342D01*
X225009Y214999D01*
Y212333D01*
X226342Y211000D01*
X229008D01*
X230341Y212333D01*
X866665Y78332D02*
X867997Y76999D01*
Y74333D01*
X866665Y73000D01*
X861333D01*
X860000Y74333D01*
Y76999D01*
X861333Y78332D01*
X860000Y80997D02*
Y83663D01*
Y82330D01*
X867997D01*
X866665Y80997D01*
Y87662D02*
X867997Y88995D01*
Y91661D01*
X866665Y92994D01*
X861333D01*
X860000Y91661D01*
Y88995D01*
X861333Y87662D01*
X866665D01*
Y95659D02*
X867997Y96992D01*
Y99658D01*
X866665Y100991D01*
X865332D01*
X863999Y99658D01*
Y98325D01*
Y99658D01*
X862666Y100991D01*
X861333D01*
X860000Y99658D01*
Y96992D01*
X861333Y95659D01*
X269000Y100997D02*
X263668Y93000D01*
Y100997D02*
X269000Y93000D01*
X255671Y99664D02*
X257004Y100997D01*
X259670D01*
X261003Y99664D01*
Y98332D01*
X259670Y96999D01*
X257004D01*
X255671Y95666D01*
Y94333D01*
X257004Y93000D01*
X259670D01*
X261003Y94333D01*
X253005Y93000D02*
X250339D01*
X251672D01*
Y100997D01*
X253005Y99664D01*
X246341D02*
X245008Y100997D01*
X242342D01*
X241009Y99664D01*
Y94333D01*
X242342Y93000D01*
X245008D01*
X246341Y94333D01*
Y99664D01*
X207335Y225668D02*
X206003Y227001D01*
Y229667D01*
X207335Y231000D01*
X212667D01*
X214000Y229667D01*
Y227001D01*
X212667Y225668D01*
Y223003D02*
X214000Y221670D01*
Y219004D01*
X212667Y217671D01*
X207335D01*
X206003Y219004D01*
Y221670D01*
X207335Y223003D01*
X208668D01*
X210001Y221670D01*
Y217671D01*
X214000Y211006D02*
X206003D01*
X210001Y215005D01*
Y209674D01*
X496000Y216000D02*
X488003D01*
Y212001D01*
X489336Y210668D01*
X492001D01*
X493334Y212001D01*
Y216000D01*
Y213334D02*
X496000Y210668D01*
Y202671D02*
Y208003D01*
X490668Y202671D01*
X489336D01*
X488003Y204004D01*
Y206670D01*
X489336Y208003D01*
X488003Y194674D02*
X489336Y197339D01*
X492001Y200005D01*
X494667D01*
X496000Y198672D01*
Y196006D01*
X494667Y194674D01*
X493334D01*
X492001Y196006D01*
Y200005D01*
X588000Y221997D02*
Y214000D01*
X584001D01*
X582668Y215333D01*
Y220665D01*
X584001Y221997D01*
X588000D01*
X580003D02*
Y214000D01*
X576004D01*
X574671Y215333D01*
Y220665D01*
X576004Y221997D01*
X580003D01*
X566674D02*
X569339Y220665D01*
X572005Y217999D01*
Y215333D01*
X570672Y214000D01*
X568006D01*
X566674Y215333D01*
Y216666D01*
X568006Y217999D01*
X572005D01*
X860000Y213997D02*
X854668Y206000D01*
Y213997D02*
X860000Y206000D01*
X846671Y212665D02*
X848004Y213997D01*
X850670D01*
X852003Y212665D01*
Y211332D01*
X850670Y209999D01*
X848004D01*
X846671Y208666D01*
Y207333D01*
X848004Y206000D01*
X850670D01*
X852003Y207333D01*
X844005D02*
X842672Y206000D01*
X840006D01*
X838674Y207333D01*
Y212665D01*
X840006Y213997D01*
X842672D01*
X844005Y212665D01*
Y211332D01*
X842672Y209999D01*
X838674D01*
X100000Y222997D02*
Y217666D01*
X97334Y215000D01*
X94668Y217666D01*
Y222997D01*
X92003D02*
Y215000D01*
X88004D01*
X86671Y216333D01*
Y221665D01*
X88004Y222997D01*
X92003D01*
X80006Y215000D02*
Y222997D01*
X84005Y218999D01*
X78674D01*
X386000Y129000D02*
X393997D01*
Y132999D01*
X392664Y134332D01*
X389999D01*
X388666Y132999D01*
Y129000D01*
Y131666D02*
X386000Y134332D01*
Y142329D02*
Y136997D01*
X391332Y142329D01*
X392664D01*
X393997Y140996D01*
Y138330D01*
X392664Y136997D01*
X386000Y148994D02*
X393997D01*
X389999Y144995D01*
Y150326D01*
X399000Y145000D02*
X406997D01*
Y148999D01*
X405664Y150332D01*
X402999D01*
X401666Y148999D01*
Y145000D01*
Y147666D02*
X399000Y150332D01*
Y158329D02*
Y152997D01*
X404332Y158329D01*
X405664D01*
X406997Y156996D01*
Y154330D01*
X405664Y152997D01*
Y160995D02*
X406997Y162328D01*
Y164993D01*
X405664Y166326D01*
X404332D01*
X402999Y164993D01*
Y163661D01*
Y164993D01*
X401666Y166326D01*
X400333D01*
X399000Y164993D01*
Y162328D01*
X400333Y160995D01*
X824668Y263664D02*
X826001Y264997D01*
X828667D01*
X830000Y263664D01*
Y258333D01*
X828667Y257000D01*
X826001D01*
X824668Y258333D01*
X816671Y264997D02*
X822003D01*
Y260999D01*
X819337Y262332D01*
X818004D01*
X816671Y260999D01*
Y258333D01*
X818004Y257000D01*
X820670D01*
X822003Y258333D01*
X808673Y264997D02*
X811339Y263664D01*
X814005Y260999D01*
Y258333D01*
X812672Y257000D01*
X810006D01*
X808673Y258333D01*
Y259666D01*
X810006Y260999D01*
X814005D01*
X861668Y305665D02*
X863001Y306997D01*
X865667D01*
X867000Y305665D01*
Y300333D01*
X865667Y299000D01*
X863001D01*
X861668Y300333D01*
X853671Y306997D02*
X859003D01*
Y302999D01*
X856337Y304332D01*
X855004D01*
X853671Y302999D01*
Y300333D01*
X855004Y299000D01*
X857670D01*
X859003Y300333D01*
X845674Y306997D02*
X851005D01*
Y302999D01*
X848339Y304332D01*
X847006D01*
X845674Y302999D01*
Y300333D01*
X847006Y299000D01*
X849672D01*
X851005Y300333D01*
X92668Y174664D02*
X94001Y175997D01*
X96667D01*
X98000Y174664D01*
Y169333D01*
X96667Y168000D01*
X94001D01*
X92668Y169333D01*
X86004Y168000D02*
Y175997D01*
X90003Y171999D01*
X84671D01*
X82005Y174664D02*
X80672Y175997D01*
X78006D01*
X76674Y174664D01*
Y173332D01*
X78006Y171999D01*
X76674Y170666D01*
Y169333D01*
X78006Y168000D01*
X80672D01*
X82005Y169333D01*
Y170666D01*
X80672Y171999D01*
X82005Y173332D01*
Y174664D01*
X80672Y171999D02*
X78006D01*
X168664Y182332D02*
X169997Y180999D01*
Y178333D01*
X168664Y177000D01*
X163333D01*
X162000Y178333D01*
Y180999D01*
X163333Y182332D01*
X162000Y188996D02*
X169997D01*
X165999Y184997D01*
Y190329D01*
X169997Y192995D02*
Y198326D01*
X168664D01*
X163333Y192995D01*
X162000D01*
X28000Y165997D02*
X22668Y158000D01*
Y165997D02*
X28000Y158000D01*
X14671Y164664D02*
X16004Y165997D01*
X18670D01*
X20003Y164664D01*
Y163332D01*
X18670Y161999D01*
X16004D01*
X14671Y160666D01*
Y159333D01*
X16004Y158000D01*
X18670D01*
X20003Y159333D01*
X12005Y164664D02*
X10672Y165997D01*
X8006D01*
X6673Y164664D01*
Y163332D01*
X8006Y161999D01*
X6673Y160666D01*
Y159333D01*
X8006Y158000D01*
X10672D01*
X12005Y159333D01*
Y160666D01*
X10672Y161999D01*
X12005Y163332D01*
Y164664D01*
X10672Y161999D02*
X8006D01*
X274000Y114997D02*
Y109666D01*
X271334Y107000D01*
X268668Y109666D01*
Y114997D01*
X266003D02*
X260671D01*
X263337D01*
Y107000D01*
X258005Y113665D02*
X256672Y114997D01*
X254007D01*
X252674Y113665D01*
Y112332D01*
X254007Y110999D01*
X255339D01*
X254007D01*
X252674Y109666D01*
Y108333D01*
X254007Y107000D01*
X256672D01*
X258005Y108333D01*
X353000Y155000D02*
Y162997D01*
X349001D01*
X347668Y161665D01*
Y158999D01*
X349001Y157666D01*
X353000D01*
X350334D02*
X347668Y155000D01*
X345003D02*
X342337D01*
X343670D01*
Y162997D01*
X345003Y161665D01*
X338338Y156333D02*
X337005Y155000D01*
X334339D01*
X333006Y156333D01*
Y161665D01*
X334339Y162997D01*
X337005D01*
X338338Y161665D01*
Y160332D01*
X337005Y158999D01*
X333006D01*
X332000Y130000D02*
Y137997D01*
X328001D01*
X326668Y136664D01*
Y133999D01*
X328001Y132666D01*
X332000D01*
X329334D02*
X326668Y130000D01*
X324003D02*
X321337D01*
X322670D01*
Y137997D01*
X324003Y136664D01*
X317338D02*
X316005Y137997D01*
X313339D01*
X312006Y136664D01*
Y135332D01*
X313339Y133999D01*
X312006Y132666D01*
Y131333D01*
X313339Y130000D01*
X316005D01*
X317338Y131333D01*
Y132666D01*
X316005Y133999D01*
X317338Y135332D01*
Y136664D01*
X316005Y133999D02*
X313339D01*
X846000Y10000D02*
X853997D01*
Y13999D01*
X852664Y15332D01*
X849999D01*
X848666Y13999D01*
Y10000D01*
Y12666D02*
X846000Y15332D01*
Y17997D02*
Y20663D01*
Y19330D01*
X853997D01*
X852664Y17997D01*
X853997Y24662D02*
Y29994D01*
X852664D01*
X847333Y24662D01*
X846000D01*
X179000Y217000D02*
X186997D01*
Y220999D01*
X185665Y222332D01*
X182999D01*
X181666Y220999D01*
Y217000D01*
Y219666D02*
X179000Y222332D01*
Y224997D02*
Y227663D01*
Y226330D01*
X186997D01*
X185665Y224997D01*
X179000Y235661D02*
X186997D01*
X182999Y231662D01*
Y236994D01*
X285000Y260000D02*
Y267997D01*
X281001D01*
X279668Y266665D01*
Y263999D01*
X281001Y262666D01*
X285000D01*
X282334D02*
X279668Y260000D01*
X277003D02*
X274337D01*
X275670D01*
Y267997D01*
X277003Y266665D01*
X270338D02*
X269005Y267997D01*
X266339D01*
X265006Y266665D01*
Y265332D01*
X266339Y263999D01*
X267672D01*
X266339D01*
X265006Y262666D01*
Y261333D01*
X266339Y260000D01*
X269005D01*
X270338Y261333D01*
X206000Y178000D02*
Y185997D01*
X202001D01*
X200668Y184664D01*
Y181999D01*
X202001Y180666D01*
X206000D01*
X203334D02*
X200668Y178000D01*
X198003D02*
X195337D01*
X196670D01*
Y185997D01*
X198003Y184664D01*
X186006Y178000D02*
X191338D01*
X186006Y183332D01*
Y184664D01*
X187339Y185997D01*
X190005D01*
X191338Y184664D01*
X198000Y241000D02*
Y248997D01*
X194001D01*
X192668Y247665D01*
Y244999D01*
X194001Y243666D01*
X198000D01*
X195334D02*
X192668Y241000D01*
X190003D02*
X187337D01*
X188670D01*
Y248997D01*
X190003Y247665D01*
X183338Y241000D02*
X180672D01*
X182005D01*
Y248997D01*
X183338Y247665D01*
X282000Y248000D02*
Y255997D01*
X278001D01*
X276668Y254664D01*
Y251999D01*
X278001Y250666D01*
X282000D01*
X279334D02*
X276668Y248000D01*
X274003D02*
X271337D01*
X272670D01*
Y255997D01*
X274003Y254664D01*
X267338D02*
X266005Y255997D01*
X263339D01*
X262006Y254664D01*
Y249333D01*
X263339Y248000D01*
X266005D01*
X267338Y249333D01*
Y254664D01*
X199000Y231000D02*
X191003D01*
Y227001D01*
X192335Y225668D01*
X195001D01*
X196334Y227001D01*
Y231000D01*
Y228334D02*
X199000Y225668D01*
X197667Y223003D02*
X199000Y221670D01*
Y219004D01*
X197667Y217671D01*
X192335D01*
X191003Y219004D01*
Y221670D01*
X192335Y223003D01*
X193668D01*
X195001Y221670D01*
Y217671D01*
X214000Y249000D02*
X206003D01*
Y245001D01*
X207335Y243668D01*
X210001D01*
X211334Y245001D01*
Y249000D01*
Y246334D02*
X214000Y243668D01*
X207335Y241003D02*
X206003Y239670D01*
Y237004D01*
X207335Y235671D01*
X208668D01*
X210001Y237004D01*
X211334Y235671D01*
X212667D01*
X214000Y237004D01*
Y239670D01*
X212667Y241003D01*
X211334D01*
X210001Y239670D01*
X208668Y241003D01*
X207335D01*
X210001Y239670D02*
Y237004D01*
X220000Y383000D02*
Y390997D01*
X216001D01*
X214668Y389664D01*
Y386999D01*
X216001Y385666D01*
X220000D01*
X217334D02*
X214668Y383000D01*
X212003Y390997D02*
X206671D01*
Y389664D01*
X212003Y384333D01*
Y383000D01*
X147000Y12000D02*
Y19997D01*
X143001D01*
X141668Y18664D01*
Y15999D01*
X143001Y14666D01*
X147000D01*
X144334D02*
X141668Y12000D01*
X133671Y19997D02*
X136337Y18664D01*
X139003Y15999D01*
Y13333D01*
X137670Y12000D01*
X135004D01*
X133671Y13333D01*
Y14666D01*
X135004Y15999D01*
X139003D01*
X42000Y90000D02*
X34003D01*
Y86001D01*
X35336Y84668D01*
X38001D01*
X39334Y86001D01*
Y90000D01*
Y87334D02*
X42000Y84668D01*
Y78004D02*
X34003D01*
X38001Y82003D01*
Y76671D01*
X178000Y42000D02*
X170003D01*
Y38001D01*
X171336Y36668D01*
X174001D01*
X175334Y38001D01*
Y42000D01*
Y39334D02*
X178000Y36668D01*
X171336Y34003D02*
X170003Y32670D01*
Y30004D01*
X171336Y28671D01*
X172668D01*
X174001Y30004D01*
Y31337D01*
Y30004D01*
X175334Y28671D01*
X176667D01*
X178000Y30004D01*
Y32670D01*
X176667Y34003D01*
X13000Y89000D02*
X5003D01*
Y85001D01*
X6335Y83668D01*
X9001D01*
X10334Y85001D01*
Y89000D01*
Y86334D02*
X13000Y83668D01*
Y81003D02*
Y78337D01*
Y79670D01*
X5003D01*
X6335Y81003D01*
X74000Y218997D02*
Y211000D01*
X68668D01*
X66003Y217665D02*
X64670Y218997D01*
X62004D01*
X60671Y217665D01*
Y216332D01*
X62004Y214999D01*
X63337D01*
X62004D01*
X60671Y213666D01*
Y212333D01*
X62004Y211000D01*
X64670D01*
X66003Y212333D01*
X118003Y319000D02*
X126000D01*
Y313668D01*
Y305671D02*
Y311003D01*
X120668Y305671D01*
X119335D01*
X118003Y307004D01*
Y309670D01*
X119335Y311003D01*
X276000Y334997D02*
Y327000D01*
X270668D01*
X268003D02*
X265337D01*
X266670D01*
Y334997D01*
X268003Y333665D01*
X255997Y170000D02*
X248000D01*
Y173999D01*
X249333Y175332D01*
X254664D01*
X255997Y173999D01*
Y170000D01*
X249333Y183329D02*
X254664D01*
X255997Y181996D01*
Y179330D01*
X254664Y177997D01*
X249333D01*
X248000Y179330D01*
Y181996D01*
X250666Y180663D02*
X248000Y183329D01*
Y181996D02*
X249333Y183329D01*
X248000Y185995D02*
Y188661D01*
Y187328D01*
X255997D01*
X254664Y185995D01*
X275000Y131997D02*
Y124000D01*
X271001D01*
X269668Y125333D01*
Y130665D01*
X271001Y131997D01*
X275000D01*
X267003D02*
Y124000D01*
X263004D01*
X261671Y125333D01*
Y130665D01*
X263004Y131997D01*
X267003D01*
X255006Y124000D02*
Y131997D01*
X259005Y127999D01*
X253674D01*
X177000Y355747D02*
Y347750D01*
X173001D01*
X171668Y349083D01*
Y354414D01*
X173001Y355747D01*
X177000D01*
X169003D02*
Y347750D01*
X165004D01*
X163671Y349083D01*
Y354414D01*
X165004Y355747D01*
X169003D01*
X155674Y347750D02*
X161005D01*
X155674Y353082D01*
Y354414D01*
X157006Y355747D01*
X159672D01*
X161005Y354414D01*
X347668Y148665D02*
X349001Y149997D01*
X351667D01*
X353000Y148665D01*
Y143333D01*
X351667Y142000D01*
X349001D01*
X347668Y143333D01*
X341004Y142000D02*
Y149997D01*
X345003Y145999D01*
X339671D01*
X337005Y148665D02*
X335672Y149997D01*
X333006D01*
X331674Y148665D01*
Y147332D01*
X333006Y145999D01*
X334339D01*
X333006D01*
X331674Y144666D01*
Y143333D01*
X333006Y142000D01*
X335672D01*
X337005Y143333D01*
X276668Y180665D02*
X278001Y181997D01*
X280667D01*
X282000Y180665D01*
Y175333D01*
X280667Y174000D01*
X278001D01*
X276668Y175333D01*
X270004Y174000D02*
Y181997D01*
X274003Y177999D01*
X268671D01*
X260674Y174000D02*
X266005D01*
X260674Y179332D01*
Y180665D01*
X262006Y181997D01*
X264672D01*
X266005Y180665D01*
X738668Y249664D02*
X740001Y250997D01*
X742667D01*
X744000Y249664D01*
Y244333D01*
X742667Y243000D01*
X740001D01*
X738668Y244333D01*
X732004Y243000D02*
Y250997D01*
X736003Y246999D01*
X730671D01*
X728005Y243000D02*
X725339D01*
X726672D01*
Y250997D01*
X728005Y249664D01*
X738668Y235665D02*
X740001Y236997D01*
X742667D01*
X744000Y235665D01*
Y230333D01*
X742667Y229000D01*
X740001D01*
X738668Y230333D01*
X732004Y229000D02*
Y236997D01*
X736003Y232999D01*
X730671D01*
X728005Y235665D02*
X726672Y236997D01*
X724007D01*
X722674Y235665D01*
Y230333D01*
X724007Y229000D01*
X726672D01*
X728005Y230333D01*
Y235665D01*
X668335Y230668D02*
X667003Y232001D01*
Y234667D01*
X668335Y236000D01*
X673667D01*
X675000Y234667D01*
Y232001D01*
X673667Y230668D01*
X668335Y228003D02*
X667003Y226670D01*
Y224004D01*
X668335Y222671D01*
X669668D01*
X671001Y224004D01*
Y225337D01*
Y224004D01*
X672334Y222671D01*
X673667D01*
X675000Y224004D01*
Y226670D01*
X673667Y228003D01*
Y220005D02*
X675000Y218672D01*
Y216007D01*
X673667Y214674D01*
X668335D01*
X667003Y216007D01*
Y218672D01*
X668335Y220005D01*
X669668D01*
X671001Y218672D01*
Y214674D01*
X729668Y220665D02*
X731001Y221997D01*
X733667D01*
X735000Y220665D01*
Y215333D01*
X733667Y214000D01*
X731001D01*
X729668Y215333D01*
X727003Y220665D02*
X725670Y221997D01*
X723004D01*
X721671Y220665D01*
Y219332D01*
X723004Y217999D01*
X724337D01*
X723004D01*
X721671Y216666D01*
Y215333D01*
X723004Y214000D01*
X725670D01*
X727003Y215333D01*
X719005Y220665D02*
X717672Y221997D01*
X715006D01*
X713674Y220665D01*
Y219332D01*
X715006Y217999D01*
X713674Y216666D01*
Y215333D01*
X715006Y214000D01*
X717672D01*
X719005Y215333D01*
Y216666D01*
X717672Y217999D01*
X719005Y219332D01*
Y220665D01*
X717672Y217999D02*
X715006D01*
X177668Y210665D02*
X179001Y211997D01*
X181667D01*
X183000Y210665D01*
Y205333D01*
X181667Y204000D01*
X179001D01*
X177668Y205333D01*
X169671Y204000D02*
X175003D01*
X169671Y209332D01*
Y210665D01*
X171004Y211997D01*
X173670D01*
X175003Y210665D01*
X167005Y205333D02*
X165672Y204000D01*
X163006D01*
X161674Y205333D01*
Y210665D01*
X163006Y211997D01*
X165672D01*
X167005Y210665D01*
Y209332D01*
X165672Y207999D01*
X161674D01*
X107336Y244668D02*
X106003Y246001D01*
Y248667D01*
X107336Y250000D01*
X112667D01*
X114000Y248667D01*
Y246001D01*
X112667Y244668D01*
X114000Y236671D02*
Y242003D01*
X108668Y236671D01*
X107336D01*
X106003Y238004D01*
Y240670D01*
X107336Y242003D01*
Y234005D02*
X106003Y232672D01*
Y230006D01*
X107336Y228674D01*
X108668D01*
X110001Y230006D01*
X111334Y228674D01*
X112667D01*
X114000Y230006D01*
Y232672D01*
X112667Y234005D01*
X111334D01*
X110001Y232672D01*
X108668Y234005D01*
X107336D01*
X110001Y232672D02*
Y230006D01*
X300668Y254664D02*
X302001Y255997D01*
X304667D01*
X306000Y254664D01*
Y249333D01*
X304667Y248000D01*
X302001D01*
X300668Y249333D01*
X292671Y248000D02*
X298003D01*
X292671Y253332D01*
Y254664D01*
X294004Y255997D01*
X296670D01*
X298003Y254664D01*
X290005Y255997D02*
X284674D01*
Y254664D01*
X290005Y249333D01*
Y248000D01*
X348668Y177665D02*
X350001Y178997D01*
X352667D01*
X354000Y177665D01*
Y172333D01*
X352667Y171000D01*
X350001D01*
X348668Y172333D01*
X340671Y171000D02*
X346003D01*
X340671Y176332D01*
Y177665D01*
X342004Y178997D01*
X344670D01*
X346003Y177665D01*
X332674Y178997D02*
X335339Y177665D01*
X338005Y174999D01*
Y172333D01*
X336672Y171000D01*
X334006D01*
X332674Y172333D01*
Y173666D01*
X334006Y174999D01*
X338005D01*
X251668Y390664D02*
X253001Y391997D01*
X255667D01*
X257000Y390664D01*
Y385333D01*
X255667Y384000D01*
X253001D01*
X251668Y385333D01*
X243671Y384000D02*
X249003D01*
X243671Y389332D01*
Y390664D01*
X245004Y391997D01*
X247670D01*
X249003Y390664D01*
X235674Y391997D02*
X241005D01*
Y387999D01*
X238339Y389332D01*
X237006D01*
X235674Y387999D01*
Y385333D01*
X237006Y384000D01*
X239672D01*
X241005Y385333D01*
X295668Y387664D02*
X297001Y388997D01*
X299667D01*
X301000Y387664D01*
Y382333D01*
X299667Y381000D01*
X297001D01*
X295668Y382333D01*
X287671Y381000D02*
X293003D01*
X287671Y386332D01*
Y387664D01*
X289004Y388997D01*
X291670D01*
X293003Y387664D01*
X281006Y381000D02*
Y388997D01*
X285005Y384999D01*
X279674D01*
X133668Y338665D02*
X135001Y339997D01*
X137667D01*
X139000Y338665D01*
Y333333D01*
X137667Y332000D01*
X135001D01*
X133668Y333333D01*
X125671Y332000D02*
X131003D01*
X125671Y337332D01*
Y338665D01*
X127004Y339997D01*
X129670D01*
X131003Y338665D01*
X123005D02*
X121672Y339997D01*
X119006D01*
X117674Y338665D01*
Y337332D01*
X119006Y335999D01*
X120339D01*
X119006D01*
X117674Y334666D01*
Y333333D01*
X119006Y332000D01*
X121672D01*
X123005Y333333D01*
X890665Y58332D02*
X891997Y56999D01*
Y54333D01*
X890665Y53000D01*
X885333D01*
X884000Y54333D01*
Y56999D01*
X885333Y58332D01*
X884000Y60997D02*
Y63663D01*
Y62330D01*
X891997D01*
X890665Y60997D01*
X885333Y67662D02*
X884000Y68995D01*
Y71661D01*
X885333Y72994D01*
X890665D01*
X891997Y71661D01*
Y68995D01*
X890665Y67662D01*
X889332D01*
X887999Y68995D01*
Y72994D01*
X797668Y53664D02*
X799001Y54997D01*
X801667D01*
X803000Y53664D01*
Y48333D01*
X801667Y47000D01*
X799001D01*
X797668Y48333D01*
X795003Y47000D02*
X792337D01*
X793670D01*
Y54997D01*
X795003Y53664D01*
X788338D02*
X787005Y54997D01*
X784339D01*
X783006Y53664D01*
Y52332D01*
X784339Y50999D01*
X783006Y49666D01*
Y48333D01*
X784339Y47000D01*
X787005D01*
X788338Y48333D01*
Y49666D01*
X787005Y50999D01*
X788338Y52332D01*
Y53664D01*
X787005Y50999D02*
X784339D01*
X807668Y80665D02*
X809001Y81997D01*
X811667D01*
X813000Y80665D01*
Y75333D01*
X811667Y74000D01*
X809001D01*
X807668Y75333D01*
X805003Y74000D02*
X802337D01*
X803670D01*
Y81997D01*
X805003Y80665D01*
X798338Y81997D02*
X793006D01*
Y80665D01*
X798338Y75333D01*
Y74000D01*
X854665Y61332D02*
X855997Y59999D01*
Y57333D01*
X854665Y56000D01*
X849333D01*
X848000Y57333D01*
Y59999D01*
X849333Y61332D01*
X848000Y63997D02*
Y66663D01*
Y65330D01*
X855997D01*
X854665Y63997D01*
Y70662D02*
X855997Y71995D01*
Y74661D01*
X854665Y75993D01*
X853332D01*
X851999Y74661D01*
Y73328D01*
Y74661D01*
X850666Y75993D01*
X849333D01*
X848000Y74661D01*
Y71995D01*
X849333Y70662D01*
X866665Y61332D02*
X867997Y59999D01*
Y57333D01*
X866665Y56000D01*
X861333D01*
X860000Y57333D01*
Y59999D01*
X861333Y61332D01*
X866665Y63997D02*
X867997Y65330D01*
Y67996D01*
X866665Y69329D01*
X865332D01*
X863999Y67996D01*
X862666Y69329D01*
X861333D01*
X860000Y67996D01*
Y65330D01*
X861333Y63997D01*
X862666D01*
X863999Y65330D01*
X865332Y63997D01*
X866665D01*
X863999Y65330D02*
Y67996D01*
X877664Y82332D02*
X878997Y80999D01*
Y78333D01*
X877664Y77000D01*
X872333D01*
X871000Y78333D01*
Y80999D01*
X872333Y82332D01*
X878997Y84997D02*
Y90329D01*
X877664D01*
X872333Y84997D01*
X871000D01*
X878664Y61332D02*
X879997Y59999D01*
Y57333D01*
X878664Y56000D01*
X873333D01*
X872000Y57333D01*
Y59999D01*
X873333Y61332D01*
X872000Y67996D02*
X879997D01*
X875999Y63997D01*
Y69329D01*
X498000Y393997D02*
X492668D01*
X495334D01*
Y386000D01*
X490003D02*
X487337D01*
X488670D01*
Y393997D01*
X490003Y392664D01*
X669000Y393997D02*
X663668Y386000D01*
Y393997D02*
X669000Y386000D01*
X655671Y392664D02*
X657004Y393997D01*
X659670D01*
X661003Y392664D01*
Y391332D01*
X659670Y389999D01*
X657004D01*
X655671Y388666D01*
Y387333D01*
X657004Y386000D01*
X659670D01*
X661003Y387333D01*
X647674Y386000D02*
X653005D01*
X647674Y391332D01*
Y392664D01*
X649006Y393997D01*
X651672D01*
X653005Y392664D01*
X855000Y393997D02*
X849668Y386000D01*
Y393997D02*
X855000Y386000D01*
X841671Y392664D02*
X843004Y393997D01*
X845670D01*
X847003Y392664D01*
Y391332D01*
X845670Y389999D01*
X843004D01*
X841671Y388666D01*
Y387333D01*
X843004Y386000D01*
X845670D01*
X847003Y387333D01*
X839005Y392664D02*
X837672Y393997D01*
X835006D01*
X833673Y392664D01*
Y391332D01*
X835006Y389999D01*
X836339D01*
X835006D01*
X833673Y388666D01*
Y387333D01*
X835006Y386000D01*
X837672D01*
X839005Y387333D01*
X31000Y351997D02*
X25668Y344000D01*
Y351997D02*
X31000Y344000D01*
X17671Y350664D02*
X19004Y351997D01*
X21670D01*
X23003Y350664D01*
Y349332D01*
X21670Y347999D01*
X19004D01*
X17671Y346666D01*
Y345333D01*
X19004Y344000D01*
X21670D01*
X23003Y345333D01*
X11006Y344000D02*
Y351997D01*
X15005Y347999D01*
X9674D01*
X887000Y165997D02*
X881668Y158000D01*
Y165997D02*
X887000Y158000D01*
X873671Y164664D02*
X875004Y165997D01*
X877670D01*
X879003Y164664D01*
Y163332D01*
X877670Y161999D01*
X875004D01*
X873671Y160666D01*
Y159333D01*
X875004Y158000D01*
X877670D01*
X879003Y159333D01*
X865674Y165997D02*
X871005D01*
Y161999D01*
X868339Y163332D01*
X867006D01*
X865674Y161999D01*
Y159333D01*
X867006Y158000D01*
X869672D01*
X871005Y159333D01*
X237000Y165997D02*
X231668Y158000D01*
Y165997D02*
X237000Y158000D01*
X223671Y164664D02*
X225004Y165997D01*
X227670D01*
X229003Y164664D01*
Y163332D01*
X227670Y161999D01*
X225004D01*
X223671Y160666D01*
Y159333D01*
X225004Y158000D01*
X227670D01*
X229003Y159333D01*
X215674Y165997D02*
X218339Y164664D01*
X221005Y161999D01*
Y159333D01*
X219672Y158000D01*
X217006D01*
X215674Y159333D01*
Y160666D01*
X217006Y161999D01*
X221005D01*
X676668Y209664D02*
X678001Y210997D01*
X680667D01*
X682000Y209664D01*
Y204333D01*
X680667Y203000D01*
X678001D01*
X676668Y204333D01*
X668671Y210997D02*
X671337Y209664D01*
X674003Y206999D01*
Y204333D01*
X672670Y203000D01*
X670004D01*
X668671Y204333D01*
Y205666D01*
X670004Y206999D01*
X674003D01*
X666005Y203000D02*
X663339D01*
X664672D01*
Y210997D01*
X666005Y209664D01*
X681668Y175665D02*
X683001Y176997D01*
X685667D01*
X687000Y175665D01*
Y170333D01*
X685667Y169000D01*
X683001D01*
X681668Y170333D01*
X673671Y176997D02*
X676337Y175665D01*
X679003Y172999D01*
Y170333D01*
X677670Y169000D01*
X675004D01*
X673671Y170333D01*
Y171666D01*
X675004Y172999D01*
X679003D01*
X665674Y169000D02*
X671005D01*
X665674Y174332D01*
Y175665D01*
X667006Y176997D01*
X669672D01*
X671005Y175665D01*
X517668Y180665D02*
X519001Y181997D01*
X521667D01*
X523000Y180665D01*
Y175333D01*
X521667Y174000D01*
X519001D01*
X517668Y175333D01*
X509671Y181997D02*
X512337Y180665D01*
X515003Y177999D01*
Y175333D01*
X513670Y174000D01*
X511004D01*
X509671Y175333D01*
Y176666D01*
X511004Y177999D01*
X515003D01*
X503006Y174000D02*
Y181997D01*
X507005Y177999D01*
X501674D01*
X438668Y178664D02*
X440001Y179997D01*
X442667D01*
X444000Y178664D01*
Y173333D01*
X442667Y172000D01*
X440001D01*
X438668Y173333D01*
X430671Y179997D02*
X433337Y178664D01*
X436003Y175999D01*
Y173333D01*
X434670Y172000D01*
X432004D01*
X430671Y173333D01*
Y174666D01*
X432004Y175999D01*
X436003D01*
X422674Y179997D02*
X428005D01*
Y175999D01*
X425339Y177332D01*
X424006D01*
X422674Y175999D01*
Y173333D01*
X424006Y172000D01*
X426672D01*
X428005Y173333D01*
X496665Y129332D02*
X497997Y127999D01*
Y125333D01*
X496665Y124000D01*
X491333D01*
X490000Y125333D01*
Y127999D01*
X491333Y129332D01*
X497997Y137329D02*
X496665Y134663D01*
X493999Y131997D01*
X491333D01*
X490000Y133330D01*
Y135996D01*
X491333Y137329D01*
X492666D01*
X493999Y135996D01*
Y131997D01*
X497997Y145326D02*
X496665Y142661D01*
X493999Y139995D01*
X491333D01*
X490000Y141328D01*
Y143994D01*
X491333Y145326D01*
X492666D01*
X493999Y143994D01*
Y139995D01*
X653668Y117664D02*
X655001Y118997D01*
X657667D01*
X659000Y117664D01*
Y112333D01*
X657667Y111000D01*
X655001D01*
X653668Y112333D01*
X645671Y118997D02*
X648337Y117664D01*
X651003Y114999D01*
Y112333D01*
X649670Y111000D01*
X647004D01*
X645671Y112333D01*
Y113666D01*
X647004Y114999D01*
X651003D01*
X643005Y112333D02*
X641672Y111000D01*
X639006D01*
X637674Y112333D01*
Y117664D01*
X639006Y118997D01*
X641672D01*
X643005Y117664D01*
Y116332D01*
X641672Y114999D01*
X637674D01*
X517668Y165665D02*
X519001Y166997D01*
X521667D01*
X523000Y165665D01*
Y160333D01*
X521667Y159000D01*
X519001D01*
X517668Y160333D01*
X515003Y165665D02*
X513670Y166997D01*
X511004D01*
X509671Y165665D01*
Y164332D01*
X511004Y162999D01*
X509671Y161666D01*
Y160333D01*
X511004Y159000D01*
X513670D01*
X515003Y160333D01*
Y161666D01*
X513670Y162999D01*
X515003Y164332D01*
Y165665D01*
X513670Y162999D02*
X511004D01*
X507005Y159000D02*
X504339D01*
X505672D01*
Y166997D01*
X507005Y165665D01*
X54003Y337000D02*
X62000D01*
Y333001D01*
X60667Y331668D01*
X55335D01*
X54003Y333001D01*
Y337000D01*
X60667Y323671D02*
X55335D01*
X54003Y325004D01*
Y327670D01*
X55335Y329003D01*
X60667D01*
X62000Y327670D01*
Y325004D01*
X59334Y326337D02*
X62000Y323671D01*
Y325004D02*
X60667Y323671D01*
X62000Y315674D02*
Y321005D01*
X56668Y315674D01*
X55335D01*
X54003Y317006D01*
Y319672D01*
X55335Y321005D01*
X525000Y117997D02*
Y110000D01*
X519668D01*
X513004D02*
Y117997D01*
X517003Y113999D01*
X511671D01*
X507000Y110000D02*
Y117997D01*
X503001D01*
X501668Y116664D01*
Y113999D01*
X503001Y112666D01*
X507000D01*
X504334D02*
X501668Y110000D01*
X493671D02*
X499003D01*
X493671Y115332D01*
Y116664D01*
X495004Y117997D01*
X497670D01*
X499003Y116664D01*
X491005Y117997D02*
X485674D01*
Y116664D01*
X491005Y111333D01*
Y110000D01*
X687000Y157000D02*
Y164997D01*
X683001D01*
X681668Y163664D01*
Y160999D01*
X683001Y159666D01*
X687000D01*
X684334D02*
X681668Y157000D01*
X673671D02*
X679003D01*
X673671Y162332D01*
Y163664D01*
X675004Y164997D01*
X677670D01*
X679003Y163664D01*
X671005Y158333D02*
X669672Y157000D01*
X667006D01*
X665674Y158333D01*
Y163664D01*
X667006Y164997D01*
X669672D01*
X671005Y163664D01*
Y162332D01*
X669672Y160999D01*
X665674D01*
X372000Y139000D02*
X379997D01*
Y142999D01*
X378665Y144332D01*
X375999D01*
X374666Y142999D01*
Y139000D01*
Y141666D02*
X372000Y144332D01*
X378665Y146997D02*
X379997Y148330D01*
Y150996D01*
X378665Y152329D01*
X377332D01*
X375999Y150996D01*
Y149663D01*
Y150996D01*
X374666Y152329D01*
X373333D01*
X372000Y150996D01*
Y148330D01*
X373333Y146997D01*
X372000Y154995D02*
Y157661D01*
Y156328D01*
X379997D01*
X378665Y154995D01*
X495000Y165000D02*
X500655Y170655D01*
X497827Y173483D01*
X495942D01*
X494058Y171597D01*
X494058Y169713D01*
X496885Y166885D01*
X495000Y168770D02*
X491230D01*
X494058Y175368D02*
X494058Y177253D01*
X492173Y179138D01*
X490288D01*
X489345Y178195D01*
Y176310D01*
X490288Y175368D01*
X489345Y176310D01*
X487460Y176310D01*
X486517Y175368D01*
X486517Y173483D01*
X488402Y171597D01*
X490288D01*
X484632Y177253D02*
X482747D01*
X480862Y179138D01*
X480862Y181023D01*
X484632Y184793D01*
X486517D01*
X488402Y182908D01*
X488402Y181023D01*
X487460Y180080D01*
X485575Y180080D01*
X482747Y182908D01*
X314003Y118000D02*
X319334D01*
X322000Y115334D01*
X319334Y112668D01*
X314003D01*
Y110003D02*
Y104671D01*
Y107337D01*
X322000D01*
Y98006D02*
X314003D01*
X318001Y102005D01*
Y96673D01*
X416000Y179997D02*
Y178664D01*
X413334Y175999D01*
X410668Y178664D01*
Y179997D01*
X413334Y175999D02*
Y172000D01*
X408003D02*
X405337D01*
X406670D01*
Y179997D01*
X408003Y178664D01*
X143000Y81000D02*
X135003D01*
Y77001D01*
X136335Y75668D01*
X139001D01*
X140334Y77001D01*
Y81000D01*
Y78334D02*
X143000Y75668D01*
Y69004D02*
X135003D01*
X139001Y73003D01*
Y67671D01*
X141667Y65005D02*
X143000Y63672D01*
Y61006D01*
X141667Y59674D01*
X136335D01*
X135003Y61006D01*
Y63672D01*
X136335Y65005D01*
X137668D01*
X139001Y63672D01*
Y59674D01*
X176000Y85000D02*
Y92997D01*
X172001D01*
X170668Y91664D01*
Y88999D01*
X172001Y87666D01*
X176000D01*
X173334D02*
X170668Y85000D01*
X162671Y92997D02*
X168003D01*
Y88999D01*
X165337Y90332D01*
X164004D01*
X162671Y88999D01*
Y86333D01*
X164004Y85000D01*
X166670D01*
X168003Y86333D01*
X160005Y91664D02*
X158672Y92997D01*
X156006D01*
X154674Y91664D01*
Y86333D01*
X156006Y85000D01*
X158672D01*
X160005Y86333D01*
Y91664D01*
X667000Y274000D02*
X659003D01*
Y270001D01*
X660335Y268668D01*
X663001D01*
X664334Y270001D01*
Y274000D01*
Y271334D02*
X667000Y268668D01*
X659003Y260671D02*
Y266003D01*
X663001D01*
X661668Y263337D01*
Y262004D01*
X663001Y260671D01*
X665667D01*
X667000Y262004D01*
Y264670D01*
X665667Y266003D01*
X659003Y252674D02*
Y258005D01*
X663001D01*
X661668Y255339D01*
Y254007D01*
X663001Y252674D01*
X665667D01*
X667000Y254007D01*
Y256672D01*
X665667Y258005D01*
X123000Y67997D02*
Y60000D01*
X119001D01*
X117668Y61333D01*
Y66665D01*
X119001Y67997D01*
X123000D01*
X109671Y61333D02*
Y66665D01*
X111004Y67997D01*
X113670D01*
X115003Y66665D01*
Y61333D01*
X113670Y60000D01*
X111004D01*
X112337Y62666D02*
X109671Y60000D01*
X111004D02*
X109671Y61333D01*
X101674Y67997D02*
X104339Y66665D01*
X107005Y63999D01*
Y61333D01*
X105672Y60000D01*
X103006D01*
X101674Y61333D01*
Y62666D01*
X103006Y63999D01*
X107005D01*
X77000Y61000D02*
Y68997D01*
X73001D01*
X71668Y67664D01*
Y64999D01*
X73001Y63666D01*
X77000D01*
X74334D02*
X71668Y61000D01*
X65004D02*
Y68997D01*
X69003Y64999D01*
X63671D01*
X57006Y61000D02*
Y68997D01*
X61005Y64999D01*
X55673D01*
X796000Y91000D02*
Y98997D01*
X792001D01*
X790668Y97664D01*
Y94999D01*
X792001Y93666D01*
X796000D01*
X793334D02*
X790668Y91000D01*
X784004D02*
Y98997D01*
X788003Y94999D01*
X782671D01*
X774674Y98997D02*
X780005D01*
Y94999D01*
X777339Y96332D01*
X776006D01*
X774674Y94999D01*
Y92333D01*
X776006Y91000D01*
X778672D01*
X780005Y92333D01*
X890665Y83332D02*
X891997Y81999D01*
Y79333D01*
X890665Y78000D01*
X885333D01*
X884000Y79333D01*
Y81999D01*
X885333Y83332D01*
X890665Y85997D02*
X891997Y87330D01*
Y89996D01*
X890665Y91329D01*
X889332D01*
X887999Y89996D01*
Y88663D01*
Y89996D01*
X886666Y91329D01*
X885333D01*
X884000Y89996D01*
Y87330D01*
X885333Y85997D01*
X891997Y99326D02*
Y93995D01*
X887999D01*
X889332Y96661D01*
Y97994D01*
X887999Y99326D01*
X885333D01*
X884000Y97994D01*
Y95328D01*
X885333Y93995D01*
X826000Y236997D02*
Y229000D01*
X822001D01*
X820668Y230333D01*
Y235665D01*
X822001Y236997D01*
X826000D01*
X814004Y229000D02*
Y236997D01*
X818003Y232999D01*
X812671D01*
X824668Y58664D02*
X826001Y59997D01*
X828667D01*
X830000Y58664D01*
Y53333D01*
X828667Y52000D01*
X826001D01*
X824668Y53333D01*
X822003Y52000D02*
X819337D01*
X820670D01*
Y59997D01*
X822003Y58664D01*
X815338Y52000D02*
X812672D01*
X814005D01*
Y59997D01*
X815338Y58664D01*
X659668Y99664D02*
X661001Y100997D01*
X663667D01*
X665000Y99664D01*
Y94333D01*
X663667Y93000D01*
X661001D01*
X659668Y94333D01*
X651671Y93000D02*
X657003D01*
X651671Y98332D01*
Y99664D01*
X653004Y100997D01*
X655670D01*
X657003Y99664D01*
X649005D02*
X647672Y100997D01*
X645006D01*
X643673Y99664D01*
Y94333D01*
X645006Y93000D01*
X647672D01*
X649005Y94333D01*
Y99664D01*
X57668Y21997D02*
X60334D01*
X59001D01*
Y15333D01*
X60334Y14000D01*
X61667D01*
X63000Y15333D01*
X55003Y14000D02*
Y21997D01*
X51004D01*
X49671Y20665D01*
Y17999D01*
X51004Y16666D01*
X55003D01*
X47005Y14000D02*
X44339D01*
X45672D01*
Y21997D01*
X47005Y20665D01*
D40*
X847003Y194496D02*
X849502Y196995D01*
X854501D01*
X857000Y194496D01*
Y191997D01*
X854501Y189498D01*
X849502D01*
X847003Y186998D01*
Y184499D01*
X849502Y182000D01*
X854501D01*
X857000Y184499D01*
X839506Y194496D02*
Y191997D01*
X842005D01*
X837007D01*
X839506D01*
Y184499D01*
X837007Y182000D01*
X822011D02*
X827010D01*
X829509Y184499D01*
Y189498D01*
X827010Y191997D01*
X822011D01*
X819512Y189498D01*
Y186998D01*
X829509D01*
X814514Y191997D02*
Y182000D01*
Y186998D01*
X812015Y189498D01*
X809515Y191997D01*
X807016D01*
X792021Y182000D02*
X797019D01*
X799519Y184499D01*
Y189498D01*
X797019Y191997D01*
X792021D01*
X789522Y189498D01*
Y186998D01*
X799519D01*
X782024Y182000D02*
X777026D01*
X774527Y184499D01*
Y189498D01*
X777026Y191997D01*
X782024D01*
X784523Y189498D01*
Y184499D01*
X782024Y182000D01*
X769528D02*
Y196995D01*
X762031D01*
X759532Y194496D01*
Y189498D01*
X762031Y186998D01*
X769528D01*
X754533Y182000D02*
X749535D01*
X752034D01*
Y191997D01*
X754533D01*
X727042D02*
X722044Y182000D01*
X717045Y191997D01*
X712047Y182000D02*
X707048D01*
X709548D01*
Y196995D01*
X712047Y194496D01*
X699551Y182000D02*
Y184499D01*
X697052D01*
Y182000D01*
X699551D01*
X687055Y194496D02*
X684556Y196995D01*
X679557D01*
X677058Y194496D01*
Y184499D01*
X679557Y182000D01*
X684556D01*
X687055Y184499D01*
Y194496D01*
D42*
X266000Y136750D02*
G03*
X266000Y136750I-1000J0D01*
G01*
X68600Y30700D02*
X119400D01*
X68600Y5300D02*
Y30700D01*
X119400Y5300D02*
Y30700D01*
X68600Y5300D02*
X119400D01*
X708000Y99000D02*
X730000D01*
X708000Y87000D02*
X730000D01*
Y99000D01*
X708000Y87000D02*
Y99000D01*
Y71000D02*
X730000D01*
X708000Y83000D02*
X730000D01*
X708000Y71000D02*
Y83000D01*
X730000Y71000D02*
Y83000D01*
X618000Y93000D02*
X640000D01*
X618000Y105000D02*
X640000D01*
X618000Y93000D02*
Y105000D01*
X640000Y93000D02*
Y105000D01*
X817000Y26000D02*
Y48000D01*
X829000Y26000D02*
Y48000D01*
X817000D02*
X829000D01*
X817000Y26000D02*
X829000D01*
X830500Y221000D02*
Y244000D01*
X860500D01*
Y221000D02*
Y244000D01*
X830500Y221000D02*
X860500D01*
X758000Y63000D02*
X776000D01*
Y31000D02*
Y63000D01*
X758000Y31000D02*
X776000D01*
X758000D02*
Y63000D01*
X758000Y88000D02*
Y94000D01*
X770000D01*
Y88000D02*
Y94000D01*
Y72000D02*
Y78000D01*
X758000Y72000D02*
X770000D01*
X758000D02*
Y78000D01*
X77000Y73000D02*
Y79000D01*
X65000Y73000D02*
X77000D01*
X65000D02*
Y79000D01*
Y89000D02*
Y95000D01*
X77000D01*
Y89000D02*
Y95000D01*
X83000Y95000D02*
X97000D01*
X83000Y67000D02*
Y95000D01*
Y67000D02*
X97000D01*
Y95000D01*
X87000Y60000D02*
X93000D01*
X90000Y57000D02*
Y63000D01*
X671000Y242000D02*
Y248000D01*
Y242000D02*
X683000D01*
Y248000D01*
Y258000D02*
Y264000D01*
X671000D02*
X683000D01*
X671000Y258000D02*
Y264000D01*
X176000Y75000D02*
Y81000D01*
X164000D02*
X176000D01*
X164000Y75000D02*
Y81000D01*
Y59000D02*
Y65000D01*
Y59000D02*
X176000D01*
Y65000D01*
X159000Y75000D02*
Y81000D01*
X147000D02*
X159000D01*
X147000Y75000D02*
Y81000D01*
Y59000D02*
Y65000D01*
Y59000D02*
X159000D01*
Y65000D01*
X407180Y139151D02*
X435465Y167435D01*
X438293D01*
X482133Y123594D01*
X407180Y139151D02*
X452435Y93896D01*
X482133Y123594D01*
X333500Y126000D02*
X342500D01*
X333500Y118000D02*
Y126000D01*
Y96000D02*
X342500D01*
X333500D02*
Y104000D01*
X486778Y167707D02*
X491021Y163464D01*
X482536Y154979D02*
X491021Y163464D01*
X478293Y159222D02*
X482536Y154979D01*
X466979Y170536D02*
X471222Y166293D01*
X466979Y170536D02*
X475465Y179021D01*
X479707Y174778D01*
X369000Y128000D02*
Y134000D01*
X381000D01*
Y128000D02*
Y134000D01*
Y112000D02*
Y118000D01*
X369000Y112000D02*
X381000D01*
X369000D02*
Y118000D01*
X656000Y172000D02*
X662000D01*
Y160000D02*
Y172000D01*
X656000Y160000D02*
X662000D01*
X640000D02*
X646000D01*
X640000D02*
Y172000D01*
X646000D01*
X580000Y105000D02*
X586000D01*
Y93000D02*
Y105000D01*
X580000Y93000D02*
X586000D01*
X564000D02*
X570000D01*
X564000D02*
Y105000D01*
X570000D01*
X517000Y137000D02*
X523000Y137000D01*
Y125000D02*
Y137000D01*
X517000Y125000D02*
X523000Y125000D01*
X501000D02*
X507000Y125000D01*
X501000Y125000D02*
Y137000D01*
X507000Y137000D01*
X512000Y105000D02*
X534000D01*
X512000Y93000D02*
X534000D01*
Y105000D01*
X512000Y93000D02*
Y105000D01*
X61000Y298000D02*
Y312000D01*
Y298000D02*
X89000D01*
Y312000D01*
X61000D02*
X89000D01*
X96000Y302000D02*
Y308000D01*
X93000Y305000D02*
X99000D01*
X501000Y142500D02*
Y154500D01*
X523000Y142500D02*
Y154500D01*
X501000Y142500D02*
X523000D01*
X501000Y154500D02*
X523000D01*
X659000Y143000D02*
Y155000D01*
X637000Y143000D02*
Y155000D01*
X659000D01*
X637000Y143000D02*
X659000D01*
Y123000D02*
Y135000D01*
X637000Y123000D02*
Y135000D01*
X659000D01*
X637000Y123000D02*
X659000D01*
X463979Y149536D02*
X472464Y158021D01*
X479535Y133979D02*
X488021Y142464D01*
X463979Y149536D02*
X479535Y133979D01*
X472464Y158021D02*
X488021Y142464D01*
X460536Y152979D02*
X469021Y161464D01*
X444979Y168536D02*
X453464Y177021D01*
X469021Y161464D01*
X444979Y168536D02*
X460536Y152979D01*
X501000Y186000D02*
Y198000D01*
X523000Y186000D02*
Y198000D01*
X501000Y186000D02*
X523000D01*
X501000Y198000D02*
X523000D01*
X560000Y93000D02*
Y105000D01*
X538000Y93000D02*
Y105000D01*
X560000D01*
X538000Y93000D02*
X560000D01*
X637000Y198000D02*
X669000D01*
X637000Y180000D02*
Y198000D01*
Y180000D02*
X669000D01*
Y198000D01*
X659000Y203000D02*
Y215000D01*
X637000Y203000D02*
Y215000D01*
X659000D01*
X637000Y203000D02*
X659000D01*
X614000Y93000D02*
Y105000D01*
X592000Y93000D02*
Y105000D01*
X614000D01*
X592000Y93000D02*
X614000D01*
X237000Y104000D02*
Y151500D01*
X13000Y104000D02*
Y151500D01*
Y104000D02*
X237000D01*
X50000Y165500D02*
X200000D01*
X214000Y151500D02*
X237000D01*
X200000Y165500D02*
X214000Y151500D01*
X13000D02*
X36000D01*
X50000Y165500D01*
X686000Y151500D02*
X700000Y165500D01*
X663000Y151500D02*
X686000D01*
X850000Y165500D02*
X864000Y151500D01*
X887000D01*
X700000Y165500D02*
X850000D01*
X663000Y104000D02*
X887000D01*
X663000D02*
Y151500D01*
X887000Y104000D02*
Y151500D01*
X10000Y338000D02*
X49000D01*
Y263000D02*
Y338000D01*
X10000Y263000D02*
X49000D01*
X10000D02*
Y338000D01*
X677000Y364500D02*
Y399000D01*
X827000Y364500D02*
Y399000D01*
X677000D02*
X827000D01*
X512000Y399000D02*
X641000D01*
Y321000D02*
Y399000D01*
X512000Y321000D02*
Y399000D01*
X526000Y225000D02*
X626000D01*
X315720Y279840D02*
Y399220D01*
X478280Y279840D02*
Y399220D01*
X315720Y368740D02*
X478280D01*
X315720Y183320D02*
X478280D01*
X315720Y399220D02*
X478280D01*
X315720Y183320D02*
X315720Y239200D01*
X478280Y240470D02*
X478280Y183320D01*
X745000Y26000D02*
X757000D01*
X745000Y4000D02*
X757000D01*
X745000D02*
Y26000D01*
X757000Y4000D02*
Y26000D01*
X734000Y63000D02*
X752000D01*
Y31000D02*
Y63000D01*
X734000Y31000D02*
X752000D01*
X734000D02*
Y63000D01*
X729000Y26000D02*
X741000D01*
X729000Y4000D02*
X741000D01*
X729000D02*
Y26000D01*
X741000Y4000D02*
Y26000D01*
X713000D02*
X725000D01*
X713000Y4000D02*
X725000D01*
X713000D02*
Y26000D01*
X725000Y4000D02*
Y26000D01*
X734000Y67000D02*
X752000D01*
X734000D02*
Y99000D01*
X752000D01*
Y67000D02*
Y99000D01*
X782000Y31000D02*
Y43000D01*
X804000Y31000D02*
Y43000D01*
X782000Y31000D02*
X804000D01*
X782000Y43000D02*
X804000D01*
X761000Y26000D02*
X773000D01*
X761000Y4000D02*
X773000D01*
X761000D02*
Y26000D01*
X773000Y4000D02*
Y26000D01*
X66000Y317000D02*
X112000D01*
Y341000D01*
X66000D02*
X112000D01*
X66000Y317000D02*
Y341000D01*
X281000Y331000D02*
X305000D01*
X281000D02*
Y377000D01*
X305000D01*
Y331000D02*
Y377000D01*
X261000Y366000D02*
Y380000D01*
X233000Y366000D02*
Y380000D01*
Y366000D02*
X261000D01*
X233000Y380000D02*
X261000D01*
X259000Y190000D02*
X305000D01*
Y214000D01*
X259000D02*
X305000D01*
X259000Y190000D02*
Y214000D01*
Y220000D02*
Y244000D01*
X305000D01*
Y220000D02*
Y244000D01*
X259000Y220000D02*
X305000D01*
X142000Y218000D02*
Y264000D01*
X118000D02*
X142000D01*
X118000Y218000D02*
Y264000D01*
Y218000D02*
X142000D01*
X148000D02*
X172000D01*
X148000D02*
Y264000D01*
X172000D01*
Y218000D02*
Y264000D01*
X697000Y236000D02*
X709000D01*
X697000Y214000D02*
X709000D01*
X697000D02*
Y236000D01*
X709000Y214000D02*
Y236000D01*
X679000Y236000D02*
X691000D01*
X679000Y214000D02*
X691000D01*
X679000D02*
Y236000D01*
X691000Y214000D02*
Y236000D01*
X688000Y264000D02*
X700000Y264000D01*
X688000Y242000D02*
X700000Y242000D01*
X688000Y242000D02*
Y264000D01*
X700000Y242000D02*
Y264000D01*
X706000Y264000D02*
X718000D01*
X706000Y242000D02*
X718000D01*
X706000D02*
Y264000D01*
X718000D02*
X718000Y242000D01*
X286000Y171000D02*
Y183000D01*
X308000Y171000D02*
Y183000D01*
X286000Y171000D02*
X308000D01*
X286000Y183000D02*
X308000D01*
X286000Y153000D02*
Y165000D01*
X308000Y153000D02*
Y165000D01*
X286000Y153000D02*
X308000D01*
X286000Y165000D02*
X308000D01*
X202500Y357500D02*
X233000D01*
X237500Y353000D01*
Y292500D02*
Y353000D01*
X202500Y292500D02*
X237500D01*
X202500D02*
Y357500D01*
X251500Y164500D02*
X278500D01*
X251500Y141500D02*
Y164500D01*
Y141500D02*
X278500D01*
Y164500D01*
X214000Y190000D02*
Y204000D01*
Y190000D02*
X242000D01*
Y204000D01*
X214000D02*
X242000D01*
X249000Y194000D02*
Y200000D01*
X246000Y197000D02*
X252000D01*
X308000Y272000D02*
Y323000D01*
X266000D02*
X308000D01*
X266000Y272000D02*
Y323000D01*
Y272000D02*
X308000D01*
X130000Y323000D02*
X172000D01*
Y272000D02*
Y323000D01*
X130000Y272000D02*
X172000D01*
X130000D02*
Y323000D01*
X62000Y207000D02*
X76000D01*
X62000Y179000D02*
X76000D01*
Y207000D01*
X62000Y179000D02*
Y207000D01*
X17000Y89000D02*
Y95000D01*
X29000D01*
Y89000D02*
Y95000D01*
Y73000D02*
Y79000D01*
X17000Y73000D02*
X29000D01*
X17000D02*
Y79000D01*
X170000Y12000D02*
X176000D01*
X170000D02*
Y24000D01*
X176000D01*
X186000D02*
X192000D01*
Y12000D02*
Y24000D01*
X186000Y12000D02*
X192000D01*
X57000Y73000D02*
Y79000D01*
X45000Y73000D02*
X57000D01*
X45000D02*
Y79000D01*
Y89000D02*
Y95000D01*
X57000D01*
Y89000D02*
Y95000D01*
X152000Y21000D02*
Y27000D01*
X164000D01*
Y21000D02*
Y27000D01*
Y5000D02*
Y11000D01*
X152000Y5000D02*
X164000D01*
X152000D02*
Y11000D01*
X203000Y367000D02*
X209000D01*
X203000D02*
Y379000D01*
X209000D01*
X219000D02*
X225000D01*
Y367000D02*
Y379000D01*
X219000Y367000D02*
X225000D01*
X224000Y265000D02*
X230000D01*
Y253000D02*
Y265000D01*
X224000Y253000D02*
X230000D01*
X208000D02*
X214000D01*
X208000D02*
Y265000D01*
X214000D01*
X224000Y284000D02*
X230000D01*
Y272000D02*
Y284000D01*
X224000Y272000D02*
X230000D01*
X208000D02*
X214000D01*
X208000D02*
Y284000D01*
X214000D01*
X237000Y253000D02*
X243000D01*
X237000D02*
Y265000D01*
X243000D01*
X253000D02*
X259000D01*
Y253000D02*
Y265000D01*
X253000Y253000D02*
X259000D01*
X196000Y265000D02*
X202000D01*
Y253000D02*
Y265000D01*
X196000Y253000D02*
X202000D01*
X180000D02*
X186000D01*
X180000D02*
Y265000D01*
X186000D01*
Y191000D02*
X192000D01*
X186000D02*
Y203000D01*
X192000D01*
X202000D02*
X208000D01*
Y191000D02*
Y203000D01*
X202000Y191000D02*
X208000D01*
X253000Y284000D02*
X259000D01*
Y272000D02*
Y284000D01*
X253000Y272000D02*
X259000D01*
X237000D02*
X243000D01*
X237000D02*
Y284000D01*
X243000D01*
X180000Y272000D02*
X186000D01*
X180000D02*
Y284000D01*
X186000D01*
X196000D02*
X202000D01*
Y272000D02*
Y284000D01*
X196000Y272000D02*
X202000D01*
X779000Y12000D02*
X789000D01*
X797000D02*
X807000D01*
X797000Y26000D02*
X807000D01*
X779000D02*
X789000D01*
X807000Y12000D02*
Y26000D01*
X779000Y12000D02*
Y26000D01*
X286000Y134000D02*
X292000Y134000D01*
X286000Y134000D02*
X286000Y146000D01*
X292000Y146000D01*
X302000D02*
X308000Y146000D01*
Y134000D02*
Y146000D01*
X302000Y134000D02*
X308000Y134000D01*
X327000Y153000D02*
X327000Y159000D01*
X315000Y153000D02*
X327000Y153000D01*
X315000Y159000D02*
X315000Y153000D01*
X315000Y169000D02*
Y175000D01*
X327000Y175000D01*
Y169000D02*
Y175000D01*
X287500Y96000D02*
Y104000D01*
Y96000D02*
X296500D01*
X287500Y118000D02*
Y126000D01*
X296500D01*
X5500Y173000D02*
Y251000D01*
X31500Y252500D02*
X36000D01*
X31500Y173500D02*
X36000D01*
X100000Y209000D02*
X102000D01*
X100000Y177000D02*
Y209000D01*
Y177000D02*
X102000D01*
Y209000D01*
X158000D01*
Y208000D02*
Y209000D01*
Y177000D02*
Y208000D01*
X102000Y177000D02*
X158000D01*
X82000Y180000D02*
X94000D01*
X82000Y202000D02*
X94000D01*
Y180000D02*
Y202000D01*
X82000Y180000D02*
Y202000D01*
X845000Y273000D02*
X857000D01*
X845000Y295000D02*
X857000D01*
Y273000D02*
Y295000D01*
X845000Y273000D02*
Y295000D01*
X857000Y255000D02*
Y267000D01*
X835000Y255000D02*
Y267000D01*
X857000D01*
X835000Y255000D02*
X857000D01*
X402000Y93000D02*
X408000D01*
X402000D02*
Y105000D01*
X408000D01*
X418000D02*
X424000D01*
Y93000D02*
Y105000D01*
X418000Y93000D02*
X424000D01*
X387000Y112000D02*
X393000D01*
X387000D02*
Y124000D01*
X393000D01*
X403000D02*
X409000D01*
Y112000D02*
Y124000D01*
X403000Y112000D02*
X409000D01*
X70000Y228000D02*
Y293000D01*
Y228000D02*
X100000D01*
Y293000D01*
X70000Y290000D02*
X100000D01*
X70000Y293000D02*
X100000D01*
X70000Y291000D02*
X100000D01*
X864300Y180900D02*
X889700D01*
Y282500D01*
X864300D02*
X889700D01*
X864300Y180900D02*
Y282500D01*
X529000Y110000D02*
Y207000D01*
X534000Y212000D01*
X631000D01*
Y110000D02*
Y212000D01*
X529000Y110000D02*
X631000Y110000D01*
X517000Y216000D02*
X523000D01*
Y204000D02*
Y216000D01*
X517000Y204000D02*
X523000D01*
X501000D02*
X507000D01*
X501000D02*
Y216000D01*
X507000D01*
X230000Y223000D02*
Y245000D01*
X218000Y223000D02*
Y245000D01*
Y223000D02*
X230000D01*
X218000Y245000D02*
X230000D01*
X196000Y5000D02*
Y89000D01*
X704000D01*
X196000Y5000D02*
X704000D01*
Y89000D01*
X710000Y63000D02*
X728000D01*
Y31000D02*
Y63000D01*
X710000Y31000D02*
X728000D01*
X710000D02*
Y63000D01*
X249000Y223000D02*
Y245000D01*
X237000Y223000D02*
Y245000D01*
Y223000D02*
X249000D01*
X237000Y245000D02*
X249000D01*
X48000Y394000D02*
X134000D01*
X48000Y350000D02*
X134000D01*
Y387000D02*
Y394000D01*
Y350000D02*
Y357000D01*
X48000Y350000D02*
Y357000D01*
Y387000D02*
Y394000D01*
X395000Y93000D02*
Y105000D01*
X373000Y93000D02*
Y105000D01*
X395000D01*
X373000Y93000D02*
X395000D01*
X486000D02*
Y105000D01*
X508000Y93000D02*
Y105000D01*
X486000Y93000D02*
X508000D01*
X486000Y105000D02*
X508000D01*
X427000Y167000D02*
Y164334D01*
Y165667D01*
X419003D01*
X420336Y167000D01*
X203000Y109000D02*
Y112332D01*
Y110666D01*
X212997D01*
X211331Y109000D01*
X853000D02*
Y112332D01*
Y110666D01*
X862997D01*
X861331Y109000D01*
X43000Y345998D02*
X36335D01*
X39668Y349331D02*
Y342666D01*
X264000Y354000D02*
X261334D01*
X262667D01*
Y361997D01*
X264000Y360665D01*
X879000Y288000D02*
X875668D01*
X877334D01*
Y297997D01*
X879000Y296331D01*
X710000Y15000D02*
X706668D01*
X708334D01*
Y24997D01*
X710000Y23331D01*
X687000Y99664D02*
Y93000D01*
X693664Y99664D01*
X695331D01*
X696997Y97998D01*
Y94666D01*
X695331Y93000D01*
X63997Y264998D02*
Y259000D01*
X59499D01*
X60998Y261999D01*
Y263498D01*
X59499Y264998D01*
X56500D01*
X55000Y263498D01*
Y260499D01*
X56500Y259000D01*
X63997Y267997D02*
X57999D01*
X55000Y270996D01*
X57999Y273995D01*
X63997D01*
X62498Y282992D02*
X63997Y281493D01*
Y278494D01*
X62498Y276994D01*
X56500D01*
X55000Y278494D01*
Y281493D01*
X56500Y282992D01*
X62498Y291989D02*
X63997Y290490D01*
Y287491D01*
X62498Y285991D01*
X56500D01*
X55000Y287491D01*
Y290490D01*
X56500Y291989D01*
X119000Y299000D02*
Y296001D01*
Y297500D01*
X110003D01*
X111502Y299000D01*
X119000Y291502D02*
X117500D01*
Y290003D01*
X119000D01*
Y291502D01*
X111502Y284005D02*
X110003Y282505D01*
Y279506D01*
X111502Y278007D01*
X113002D01*
X114501Y279506D01*
X116001Y278007D01*
X117500D01*
X119000Y279506D01*
Y282505D01*
X117500Y284005D01*
X116001D01*
X114501Y282505D01*
X113002Y284005D01*
X111502D01*
X114501Y282505D02*
Y279506D01*
X110003Y275008D02*
X116001D01*
X119000Y272009D01*
X116001Y269010D01*
X110003D01*
X775002Y264997D02*
X781000D01*
Y260499D01*
X778001Y261998D01*
X776501D01*
X775002Y260499D01*
Y257500D01*
X776501Y256000D01*
X779501D01*
X781000Y257500D01*
X772003Y264997D02*
Y258999D01*
X769004Y256000D01*
X766005Y258999D01*
Y264997D01*
X754009D02*
Y256000D01*
Y260499D01*
X748011D01*
Y264997D01*
Y256000D01*
X745012Y264997D02*
Y256000D01*
X740513D01*
X739014Y257500D01*
Y263498D01*
X740513Y264997D01*
X745012D01*
X736015Y256000D02*
Y264997D01*
X733016Y261998D01*
X730016Y264997D01*
Y256000D01*
X727018Y264997D02*
X724018D01*
X725518D01*
Y256000D01*
X727018D01*
X724018D01*
X182000Y75998D02*
X191997D01*
X186998Y71000D01*
Y77664D01*
X190331Y80997D02*
X191997Y82663D01*
Y85995D01*
X190331Y87661D01*
X183666D01*
X182000Y85995D01*
Y82663D01*
X183666Y80997D01*
X190331D01*
X892000Y321997D02*
Y313666D01*
X890334Y312000D01*
X887002D01*
X885335Y313666D01*
Y321997D01*
X875339Y320331D02*
X877005Y321997D01*
X880337D01*
X882003Y320331D01*
Y318664D01*
X880337Y316998D01*
X877005D01*
X875339Y315332D01*
Y313666D01*
X877005Y312000D01*
X880337D01*
X882003Y313666D01*
X872006Y321997D02*
Y312000D01*
X867008D01*
X865342Y313666D01*
Y315332D01*
X867008Y316998D01*
X872006D01*
X867008D01*
X865342Y318664D01*
Y320331D01*
X867008Y321997D01*
X872006D01*
X855345Y312000D02*
X862010D01*
X855345Y318664D01*
Y320331D01*
X857011Y321997D01*
X860343D01*
X862010Y320331D01*
X852013Y312000D02*
Y313666D01*
X850347D01*
Y312000D01*
X852013D01*
X843682Y320331D02*
X842016Y321997D01*
X838684D01*
X837018Y320331D01*
Y313666D01*
X838684Y312000D01*
X842016D01*
X843682Y313666D01*
Y320331D01*
X149000Y46997D02*
Y38666D01*
X147334Y37000D01*
X144002D01*
X142336Y38666D01*
Y46997D01*
X132339Y45331D02*
X134005Y46997D01*
X137337D01*
X139003Y45331D01*
Y43664D01*
X137337Y41998D01*
X134005D01*
X132339Y40332D01*
Y38666D01*
X134005Y37000D01*
X137337D01*
X139003Y38666D01*
X129006Y46997D02*
Y37000D01*
X124008D01*
X122342Y38666D01*
Y40332D01*
X124008Y41998D01*
X129006D01*
X124008D01*
X122342Y43664D01*
Y45331D01*
X124008Y46997D01*
X129006D01*
X102348Y45331D02*
X104015Y46997D01*
X107347D01*
X109013Y45331D01*
Y43664D01*
X107347Y41998D01*
X104015D01*
X102348Y40332D01*
Y38666D01*
X104015Y37000D01*
X107347D01*
X109013Y38666D01*
X99016Y46997D02*
Y37000D01*
X92352D01*
X89019D02*
Y43664D01*
X85687Y46997D01*
X82355Y43664D01*
Y37000D01*
Y41998D01*
X89019D01*
X79022Y46997D02*
Y40332D01*
X75690Y37000D01*
X72358Y40332D01*
Y46997D01*
X62361D02*
X69026D01*
Y37000D01*
X62361D01*
X69026Y41998D02*
X65693D01*
X244000Y183498D02*
X242500Y184997D01*
X239501D01*
X238002Y183498D01*
Y181998D01*
X239501Y180499D01*
X241001D01*
X239501D01*
X238002Y178999D01*
Y177500D01*
X239501Y176000D01*
X242500D01*
X244000Y177500D01*
X235003Y176000D02*
Y177500D01*
X233503D01*
Y176000D01*
X235003D01*
X227505Y183498D02*
X226006Y184997D01*
X223007D01*
X221507Y183498D01*
Y181998D01*
X223007Y180499D01*
X224506D01*
X223007D01*
X221507Y178999D01*
Y177500D01*
X223007Y176000D01*
X226006D01*
X227505Y177500D01*
X218508Y184997D02*
Y178999D01*
X215509Y176000D01*
X212510Y178999D01*
Y184997D01*
X190331Y29000D02*
X191997Y30666D01*
Y33998D01*
X190331Y35665D01*
X188664D01*
X186998Y33998D01*
Y32332D01*
Y33998D01*
X185332Y35665D01*
X183666D01*
X182000Y33998D01*
Y30666D01*
X183666Y29000D01*
Y38997D02*
X182000Y40663D01*
Y43995D01*
X183666Y45661D01*
X190331D01*
X191997Y43995D01*
Y40663D01*
X190331Y38997D01*
X188664D01*
X186998Y40663D01*
Y45661D01*
X160002Y339997D02*
X166000D01*
Y335499D01*
X163001Y336998D01*
X161502D01*
X160002Y335499D01*
Y332500D01*
X161502Y331000D01*
X164501D01*
X166000Y332500D01*
X157003Y339997D02*
Y333999D01*
X154004Y331000D01*
X151005Y333999D01*
Y339997D01*
D73*
X530250Y215000D02*
G03*
X530250Y215000I-1250J0D01*
G01*
D95*
X839665Y23000D02*
X840997Y24333D01*
Y26999D01*
X839665Y28332D01*
X838332D01*
X836999Y26999D01*
Y25666D01*
Y26999D01*
X835666Y28332D01*
X834333D01*
X833000Y26999D01*
Y24333D01*
X834333Y23000D01*
X833000Y30997D02*
X834333D01*
Y32330D01*
X833000D01*
Y30997D01*
X839665Y37662D02*
X840997Y38995D01*
Y41661D01*
X839665Y42994D01*
X838332D01*
X836999Y41661D01*
Y40328D01*
Y41661D01*
X835666Y42994D01*
X834333D01*
X833000Y41661D01*
Y38995D01*
X834333Y37662D01*
X840997Y45659D02*
X835666D01*
X833000Y48325D01*
X835666Y50991D01*
X840997D01*
X841000Y15997D02*
Y10666D01*
X838334Y8000D01*
X835668Y10666D01*
Y15997D01*
X833003D02*
Y8000D01*
X829004D01*
X827671Y9333D01*
Y10666D01*
X829004Y11999D01*
X833003D01*
X829004D01*
X827671Y13332D01*
Y14664D01*
X829004Y15997D01*
X833003D01*
X825005Y8000D02*
Y13332D01*
X822339Y15997D01*
X819673Y13332D01*
Y8000D01*
Y11999D01*
X825005D01*
X817008Y15997D02*
X811676D01*
X814342D01*
Y8000D01*
M02*
