G04 Layer_Color=8388736*
%FSLAX44Y44*%
%MOMM*%
G71*
G01*
G75*
%ADD49C,1.3000*%
%ADD50C,3.5000*%
%ADD62C,1.5000*%
%ADD63C,1.7000*%
%ADD96R,0.6000X0.7000*%
%ADD97R,1.3000X0.9000*%
%ADD98R,1.0000X1.0000*%
G04:AMPARAMS|DCode=99|XSize=0.65mm|YSize=0.7mm|CornerRadius=0.1875mm|HoleSize=0mm|Usage=FLASHONLY|Rotation=180.000|XOffset=0mm|YOffset=0mm|HoleType=Round|Shape=RoundedRectangle|*
%AMROUNDEDRECTD99*
21,1,0.6500,0.3250,0,0,180.0*
21,1,0.2750,0.7000,0,0,180.0*
1,1,0.3750,-0.1375,0.1625*
1,1,0.3750,0.1375,0.1625*
1,1,0.3750,0.1375,-0.1625*
1,1,0.3750,-0.1375,-0.1625*
%
%ADD99ROUNDEDRECTD99*%
G04:AMPARAMS|DCode=100|XSize=0.7mm|YSize=0.5mm|CornerRadius=0.15mm|HoleSize=0mm|Usage=FLASHONLY|Rotation=90.000|XOffset=0mm|YOffset=0mm|HoleType=Round|Shape=RoundedRectangle|*
%AMROUNDEDRECTD100*
21,1,0.7000,0.2000,0,0,90.0*
21,1,0.4000,0.5000,0,0,90.0*
1,1,0.3000,0.1000,0.2000*
1,1,0.3000,0.1000,-0.2000*
1,1,0.3000,-0.1000,-0.2000*
1,1,0.3000,-0.1000,0.2000*
%
%ADD100ROUNDEDRECTD100*%
G04:AMPARAMS|DCode=101|XSize=0.7mm|YSize=0.4mm|CornerRadius=0.125mm|HoleSize=0mm|Usage=FLASHONLY|Rotation=90.000|XOffset=0mm|YOffset=0mm|HoleType=Round|Shape=RoundedRectangle|*
%AMROUNDEDRECTD101*
21,1,0.7000,0.1500,0,0,90.0*
21,1,0.4500,0.4000,0,0,90.0*
1,1,0.2500,0.0750,0.2250*
1,1,0.2500,0.0750,-0.2250*
1,1,0.2500,-0.0750,-0.2250*
1,1,0.2500,-0.0750,0.2250*
%
%ADD101ROUNDEDRECTD101*%
%ADD102R,0.7000X0.6000*%
%ADD103R,1.0000X1.2000*%
%ADD104R,1.2000X1.0000*%
G04:AMPARAMS|DCode=105|XSize=0.8mm|YSize=0.8mm|CornerRadius=0.25mm|HoleSize=0mm|Usage=FLASHONLY|Rotation=0.000|XOffset=0mm|YOffset=0mm|HoleType=Round|Shape=RoundedRectangle|*
%AMROUNDEDRECTD105*
21,1,0.8000,0.3000,0,0,0.0*
21,1,0.3000,0.8000,0,0,0.0*
1,1,0.5000,0.1500,-0.1500*
1,1,0.5000,-0.1500,-0.1500*
1,1,0.5000,-0.1500,0.1500*
1,1,0.5000,0.1500,0.1500*
%
%ADD105ROUNDEDRECTD105*%
G04:AMPARAMS|DCode=106|XSize=0.8mm|YSize=0.8mm|CornerRadius=0.25mm|HoleSize=0mm|Usage=FLASHONLY|Rotation=90.000|XOffset=0mm|YOffset=0mm|HoleType=Round|Shape=RoundedRectangle|*
%AMROUNDEDRECTD106*
21,1,0.8000,0.3000,0,0,90.0*
21,1,0.3000,0.8000,0,0,90.0*
1,1,0.5000,0.1500,0.1500*
1,1,0.5000,0.1500,-0.1500*
1,1,0.5000,-0.1500,-0.1500*
1,1,0.5000,-0.1500,0.1500*
%
%ADD106ROUNDEDRECTD106*%
%ADD107C,0.3500*%
%ADD108R,1.2000X2.0000*%
G04:AMPARAMS|DCode=109|XSize=0.7mm|YSize=0.7mm|CornerRadius=0.2mm|HoleSize=0mm|Usage=FLASHONLY|Rotation=90.000|XOffset=0mm|YOffset=0mm|HoleType=Round|Shape=RoundedRectangle|*
%AMROUNDEDRECTD109*
21,1,0.7000,0.3000,0,0,90.0*
21,1,0.3000,0.7000,0,0,90.0*
1,1,0.4000,0.1500,0.1500*
1,1,0.4000,0.1500,-0.1500*
1,1,0.4000,-0.1500,-0.1500*
1,1,0.4000,-0.1500,0.1500*
%
%ADD109ROUNDEDRECTD109*%
%ADD110R,1.0000X1.0000*%
G04:AMPARAMS|DCode=111|XSize=0.45mm|YSize=2.1mm|CornerRadius=0.1375mm|HoleSize=0mm|Usage=FLASHONLY|Rotation=0.000|XOffset=0mm|YOffset=0mm|HoleType=Round|Shape=RoundedRectangle|*
%AMROUNDEDRECTD111*
21,1,0.4500,1.8250,0,0,0.0*
21,1,0.1750,2.1000,0,0,0.0*
1,1,0.2750,0.0875,-0.9125*
1,1,0.2750,-0.0875,-0.9125*
1,1,0.2750,-0.0875,0.9125*
1,1,0.2750,0.0875,0.9125*
%
%ADD111ROUNDEDRECTD111*%
%ADD112R,4.1000X4.8000*%
%ADD113R,0.8000X1.7000*%
%ADD114R,1.1000X1.5000*%
%ADD115R,1.7000X1.5000*%
%ADD116R,1.1000X2.3000*%
%ADD117R,2.0000X1.2000*%
%ADD118R,0.9000X1.3000*%
%ADD119R,1.1000X0.6500*%
%ADD120R,1.6000X3.4000*%
G04:AMPARAMS|DCode=121|XSize=0.7mm|YSize=0.7mm|CornerRadius=0.2mm|HoleSize=0mm|Usage=FLASHONLY|Rotation=45.000|XOffset=0mm|YOffset=0mm|HoleType=Round|Shape=RoundedRectangle|*
%AMROUNDEDRECTD121*
21,1,0.7000,0.3000,0,0,45.0*
21,1,0.3000,0.7000,0,0,45.0*
1,1,0.4000,0.2121,0.0000*
1,1,0.4000,0.0000,-0.2121*
1,1,0.4000,-0.2121,0.0000*
1,1,0.4000,0.0000,0.2121*
%
%ADD121ROUNDEDRECTD121*%
%ADD122C,2.0000*%
%ADD123C,1.8000*%
%ADD124C,0.1000*%
%ADD125R,1.7000X1.7000*%
%ADD126C,3.6000*%
%ADD127C,2.4000*%
%ADD128R,2.1000X2.0000*%
%ADD129C,1.6500*%
%ADD130R,1.5000X1.5000*%
G04:AMPARAMS|DCode=131|XSize=1.5mm|YSize=2.2mm|CornerRadius=0.425mm|HoleSize=0mm|Usage=FLASHONLY|Rotation=180.000|XOffset=0mm|YOffset=0mm|HoleType=Round|Shape=RoundedRectangle|*
%AMROUNDEDRECTD131*
21,1,1.5000,1.3500,0,0,180.0*
21,1,0.6500,2.2000,0,0,180.0*
1,1,0.8500,-0.3250,0.6750*
1,1,0.8500,0.3250,0.6750*
1,1,0.8500,0.3250,-0.6750*
1,1,0.8500,-0.3250,-0.6750*
%
%ADD131ROUNDEDRECTD131*%
%ADD132C,3.1000*%
D49*
X784000Y81000D02*
D03*
D50*
X454150Y290000D02*
D03*
X339850D02*
D03*
D62*
X797000Y346500D02*
D03*
X707000D02*
D03*
X71000Y372000D02*
D03*
X91000D02*
D03*
D63*
X26000Y288000D02*
D03*
X541700Y268900D02*
D03*
X566700D02*
D03*
X586700D02*
D03*
X611700D02*
D03*
X541700Y242700D02*
D03*
X566700D02*
D03*
X586700D02*
D03*
X611700D02*
D03*
X877000Y244400D02*
D03*
Y219000D02*
D03*
D96*
X606000Y287000D02*
D03*
X593000D02*
D03*
Y306000D02*
D03*
X599500D02*
D03*
X606000D02*
D03*
X578000Y287000D02*
D03*
X565000D02*
D03*
Y306000D02*
D03*
X571500D02*
D03*
X578000D02*
D03*
D97*
X851000Y270000D02*
D03*
Y252000D02*
D03*
X823000Y26000D02*
D03*
Y44000D02*
D03*
X745000Y146000D02*
D03*
Y164000D02*
D03*
X767000Y146000D02*
D03*
Y164000D02*
D03*
X156000Y146000D02*
D03*
Y164000D02*
D03*
X235000Y221000D02*
D03*
Y239000D02*
D03*
X721500Y146000D02*
D03*
Y164000D02*
D03*
D98*
X843000Y99000D02*
D03*
Y85000D02*
D03*
X363000Y363000D02*
D03*
X349000D02*
D03*
X409000D02*
D03*
X395000D02*
D03*
X823000Y99000D02*
D03*
Y85000D02*
D03*
X786000Y19000D02*
D03*
X800000D02*
D03*
X452000Y363000D02*
D03*
X438000D02*
D03*
D99*
X691000Y17000D02*
D03*
X701000D02*
D03*
X424000Y162000D02*
D03*
X434000D02*
D03*
X593000Y223000D02*
D03*
X603000D02*
D03*
X532000Y179000D02*
D03*
X542000D02*
D03*
D100*
X253500Y230500D02*
D03*
Y239500D02*
D03*
X268500Y230500D02*
D03*
Y239500D02*
D03*
X201500Y230500D02*
D03*
Y239500D02*
D03*
X216500Y230500D02*
D03*
Y239500D02*
D03*
D101*
X258500Y230500D02*
D03*
X263500D02*
D03*
X258500Y239500D02*
D03*
X263500Y239500D02*
D03*
X206500Y230500D02*
D03*
X211500D02*
D03*
X206500Y239500D02*
D03*
X211500D02*
D03*
D102*
X53000Y217000D02*
D03*
Y204000D02*
D03*
X34000D02*
D03*
Y210500D02*
D03*
Y217000D02*
D03*
D103*
X688000Y275500D02*
D03*
X678000Y298500D02*
D03*
X698000D02*
D03*
X714000Y254500D02*
D03*
X694000Y254500D02*
D03*
X704000Y231500D02*
D03*
X29000Y94500D02*
D03*
X39000Y71500D02*
D03*
X19000D02*
D03*
X67000D02*
D03*
X57000Y94500D02*
D03*
X77000D02*
D03*
D104*
X746500Y322000D02*
D03*
X769500Y332000D02*
D03*
Y312000D02*
D03*
D105*
X689000Y328000D02*
D03*
Y318000D02*
D03*
X735000Y283000D02*
D03*
Y293000D02*
D03*
X717000Y283000D02*
D03*
Y293000D02*
D03*
X707000Y328000D02*
D03*
Y318000D02*
D03*
X671000Y155000D02*
D03*
Y145000D02*
D03*
X623000Y155000D02*
D03*
Y145000D02*
D03*
X370000Y177000D02*
D03*
Y167000D02*
D03*
X333000Y229000D02*
D03*
Y219000D02*
D03*
X475000Y182000D02*
D03*
Y172000D02*
D03*
X569000Y206000D02*
D03*
Y196000D02*
D03*
X585000Y206000D02*
D03*
Y196000D02*
D03*
X601000Y206000D02*
D03*
Y196000D02*
D03*
X751000Y10000D02*
D03*
Y20000D02*
D03*
X735000Y10000D02*
D03*
Y20000D02*
D03*
X719000Y10000D02*
D03*
Y20000D02*
D03*
X767000Y10000D02*
D03*
Y20000D02*
D03*
X862000Y100000D02*
D03*
Y90000D02*
D03*
X106000Y279000D02*
D03*
Y289000D02*
D03*
X158000Y11000D02*
D03*
Y21000D02*
D03*
X78000Y146000D02*
D03*
Y136000D02*
D03*
X493000Y201000D02*
D03*
Y211000D02*
D03*
X61000Y146000D02*
D03*
Y136000D02*
D03*
X216000Y147000D02*
D03*
Y157000D02*
D03*
X60000Y289000D02*
D03*
X60000Y279000D02*
D03*
X121000Y147000D02*
D03*
Y157000D02*
D03*
X289000Y230000D02*
D03*
Y240000D02*
D03*
X137000Y147000D02*
D03*
Y157000D02*
D03*
X234000Y157000D02*
D03*
Y147000D02*
D03*
D106*
X788000Y323000D02*
D03*
X798000D02*
D03*
X404000Y144000D02*
D03*
X414000D02*
D03*
X386000D02*
D03*
X376000D02*
D03*
X345000Y201000D02*
D03*
X335000D02*
D03*
X646000Y166000D02*
D03*
X656000D02*
D03*
X628000Y171000D02*
D03*
X618000D02*
D03*
X350000Y167000D02*
D03*
X340000D02*
D03*
X532000Y163500D02*
D03*
X542000D02*
D03*
X515000Y173000D02*
D03*
X505000D02*
D03*
X532000Y148500D02*
D03*
X542000D02*
D03*
X532000Y195000D02*
D03*
X542000D02*
D03*
X517000Y144000D02*
D03*
X507000D02*
D03*
X646000Y189000D02*
D03*
X656000D02*
D03*
X643000Y149000D02*
D03*
X653000D02*
D03*
X628000Y189000D02*
D03*
X618000D02*
D03*
X258000Y18000D02*
D03*
X248000D02*
D03*
X300000D02*
D03*
X290000D02*
D03*
X186000D02*
D03*
X176000D02*
D03*
X43000Y130000D02*
D03*
X33000D02*
D03*
Y112000D02*
D03*
X43000D02*
D03*
D107*
X721000Y309000D02*
D03*
Y313000D02*
D03*
Y317000D02*
D03*
X725000Y309000D02*
D03*
Y313000D02*
D03*
Y317000D02*
D03*
X729000Y309000D02*
D03*
Y313000D02*
D03*
Y317000D02*
D03*
D108*
X642000Y371000D02*
D03*
X672000D02*
D03*
D109*
X475000Y201000D02*
D03*
X465000D02*
D03*
D110*
X391000Y177000D02*
D03*
X405000D02*
D03*
X851000Y290000D02*
D03*
Y304000D02*
D03*
D111*
X766500Y122000D02*
D03*
X763500Y40000D02*
D03*
X760500Y122000D02*
D03*
X757500Y40000D02*
D03*
X754500Y122000D02*
D03*
X751500Y40000D02*
D03*
X748500Y122000D02*
D03*
X745500Y40000D02*
D03*
X742500Y122000D02*
D03*
X739500Y40000D02*
D03*
X736500Y122000D02*
D03*
X733500Y40000D02*
D03*
X730500Y122000D02*
D03*
X727500Y40000D02*
D03*
X724500Y122000D02*
D03*
X721500Y40000D02*
D03*
X718500Y122000D02*
D03*
X715500Y40000D02*
D03*
X712500Y122000D02*
D03*
X709500Y40000D02*
D03*
X706500Y122000D02*
D03*
X703500Y40000D02*
D03*
X700500Y122000D02*
D03*
X697500Y40000D02*
D03*
X694500Y122000D02*
D03*
X691500Y40000D02*
D03*
X688500Y122000D02*
D03*
X685500Y40000D02*
D03*
X682500Y122000D02*
D03*
X679500Y40000D02*
D03*
X676500Y122000D02*
D03*
X673500Y40000D02*
D03*
X670500Y122000D02*
D03*
X667500Y40000D02*
D03*
X664500Y122000D02*
D03*
X661500Y40000D02*
D03*
X658500Y122000D02*
D03*
X655500Y40000D02*
D03*
X652500Y122000D02*
D03*
X649500Y40000D02*
D03*
X646500Y122000D02*
D03*
X643500Y40000D02*
D03*
X640500Y122000D02*
D03*
X637500Y40000D02*
D03*
X634500Y122000D02*
D03*
X631500Y40000D02*
D03*
X628500Y122000D02*
D03*
X625500Y40000D02*
D03*
X622500Y122000D02*
D03*
X619500Y40000D02*
D03*
X616500Y122000D02*
D03*
X613500Y40000D02*
D03*
X610500Y122000D02*
D03*
X607500Y40000D02*
D03*
X604500Y122000D02*
D03*
X601500Y40000D02*
D03*
X598500Y122000D02*
D03*
X595500Y40000D02*
D03*
X592500Y122000D02*
D03*
X589500Y40000D02*
D03*
X586500Y122000D02*
D03*
X583500Y40000D02*
D03*
X580500Y122000D02*
D03*
X577500Y40000D02*
D03*
X574500Y122000D02*
D03*
X571500Y40000D02*
D03*
X568500Y122000D02*
D03*
X565500Y40000D02*
D03*
X562500Y122000D02*
D03*
X559500Y40000D02*
D03*
X556500Y122000D02*
D03*
X553500Y40000D02*
D03*
X550500Y122000D02*
D03*
X547500Y40000D02*
D03*
X544500Y122000D02*
D03*
X541500Y40000D02*
D03*
X538500Y122000D02*
D03*
X535500Y40000D02*
D03*
X532500Y122000D02*
D03*
X529500Y40000D02*
D03*
X526500Y122000D02*
D03*
X523500Y40000D02*
D03*
X520500Y122000D02*
D03*
X517500Y40000D02*
D03*
X514500Y122000D02*
D03*
X511500Y40000D02*
D03*
X508500Y122000D02*
D03*
X505500Y40000D02*
D03*
X502500Y122000D02*
D03*
X499500Y40000D02*
D03*
X496500Y122000D02*
D03*
X493500Y40000D02*
D03*
X490500Y122000D02*
D03*
X487500Y40000D02*
D03*
X484500Y122000D02*
D03*
X481500Y40000D02*
D03*
X478500Y122000D02*
D03*
X475500Y40000D02*
D03*
X472500Y122000D02*
D03*
X469500Y40000D02*
D03*
X466500Y122000D02*
D03*
X463500Y40000D02*
D03*
X460500Y122000D02*
D03*
X457500Y40000D02*
D03*
X454500Y122000D02*
D03*
X451500Y40000D02*
D03*
X448500Y122000D02*
D03*
X445500Y40000D02*
D03*
X442500Y122000D02*
D03*
X439500Y40000D02*
D03*
X436500Y122000D02*
D03*
X433500Y40000D02*
D03*
X430500Y122000D02*
D03*
X427500Y40000D02*
D03*
X424500Y122000D02*
D03*
X421500Y40000D02*
D03*
X418500Y122000D02*
D03*
X415500Y40000D02*
D03*
X412500Y122000D02*
D03*
X409500Y40000D02*
D03*
X406500Y122000D02*
D03*
X403500Y40000D02*
D03*
X400500Y122000D02*
D03*
X397500Y40000D02*
D03*
X394500Y122000D02*
D03*
X391500Y40000D02*
D03*
X388500Y122000D02*
D03*
X385500Y40000D02*
D03*
X382500Y122000D02*
D03*
X379500Y40000D02*
D03*
X376500Y122000D02*
D03*
X373500Y40000D02*
D03*
X370500Y122000D02*
D03*
X367500Y40000D02*
D03*
X364500Y122000D02*
D03*
X361500Y40000D02*
D03*
X358500Y122000D02*
D03*
X355500Y40000D02*
D03*
X352500Y122000D02*
D03*
X349500Y40000D02*
D03*
X346500Y122000D02*
D03*
X343500Y40000D02*
D03*
X340500Y122000D02*
D03*
X337500Y40000D02*
D03*
X334500Y122000D02*
D03*
X331500Y40000D02*
D03*
X328500Y122000D02*
D03*
X325500Y40000D02*
D03*
X322500Y122000D02*
D03*
X319500Y40000D02*
D03*
X316500Y122000D02*
D03*
X313500Y40000D02*
D03*
X310500Y122000D02*
D03*
X307500Y40000D02*
D03*
X304500Y122000D02*
D03*
X301500Y40000D02*
D03*
X298500Y122000D02*
D03*
X295500Y40000D02*
D03*
X292500Y122000D02*
D03*
X289500Y40000D02*
D03*
X250500Y122000D02*
D03*
X247500Y40000D02*
D03*
X244500Y122000D02*
D03*
X241500Y40000D02*
D03*
X238500Y122000D02*
D03*
X235500Y40000D02*
D03*
X232500Y122000D02*
D03*
X229500Y40000D02*
D03*
X226500Y122000D02*
D03*
X223500Y40000D02*
D03*
X220500Y122000D02*
D03*
X217500Y40000D02*
D03*
X214500Y122000D02*
D03*
X211500Y40000D02*
D03*
X208500Y122000D02*
D03*
X205500Y40000D02*
D03*
X202500Y122000D02*
D03*
X199500Y40000D02*
D03*
X196500Y122000D02*
D03*
X193500Y40000D02*
D03*
X190500Y122000D02*
D03*
X187500Y40000D02*
D03*
X184500Y122000D02*
D03*
X181500Y40000D02*
D03*
X178500Y122000D02*
D03*
X175500Y40000D02*
D03*
X172500Y122000D02*
D03*
X169500Y40000D02*
D03*
X166500Y122000D02*
D03*
X163500Y40000D02*
D03*
X160500Y122000D02*
D03*
X157500Y40000D02*
D03*
X154500Y122000D02*
D03*
X151500Y40000D02*
D03*
X148500Y122000D02*
D03*
X145500Y40000D02*
D03*
X142500Y122000D02*
D03*
X139500Y40000D02*
D03*
X136500Y122000D02*
D03*
X133500Y40000D02*
D03*
D112*
X121500Y201000D02*
D03*
X778500D02*
D03*
D113*
X288500Y262000D02*
D03*
X277500D02*
D03*
X266500D02*
D03*
X255500D02*
D03*
X244500D02*
D03*
X233500D02*
D03*
X222500D02*
D03*
X200500D02*
D03*
X211500D02*
D03*
D114*
X299500Y267000D02*
D03*
D115*
X154500D02*
D03*
D116*
X299500Y363000D02*
D03*
X146500D02*
D03*
D117*
X130000Y261000D02*
D03*
Y291000D02*
D03*
D118*
X38000Y156000D02*
D03*
X20000D02*
D03*
X534000Y215000D02*
D03*
X552000D02*
D03*
X661000Y344000D02*
D03*
X643000D02*
D03*
D119*
X836000Y138000D02*
D03*
Y119000D02*
D03*
X863000Y138000D02*
D03*
Y128500D02*
D03*
Y119000D02*
D03*
D120*
X132000Y324000D02*
D03*
X90000D02*
D03*
D121*
X473535Y224464D02*
D03*
X466465Y231535D02*
D03*
D122*
X855000Y45000D02*
D03*
D123*
X116000Y81000D02*
D03*
X81300Y18000D02*
D03*
X106700D02*
D03*
X365250Y201100D02*
D03*
X390650D02*
D03*
X416050D02*
D03*
X352550Y226500D02*
D03*
X377950D02*
D03*
X403350D02*
D03*
X428750Y226500D02*
D03*
X441450Y201100D02*
D03*
X333754Y339022D02*
D03*
X359154Y323782D02*
D03*
X434846Y339022D02*
D03*
X460246Y323782D02*
D03*
X877000Y193600D02*
D03*
D124*
X272500Y367000D02*
D03*
X192500D02*
D03*
D125*
X26000Y313000D02*
D03*
X877000Y269800D02*
D03*
D126*
X511000Y296000D02*
D03*
Y239200D02*
D03*
X642400D02*
D03*
Y296000D02*
D03*
D127*
X475740Y259520D02*
D03*
X318260D02*
D03*
D128*
X20000Y245000D02*
D03*
Y181000D02*
D03*
D129*
X47000Y238000D02*
D03*
Y188000D02*
D03*
D130*
X111000Y372000D02*
D03*
D131*
X132000D02*
D03*
X50000D02*
D03*
D132*
X25000Y25000D02*
D03*
Y375000D02*
D03*
X875000D02*
D03*
Y25000D02*
D03*
M02*
