M48
;Layer_Color=9474304
;FILE_FORMAT=4:4
METRIC,LZ
;TYPE=PLATED
T1F00S00C0.2000
T4F00S00C0.8000
T5F00S00C0.8500
T6F00S00C1.0000
T7F00S00C1.6000
T8F00S00C2.0000
T9F00S00C2.5000
%
T01
X00061Y00008
X00095Y000075
X00148Y00008
X00167Y00011
X00168Y00018
X001695Y000275
X001815
X001875
X0019375
X00194Y00018
X00209Y00021
X002235Y000275
X00234Y00021
X00269Y00018
X00275Y00021
X00272Y00035
X00298Y00025
X0031Y00023
X00335
X00349Y00018
X003495Y00028
X00376Y00018
X00386
X00412Y00023
X004215Y000275
X00425Y0002
X00437Y00024
X00463
X00488Y00025
X00513Y0002
X00539Y00021
X001515Y000275
X005475
X00564Y00021
X005897Y0002244
X00615Y00015
X00627Y00012
X00654Y0001875
Y0002425
X00676Y00026
X00679Y00019
Y000135
X00676Y00008
X00691Y00026
X00702
X00708
X00716
X00721
X00735
X00745
X00751
X00762
X00768
X00775Y0001
X00759Y0001
X00743
X00727Y0001
X00711
X00799Y00011
X00807
Y00027
X00799
X00823Y00026
Y00019
X00829
X00817
X00839Y00008
X00832Y00043
X00814Y00044
X00804Y00037
X00783Y0005
Y0005675
Y0006225
Y00069
X00772Y00075
X00752Y00074
X00731
Y00095
Y00102
X00743Y00099
X00749Y00102
X0076725Y00099
X0077275
X00779Y00099
X00785Y00104
X0079Y00095
X00808Y00093
Y000875
X00814Y0009
X00804Y00082
X00823Y00078
X00831Y00066
X00843Y00078
X00861Y00074
X00862Y00084
X00868Y001
X0089
Y00061
X00847Y00057
X00845Y00129
X00855Y00128
X00815Y00129
X007545Y00135
X00748Y00139
X00742
X0073075Y00135
X007125
X00705Y0014
X00718Y00171
X00728
X00741
X00749
X00763
X00771
X007785Y00201
X00806Y00187
X00824Y00195
Y00225
X00828Y00239
X00806
Y00225
Y00267
X00824
X00835Y00261
X00841Y00252
X00861
Y00289
X00833Y0029
Y003
X00824Y00323
X00806
X00798Y00317
X00792Y00303
X00777
X00762
X00747
X00737
X00729Y00304
X00722
X00716Y00313
X00701Y00312
X00707Y00303
Y00334
X00695
X00685Y00345
X006715Y00354
X00672Y00366
Y00376
X006925Y0038
X007325
X007775
X00795Y0039
X00825
X00839
X00833Y00355
X00806Y00353
Y00295
X0089Y00275
Y00225
Y0015
X00848Y0017
X00733Y0018
X00723
X0074Y0019
X00685Y00197
X00687Y0020375
Y0020925
X00692Y00214
X00694Y0022
Y0023
X00671
Y00237
Y00244
X00679Y00272
Y00283
Y00306
X00661Y0034
Y00348
X00644Y00344
Y00356
Y00366
Y00377
X0062
X00585
X00555
Y00318
X00585
X0062
X00602Y002135
X00593Y00214
X00585
X00563
X00557Y00228
X00561Y0019
X00571
X00581
Y0018
X00571
X00561
X00551
Y0019
Y0017
Y0016
Y0015
X00561
X00571
Y0016
Y0017
X00561
Y0016
X00581
Y0017
X00591
X00601
Y0016
X00591
Y0015
X00601
X00611
Y0016
Y0017
Y0018
X00601
X00591
Y0019
X00601
X00612
X00636
X0064Y00181
X00638Y0017
X00637Y00164
Y00149
X00636Y00139
X00643Y00138
X006585Y001345
X00659Y00149
X00656Y00174
X00662Y00178
Y00189
X0066Y00209
X00703Y00248
X00694Y00264
X00712Y00265
X00717Y00271
X00723Y00265
X0073Y00258
X00712Y00102
X00707Y00093
X0069725Y00103
X0069175
X00685Y00096
X006795
X00674Y00092
X00671Y00101
X006655
X00657
X006585Y001085
X006765
X00643Y00103
Y000975
X00636Y00107
X00629
X006225Y0010975
X00614Y00095
X00585Y00108
X005625Y001085
X00555
X005475
X00551Y0014
X00561
X00571
X00581
X00591
X005865Y00135
X00601Y0014
X00611
X00581Y0015
X005835Y000525
X005655
X006015Y00052
X006195Y000525
X00628Y000565
Y00062
X006375Y000525
X006555
X006635Y000535
X006795Y000525
X006855
X006915
X00704Y0005675
Y0006225
X00704Y00069
X007095Y000525
X007275
X007515
X00776
X0089Y00325
Y00339
X00536Y0032
X00503Y00347
Y0036
X00504Y00375
X0053Y00377
X00395Y00348
X00409Y00309
X0031Y00278
X00262Y00275
X0025Y0029
X00243Y00284
X00224Y00285
X0022Y00308
X0021
Y00318
X0022
X0023
Y00308
Y00328
X0022
X0021
Y0034
X0022
X0023
X0026175Y0032175
X0026175Y0031525
X00288Y00346
X00298
X0029Y0036
X00308
X00305Y003825
X00293Y00377
X00261Y00373
X0017Y003825
X00155Y00362
X0016Y00338
X00166
X00172
X00178
X0017825Y0032175
X0017825Y0031525
X0019Y0029
X00196Y00284
X00174Y00267
X0016Y00248
X00166Y00218
X00154
X00149Y00199
Y00185
X00147Y00171
X00154
X0017Y00174
X0019
X00185Y00197
X00196Y00225
X002115Y002215
X002065Y002155
X00226Y00221
X00244
X002585Y002235
Y002465
X002335Y002465
X00235Y0021
X00259Y00195
X00267Y0019
X0026775Y00168
X0026225
X00257Y00164
X00247Y0015775
Y0015225
X00251Y00147
X00242Y00148
X002445Y00135
X002205
X002145
X002085
X00208Y00143
X00205Y0015
X00225Y00157
X002265Y0010925
X00195Y00099
X002Y00093
X00188Y00094
X001825Y00097
X00177
X0017Y00103
X00148005Y00091995
X00162Y00075
X001635Y000535
X001575Y000555
X001755Y00054
X002055Y000525
X002175
X002295
X002355
X002415
X00234Y00065
X00221
X00209
X00197Y00066
X00191Y00073
X001905Y00135
X001725
X001545
X00278Y0016
X00274Y00167
X00279Y00172
X00296Y00188
X00306
Y00198
X00308Y00177
Y00159
X00316Y00142
X003165Y00135
X003345
X003465
X003585
X00375Y00136
X00391Y00135
X00395Y001405
Y001465
X004065Y001345
X00405Y00108
X004125Y0010875
X004185
X004245Y00109
X003885
X00379Y00108
X003705Y00109
X0036475
X00366Y00103
X003525Y001075
X00336Y00072
X003375Y000525
X003315
X003255
X003195
X003135
X003075
X0031Y00065
X00285
X00284Y00051
X00277889Y00051889
X00274Y00048
X00267Y00049
X0026Y00065
X0031Y00093
X002985Y001095
X00334Y00167
X00382Y0017
X00401Y00168
X00414Y00177
X00449Y00173
X00465Y00172
X00459Y00195
X00501Y00192
X00507Y00204
X00517Y00198
X00537Y00204
X00525Y0016375
X00513593Y00163535
X00507993
X00501Y00165
X00497Y001588
Y001532
X00501Y001485
X00497Y001438
Y001382
X00486Y001375
X004785Y00135
X0048175Y0014975
X0046Y00135
X004425
X00446Y00094
X0047Y00095
X00476Y0009875
Y0010425
X00482Y00108
X00469
X00494Y00109
X00502Y00108
X005145Y001085
X00522Y00108
X005235Y0013525
X005245Y001485
X00497Y00172
X00492Y00093
X00501Y0008925
Y0008375
X00501Y00067
X00488Y00064
X004935Y000525
X005115
X005295
X00528Y00072
X00476Y0007275
Y0007825
X004627Y0007174
X004575Y000525
X004755
X004395
X004155
X004035
X003855Y00053
X003735
X003675
X003555Y000525
X00386Y0007
X00412
X00298Y0022
X00288
X00196Y00245
X0017825Y0035425
X001465Y003765
X00085Y0039
X00048
X00052Y00342
X0004Y0033
X00075Y00334
Y00324
X00104Y00328
Y00336
Y0032
Y00312
X00095Y00291
X00088
X00081
X00074
X0006Y00297
Y00272
X00106Y00273
X00116Y00261
X00127Y00269
X0013Y00248
X00145
Y00218
X00135
X00122
X00088Y00202
Y00175
X00121Y00167
X00137
X00131Y0014
X00121
X00145
X00144116Y00095884
X00142Y0009
X00143Y00075
X00135Y00065
X001335Y000525
X00125Y00058
X00127Y00092
X0012275Y00097
X0011725
X0011Y00097
X00105Y00104
Y00129
X00095Y0013
X00085
X00075
X00065
X00043Y00121
X00027Y0013
Y00112
X00017Y00095
X0001Y001
Y00061
X00028Y0007
X00045Y00095
X00057Y00102
X00059Y00082
X00075Y0007
X0009Y00067
X00135Y00099
X00045Y00153
Y00159
X00038Y00147
X00013Y00152
Y0016
X0001Y00145
X0002Y00203
Y00223
X00057Y00226
X00063
X00064Y00217
X00058Y002125
Y00207
X00063Y00199
X0001Y00265
Y003
Y0034
X00065Y00355
T04
X00071Y00372
X00091
X00111
T05
X00047Y00188
Y00238
T06
X000813Y00018
X001067
X005667Y002427
X005867
X006117
Y002689
X005867
X005667
X00877Y002698
Y002444
Y00219
Y001936
X005417Y002427
Y002689
X00460246Y00323782
X00434846Y00339022
X00359154Y00323782
X00333754Y00339022
X0035255Y002265
X0037795
X0040335
X0042875Y002265
X0041605Y002011
X0039065
X0036525
X0044145
X00026Y00288
Y00313
T07
X0031826Y0025952
X0047574
T08
X00025Y00025
X00875
Y00375
X00025
T09
X006424Y002392
Y00296
X00511
Y002392
M30
