G04 Layer_Physical_Order=1*
G04 Layer_Color=48896*
%FSLAX44Y44*%
%MOMM*%
G71*
G01*
G75*
%ADD10R,0.4000X0.5000*%
%ADD11R,1.2000X0.8000*%
%ADD12R,0.8000X0.8000*%
G04:AMPARAMS|DCode=13|XSize=0.55mm|YSize=0.6mm|CornerRadius=0.1375mm|HoleSize=0mm|Usage=FLASHONLY|Rotation=180.000|XOffset=0mm|YOffset=0mm|HoleType=Round|Shape=RoundedRectangle|*
%AMROUNDEDRECTD13*
21,1,0.5500,0.3250,0,0,180.0*
21,1,0.2750,0.6000,0,0,180.0*
1,1,0.2750,-0.1375,0.1625*
1,1,0.2750,0.1375,0.1625*
1,1,0.2750,0.1375,-0.1625*
1,1,0.2750,-0.1375,-0.1625*
%
%ADD13ROUNDEDRECTD13*%
G04:AMPARAMS|DCode=14|XSize=0.6mm|YSize=0.4mm|CornerRadius=0.1mm|HoleSize=0mm|Usage=FLASHONLY|Rotation=90.000|XOffset=0mm|YOffset=0mm|HoleType=Round|Shape=RoundedRectangle|*
%AMROUNDEDRECTD14*
21,1,0.6000,0.2000,0,0,90.0*
21,1,0.4000,0.4000,0,0,90.0*
1,1,0.2000,0.1000,0.2000*
1,1,0.2000,0.1000,-0.2000*
1,1,0.2000,-0.1000,-0.2000*
1,1,0.2000,-0.1000,0.2000*
%
%ADD14ROUNDEDRECTD14*%
G04:AMPARAMS|DCode=15|XSize=0.6mm|YSize=0.3mm|CornerRadius=0.075mm|HoleSize=0mm|Usage=FLASHONLY|Rotation=90.000|XOffset=0mm|YOffset=0mm|HoleType=Round|Shape=RoundedRectangle|*
%AMROUNDEDRECTD15*
21,1,0.6000,0.1500,0,0,90.0*
21,1,0.4500,0.3000,0,0,90.0*
1,1,0.1500,0.0750,0.2250*
1,1,0.1500,0.0750,-0.2250*
1,1,0.1500,-0.0750,-0.2250*
1,1,0.1500,-0.0750,0.2250*
%
%ADD15ROUNDEDRECTD15*%
%ADD16R,0.5000X0.4000*%
%ADD17R,0.8000X1.0000*%
%ADD18R,1.0000X0.8000*%
G04:AMPARAMS|DCode=19|XSize=0.6mm|YSize=0.6mm|CornerRadius=0.15mm|HoleSize=0mm|Usage=FLASHONLY|Rotation=0.000|XOffset=0mm|YOffset=0mm|HoleType=Round|Shape=RoundedRectangle|*
%AMROUNDEDRECTD19*
21,1,0.6000,0.3000,0,0,0.0*
21,1,0.3000,0.6000,0,0,0.0*
1,1,0.3000,0.1500,-0.1500*
1,1,0.3000,-0.1500,-0.1500*
1,1,0.3000,-0.1500,0.1500*
1,1,0.3000,0.1500,0.1500*
%
%ADD19ROUNDEDRECTD19*%
G04:AMPARAMS|DCode=20|XSize=0.6mm|YSize=0.6mm|CornerRadius=0.15mm|HoleSize=0mm|Usage=FLASHONLY|Rotation=90.000|XOffset=0mm|YOffset=0mm|HoleType=Round|Shape=RoundedRectangle|*
%AMROUNDEDRECTD20*
21,1,0.6000,0.3000,0,0,90.0*
21,1,0.3000,0.6000,0,0,90.0*
1,1,0.3000,0.1500,0.1500*
1,1,0.3000,0.1500,-0.1500*
1,1,0.3000,-0.1500,-0.1500*
1,1,0.3000,-0.1500,0.1500*
%
%ADD20ROUNDEDRECTD20*%
%ADD21C,0.2500*%
%ADD22R,1.0000X1.8000*%
%ADD23R,0.8000X0.8000*%
G04:AMPARAMS|DCode=24|XSize=0.35mm|YSize=2mm|CornerRadius=0.0875mm|HoleSize=0mm|Usage=FLASHONLY|Rotation=0.000|XOffset=0mm|YOffset=0mm|HoleType=Round|Shape=RoundedRectangle|*
%AMROUNDEDRECTD24*
21,1,0.3500,1.8250,0,0,0.0*
21,1,0.1750,2.0000,0,0,0.0*
1,1,0.1750,0.0875,-0.9125*
1,1,0.1750,-0.0875,-0.9125*
1,1,0.1750,-0.0875,0.9125*
1,1,0.1750,0.0875,0.9125*
%
%ADD24ROUNDEDRECTD24*%
%ADD25R,3.9000X4.6000*%
%ADD26R,0.7000X1.6000*%
%ADD27R,1.0000X1.4000*%
%ADD28R,1.6000X1.4000*%
%ADD29R,1.0000X2.2000*%
%ADD30R,1.8000X1.0000*%
%ADD31R,0.8000X1.2000*%
%ADD32R,1.0000X0.5500*%
%ADD33R,1.4000X3.2000*%
G04:AMPARAMS|DCode=34|XSize=0.6mm|YSize=0.6mm|CornerRadius=0.15mm|HoleSize=0mm|Usage=FLASHONLY|Rotation=45.000|XOffset=0mm|YOffset=0mm|HoleType=Round|Shape=RoundedRectangle|*
%AMROUNDEDRECTD34*
21,1,0.6000,0.3000,0,0,45.0*
21,1,0.3000,0.6000,0,0,45.0*
1,1,0.3000,0.2121,0.0000*
1,1,0.3000,0.0000,-0.2121*
1,1,0.3000,-0.2121,0.0000*
1,1,0.3000,0.0000,0.2121*
%
%ADD34ROUNDEDRECTD34*%
%ADD35C,1.0000*%
%ADD36C,0.3500*%
%ADD37C,0.4000*%
%ADD38C,0.1400*%
%ADD39C,0.1500*%
%ADD40C,0.3000*%
%ADD41C,0.5000*%
%ADD42C,0.2000*%
%ADD43C,1.0000*%
%ADD44C,0.8000*%
%ADD45C,0.9500*%
%ADD46C,1.6000*%
%ADD47C,1.1000*%
%ADD48R,1.6000X1.6000*%
%ADD49C,1.3000*%
%ADD50C,3.5000*%
%ADD51C,3.3000*%
%ADD52C,2.2000*%
%ADD53R,1.9000X1.8000*%
%ADD54C,1.4500*%
%ADD55C,1.4000*%
%ADD56R,1.4000X1.4000*%
G04:AMPARAMS|DCode=57|XSize=1.3mm|YSize=2mm|CornerRadius=0.325mm|HoleSize=0mm|Usage=FLASHONLY|Rotation=180.000|XOffset=0mm|YOffset=0mm|HoleType=Round|Shape=RoundedRectangle|*
%AMROUNDEDRECTD57*
21,1,1.3000,1.3500,0,0,180.0*
21,1,0.6500,2.0000,0,0,180.0*
1,1,0.6500,-0.3250,0.6750*
1,1,0.6500,0.3250,0.6750*
1,1,0.6500,0.3250,-0.6750*
1,1,0.6500,-0.3250,-0.6750*
%
%ADD57ROUNDEDRECTD57*%
%ADD58C,3.0000*%
%ADD59C,0.4000*%
G36*
X99000Y363000D02*
X103000Y359000D01*
X122000D01*
X139000Y342000D01*
Y333000D01*
Y286000D01*
X71000D01*
Y296000D01*
X125000D01*
Y340000D01*
X115000Y350000D01*
X93000D01*
X83000Y360000D01*
Y382000D01*
X99000D01*
Y363000D01*
D02*
G37*
G36*
X79000Y359000D02*
X60000Y340000D01*
X36000Y316000D01*
Y303000D01*
X15000D01*
Y323000D01*
X24000D01*
X31000Y330000D01*
X61000Y360000D01*
Y382000D01*
X79000D01*
Y359000D01*
D02*
G37*
G36*
X109000Y337000D02*
Y308000D01*
X83000D01*
Y340000D01*
X109000D01*
Y337000D01*
D02*
G37*
G36*
X751000Y135875D02*
X750250Y135125D01*
X750000Y112000D01*
X740750D01*
Y135000D01*
X739000Y136750D01*
X739000Y149102D01*
X739898Y150000D01*
X751000D01*
X751000Y135875D01*
D02*
G37*
G36*
X774000Y160000D02*
X715000D01*
Y175000D01*
X774000D01*
Y160000D01*
D02*
G37*
G36*
X35000Y230000D02*
X28000Y223000D01*
Y216000D01*
Y212000D01*
X34000D01*
Y209000D01*
X28000D01*
Y200000D01*
X34000Y194000D01*
Y168000D01*
X31000Y165000D01*
X25000D01*
Y165000D01*
X21500D01*
Y156000D01*
X20000D01*
Y154500D01*
X13000D01*
Y150000D01*
X5000D01*
Y260000D01*
X35000D01*
Y230000D01*
D02*
G37*
G36*
X773000Y142000D02*
X769000Y138000D01*
X769000Y112000D01*
X758750D01*
Y150000D01*
X773000D01*
Y142000D01*
D02*
G37*
G36*
X634000Y372500D02*
X642000D01*
Y371000D01*
X643500D01*
Y359000D01*
X650000D01*
Y354270D01*
X650000Y353000D01*
X648730Y353000D01*
X644500D01*
Y344000D01*
Y335000D01*
X650000Y335000D01*
X650000Y333730D01*
Y316183D01*
X648980Y315426D01*
X646419Y316203D01*
X643900Y316451D01*
Y296000D01*
X640900D01*
Y316451D01*
X638381Y316203D01*
X634517Y315031D01*
X634459Y315000D01*
X518941D01*
X518883Y315031D01*
X515019Y316203D01*
X512500Y316451D01*
Y296000D01*
X509500D01*
Y316451D01*
X506981Y316203D01*
X503117Y315031D01*
X503059Y315000D01*
X500000D01*
Y380000D01*
X634000D01*
Y372500D01*
D02*
G37*
G36*
X747250Y29750D02*
X749000Y28000D01*
X753000D01*
X754000Y27000D01*
Y17000D01*
X744898D01*
X744000Y17898D01*
X744000Y23000D01*
X737750Y29250D01*
X737750Y30250D01*
Y51000D01*
X747250D01*
Y29750D01*
D02*
G37*
G36*
X723250Y17000D02*
X713750D01*
Y51000D01*
X723250D01*
Y17000D01*
D02*
G37*
G36*
X832000Y15000D02*
X814000D01*
Y30000D01*
X832000D01*
Y15000D01*
D02*
G37*
G36*
X771000Y30000D02*
Y17000D01*
X761000D01*
Y24000D01*
X755750Y29250D01*
Y51000D01*
X771000D01*
Y30000D01*
D02*
G37*
G36*
X301000Y332000D02*
X158000D01*
Y345000D01*
X180000D01*
X184000Y349000D01*
X301000D01*
Y332000D01*
D02*
G37*
G36*
X726250Y112000D02*
X716750D01*
Y150000D01*
X726250D01*
Y112000D01*
D02*
G37*
G36*
X162000Y142000D02*
X161000Y141000D01*
X152000D01*
X150250Y139250D01*
Y111000D01*
X140750D01*
Y137000D01*
X118000D01*
Y150000D01*
X162000D01*
Y142000D01*
D02*
G37*
%LPC*%
G36*
X18500Y179500D02*
X7500D01*
Y169000D01*
X18500D01*
Y179500D01*
D02*
G37*
G36*
X18500Y165000D02*
X13000D01*
Y157500D01*
X18500D01*
Y165000D01*
D02*
G37*
G36*
X32500Y179500D02*
X21500D01*
Y169000D01*
X32500D01*
Y179500D01*
D02*
G37*
G36*
X220000Y343569D02*
X218634Y343297D01*
X217477Y342523D01*
X216703Y341366D01*
X216431Y340000D01*
X216703Y338634D01*
X217477Y337477D01*
X218634Y336703D01*
X220000Y336431D01*
X221366Y336703D01*
X222523Y337477D01*
X223297Y338634D01*
X223569Y340000D01*
X223297Y341366D01*
X222523Y342523D01*
X221366Y343297D01*
X220000Y343569D01*
D02*
G37*
G36*
X210000D02*
X208634Y343297D01*
X207477Y342523D01*
X206703Y341366D01*
X206431Y340000D01*
X206703Y338634D01*
X207477Y337477D01*
X208634Y336703D01*
X210000Y336431D01*
X211366Y336703D01*
X212523Y337477D01*
X213297Y338634D01*
X213569Y340000D01*
X213297Y341366D01*
X212523Y342523D01*
X211366Y343297D01*
X210000Y343569D01*
D02*
G37*
G36*
X641500Y342500D02*
X636000D01*
Y335000D01*
X641500D01*
Y342500D01*
D02*
G37*
G36*
X640500Y369500D02*
X634000D01*
Y359000D01*
X640500D01*
Y369500D01*
D02*
G37*
G36*
X641500Y353000D02*
X636000D01*
Y345500D01*
X641500D01*
Y353000D01*
D02*
G37*
G36*
X230000Y343569D02*
X228634Y343297D01*
X227477Y342523D01*
X226703Y341366D01*
X226431Y340000D01*
X226703Y338634D01*
X227477Y337477D01*
X228634Y336703D01*
X230000Y336431D01*
X231366Y336703D01*
X232523Y337477D01*
X233297Y338634D01*
X233569Y340000D01*
X233297Y341366D01*
X232523Y342523D01*
X231366Y343297D01*
X230000Y343569D01*
D02*
G37*
G36*
X18500Y243500D02*
X7500D01*
Y233000D01*
X18500D01*
Y243500D01*
D02*
G37*
G36*
X32500Y193000D02*
X21500D01*
Y182500D01*
X32500D01*
Y193000D01*
D02*
G37*
G36*
X18500D02*
X7500D01*
Y182500D01*
X18500D01*
Y193000D01*
D02*
G37*
G36*
X32500Y257000D02*
X21500D01*
Y246500D01*
X32500D01*
Y257000D01*
D02*
G37*
G36*
X18500D02*
X7500D01*
Y246500D01*
X18500D01*
Y257000D01*
D02*
G37*
G36*
X32500Y243500D02*
X21500D01*
Y233000D01*
X32500D01*
Y243500D01*
D02*
G37*
%LPD*%
D10*
X606000Y287000D02*
D03*
X593000D02*
D03*
Y306000D02*
D03*
X599500D02*
D03*
X606000D02*
D03*
X578000Y287000D02*
D03*
X565000D02*
D03*
Y306000D02*
D03*
X571500D02*
D03*
X578000D02*
D03*
D11*
X851000Y270000D02*
D03*
Y252000D02*
D03*
X823000Y26000D02*
D03*
Y44000D02*
D03*
X745000Y146000D02*
D03*
Y164000D02*
D03*
X767000Y146000D02*
D03*
Y164000D02*
D03*
X156000Y146000D02*
D03*
Y164000D02*
D03*
X235000Y221000D02*
D03*
Y239000D02*
D03*
X721500Y146000D02*
D03*
Y164000D02*
D03*
D12*
X843000Y99000D02*
D03*
Y85000D02*
D03*
X363000Y363000D02*
D03*
X349000D02*
D03*
X409000D02*
D03*
X395000D02*
D03*
X823000Y99000D02*
D03*
Y85000D02*
D03*
X786000Y19000D02*
D03*
X800000D02*
D03*
X452000Y363000D02*
D03*
X438000D02*
D03*
D13*
X691000Y17000D02*
D03*
X701000D02*
D03*
X424000Y162000D02*
D03*
X434000D02*
D03*
X593000Y223000D02*
D03*
X603000D02*
D03*
X532000Y179000D02*
D03*
X542000D02*
D03*
D14*
X253500Y230500D02*
D03*
Y239500D02*
D03*
X268500Y230500D02*
D03*
Y239500D02*
D03*
X201500Y230500D02*
D03*
Y239500D02*
D03*
X216500Y230500D02*
D03*
Y239500D02*
D03*
D15*
X258500Y230500D02*
D03*
X263500D02*
D03*
X258500Y239500D02*
D03*
X263500Y239500D02*
D03*
X206500Y230500D02*
D03*
X211500D02*
D03*
X206500Y239500D02*
D03*
X211500D02*
D03*
D16*
X53000Y217000D02*
D03*
Y204000D02*
D03*
X34000D02*
D03*
Y210500D02*
D03*
Y217000D02*
D03*
D17*
X688000Y275500D02*
D03*
X678000Y298500D02*
D03*
X698000D02*
D03*
X714000Y254500D02*
D03*
X694000Y254500D02*
D03*
X704000Y231500D02*
D03*
X29000Y94500D02*
D03*
X39000Y71500D02*
D03*
X19000D02*
D03*
X67000D02*
D03*
X57000Y94500D02*
D03*
X77000D02*
D03*
D18*
X746500Y322000D02*
D03*
X769500Y332000D02*
D03*
Y312000D02*
D03*
D19*
X689000Y328000D02*
D03*
Y318000D02*
D03*
X735000Y283000D02*
D03*
Y293000D02*
D03*
X717000Y283000D02*
D03*
Y293000D02*
D03*
X707000Y328000D02*
D03*
Y318000D02*
D03*
X671000Y155000D02*
D03*
Y145000D02*
D03*
X623000Y155000D02*
D03*
Y145000D02*
D03*
X370000Y177000D02*
D03*
Y167000D02*
D03*
X333000Y229000D02*
D03*
Y219000D02*
D03*
X475000Y182000D02*
D03*
Y172000D02*
D03*
X569000Y206000D02*
D03*
Y196000D02*
D03*
X585000Y206000D02*
D03*
Y196000D02*
D03*
X601000Y206000D02*
D03*
Y196000D02*
D03*
X751000Y10000D02*
D03*
Y20000D02*
D03*
X735000Y10000D02*
D03*
Y20000D02*
D03*
X719000Y10000D02*
D03*
Y20000D02*
D03*
X767000Y10000D02*
D03*
Y20000D02*
D03*
X862000Y100000D02*
D03*
Y90000D02*
D03*
X106000Y279000D02*
D03*
Y289000D02*
D03*
X158000Y11000D02*
D03*
Y21000D02*
D03*
X78000Y146000D02*
D03*
Y136000D02*
D03*
X493000Y201000D02*
D03*
Y211000D02*
D03*
X61000Y146000D02*
D03*
Y136000D02*
D03*
X216000Y147000D02*
D03*
Y157000D02*
D03*
X60000Y289000D02*
D03*
X60000Y279000D02*
D03*
X121000Y147000D02*
D03*
Y157000D02*
D03*
X289000Y230000D02*
D03*
Y240000D02*
D03*
X137000Y147000D02*
D03*
Y157000D02*
D03*
X234000Y157000D02*
D03*
Y147000D02*
D03*
D20*
X788000Y323000D02*
D03*
X798000D02*
D03*
X404000Y144000D02*
D03*
X414000D02*
D03*
X386000D02*
D03*
X376000D02*
D03*
X345000Y201000D02*
D03*
X335000D02*
D03*
X646000Y166000D02*
D03*
X656000D02*
D03*
X628000Y171000D02*
D03*
X618000D02*
D03*
X475000Y201000D02*
D03*
X465000D02*
D03*
X350000Y167000D02*
D03*
X340000D02*
D03*
X532000Y163500D02*
D03*
X542000D02*
D03*
X515000Y173000D02*
D03*
X505000D02*
D03*
X532000Y148500D02*
D03*
X542000D02*
D03*
X532000Y195000D02*
D03*
X542000D02*
D03*
X517000Y144000D02*
D03*
X507000D02*
D03*
X646000Y189000D02*
D03*
X656000D02*
D03*
X643000Y149000D02*
D03*
X653000D02*
D03*
X628000Y189000D02*
D03*
X618000D02*
D03*
X258000Y18000D02*
D03*
X248000D02*
D03*
X300000D02*
D03*
X290000D02*
D03*
X186000D02*
D03*
X176000D02*
D03*
X43000Y130000D02*
D03*
X33000D02*
D03*
Y112000D02*
D03*
X43000D02*
D03*
D21*
X721000Y309000D02*
D03*
Y313000D02*
D03*
Y317000D02*
D03*
X725000Y309000D02*
D03*
Y313000D02*
D03*
Y317000D02*
D03*
X729000Y309000D02*
D03*
Y313000D02*
D03*
Y317000D02*
D03*
D22*
X642000Y371000D02*
D03*
X672000D02*
D03*
D23*
X391000Y177000D02*
D03*
X405000D02*
D03*
X851000Y290000D02*
D03*
Y304000D02*
D03*
D24*
X766500Y122000D02*
D03*
X763500Y40000D02*
D03*
X760500Y122000D02*
D03*
X757500Y40000D02*
D03*
X754500Y122000D02*
D03*
X751500Y40000D02*
D03*
X748500Y122000D02*
D03*
X745500Y40000D02*
D03*
X742500Y122000D02*
D03*
X739500Y40000D02*
D03*
X736500Y122000D02*
D03*
X733500Y40000D02*
D03*
X730500Y122000D02*
D03*
X727500Y40000D02*
D03*
X724500Y122000D02*
D03*
X721500Y40000D02*
D03*
X718500Y122000D02*
D03*
X715500Y40000D02*
D03*
X712500Y122000D02*
D03*
X709500Y40000D02*
D03*
X706500Y122000D02*
D03*
X703500Y40000D02*
D03*
X700500Y122000D02*
D03*
X697500Y40000D02*
D03*
X694500Y122000D02*
D03*
X691500Y40000D02*
D03*
X688500Y122000D02*
D03*
X685500Y40000D02*
D03*
X682500Y122000D02*
D03*
X679500Y40000D02*
D03*
X676500Y122000D02*
D03*
X673500Y40000D02*
D03*
X670500Y122000D02*
D03*
X667500Y40000D02*
D03*
X664500Y122000D02*
D03*
X661500Y40000D02*
D03*
X658500Y122000D02*
D03*
X655500Y40000D02*
D03*
X652500Y122000D02*
D03*
X649500Y40000D02*
D03*
X646500Y122000D02*
D03*
X643500Y40000D02*
D03*
X640500Y122000D02*
D03*
X637500Y40000D02*
D03*
X634500Y122000D02*
D03*
X631500Y40000D02*
D03*
X628500Y122000D02*
D03*
X625500Y40000D02*
D03*
X622500Y122000D02*
D03*
X619500Y40000D02*
D03*
X616500Y122000D02*
D03*
X613500Y40000D02*
D03*
X610500Y122000D02*
D03*
X607500Y40000D02*
D03*
X604500Y122000D02*
D03*
X601500Y40000D02*
D03*
X598500Y122000D02*
D03*
X595500Y40000D02*
D03*
X592500Y122000D02*
D03*
X589500Y40000D02*
D03*
X586500Y122000D02*
D03*
X583500Y40000D02*
D03*
X580500Y122000D02*
D03*
X577500Y40000D02*
D03*
X574500Y122000D02*
D03*
X571500Y40000D02*
D03*
X568500Y122000D02*
D03*
X565500Y40000D02*
D03*
X562500Y122000D02*
D03*
X559500Y40000D02*
D03*
X556500Y122000D02*
D03*
X553500Y40000D02*
D03*
X550500Y122000D02*
D03*
X547500Y40000D02*
D03*
X544500Y122000D02*
D03*
X541500Y40000D02*
D03*
X538500Y122000D02*
D03*
X535500Y40000D02*
D03*
X532500Y122000D02*
D03*
X529500Y40000D02*
D03*
X526500Y122000D02*
D03*
X523500Y40000D02*
D03*
X520500Y122000D02*
D03*
X517500Y40000D02*
D03*
X514500Y122000D02*
D03*
X511500Y40000D02*
D03*
X508500Y122000D02*
D03*
X505500Y40000D02*
D03*
X502500Y122000D02*
D03*
X499500Y40000D02*
D03*
X496500Y122000D02*
D03*
X493500Y40000D02*
D03*
X490500Y122000D02*
D03*
X487500Y40000D02*
D03*
X484500Y122000D02*
D03*
X481500Y40000D02*
D03*
X478500Y122000D02*
D03*
X475500Y40000D02*
D03*
X472500Y122000D02*
D03*
X469500Y40000D02*
D03*
X466500Y122000D02*
D03*
X463500Y40000D02*
D03*
X460500Y122000D02*
D03*
X457500Y40000D02*
D03*
X454500Y122000D02*
D03*
X451500Y40000D02*
D03*
X448500Y122000D02*
D03*
X445500Y40000D02*
D03*
X442500Y122000D02*
D03*
X439500Y40000D02*
D03*
X436500Y122000D02*
D03*
X433500Y40000D02*
D03*
X430500Y122000D02*
D03*
X427500Y40000D02*
D03*
X424500Y122000D02*
D03*
X421500Y40000D02*
D03*
X418500Y122000D02*
D03*
X415500Y40000D02*
D03*
X412500Y122000D02*
D03*
X409500Y40000D02*
D03*
X406500Y122000D02*
D03*
X403500Y40000D02*
D03*
X400500Y122000D02*
D03*
X397500Y40000D02*
D03*
X394500Y122000D02*
D03*
X391500Y40000D02*
D03*
X388500Y122000D02*
D03*
X385500Y40000D02*
D03*
X382500Y122000D02*
D03*
X379500Y40000D02*
D03*
X376500Y122000D02*
D03*
X373500Y40000D02*
D03*
X370500Y122000D02*
D03*
X367500Y40000D02*
D03*
X364500Y122000D02*
D03*
X361500Y40000D02*
D03*
X358500Y122000D02*
D03*
X355500Y40000D02*
D03*
X352500Y122000D02*
D03*
X349500Y40000D02*
D03*
X346500Y122000D02*
D03*
X343500Y40000D02*
D03*
X340500Y122000D02*
D03*
X337500Y40000D02*
D03*
X334500Y122000D02*
D03*
X331500Y40000D02*
D03*
X328500Y122000D02*
D03*
X325500Y40000D02*
D03*
X322500Y122000D02*
D03*
X319500Y40000D02*
D03*
X316500Y122000D02*
D03*
X313500Y40000D02*
D03*
X310500Y122000D02*
D03*
X307500Y40000D02*
D03*
X304500Y122000D02*
D03*
X301500Y40000D02*
D03*
X298500Y122000D02*
D03*
X295500Y40000D02*
D03*
X292500Y122000D02*
D03*
X289500Y40000D02*
D03*
X250500Y122000D02*
D03*
X247500Y40000D02*
D03*
X244500Y122000D02*
D03*
X241500Y40000D02*
D03*
X238500Y122000D02*
D03*
X235500Y40000D02*
D03*
X232500Y122000D02*
D03*
X229500Y40000D02*
D03*
X226500Y122000D02*
D03*
X223500Y40000D02*
D03*
X220500Y122000D02*
D03*
X217500Y40000D02*
D03*
X214500Y122000D02*
D03*
X211500Y40000D02*
D03*
X208500Y122000D02*
D03*
X205500Y40000D02*
D03*
X202500Y122000D02*
D03*
X199500Y40000D02*
D03*
X196500Y122000D02*
D03*
X193500Y40000D02*
D03*
X190500Y122000D02*
D03*
X187500Y40000D02*
D03*
X184500Y122000D02*
D03*
X181500Y40000D02*
D03*
X178500Y122000D02*
D03*
X175500Y40000D02*
D03*
X172500Y122000D02*
D03*
X169500Y40000D02*
D03*
X166500Y122000D02*
D03*
X163500Y40000D02*
D03*
X160500Y122000D02*
D03*
X157500Y40000D02*
D03*
X154500Y122000D02*
D03*
X151500Y40000D02*
D03*
X148500Y122000D02*
D03*
X145500Y40000D02*
D03*
X142500Y122000D02*
D03*
X139500Y40000D02*
D03*
X136500Y122000D02*
D03*
X133500Y40000D02*
D03*
D25*
X121500Y201000D02*
D03*
X778500D02*
D03*
D26*
X288500Y262000D02*
D03*
X277500D02*
D03*
X266500D02*
D03*
X255500D02*
D03*
X244500D02*
D03*
X233500D02*
D03*
X222500D02*
D03*
X200500D02*
D03*
X211500D02*
D03*
D27*
X299500Y267000D02*
D03*
D28*
X154500D02*
D03*
D29*
X299500Y363000D02*
D03*
X146500D02*
D03*
D30*
X130000Y261000D02*
D03*
Y291000D02*
D03*
D31*
X38000Y156000D02*
D03*
X20000D02*
D03*
X534000Y215000D02*
D03*
X552000D02*
D03*
X661000Y344000D02*
D03*
X643000D02*
D03*
D32*
X836000Y138000D02*
D03*
Y119000D02*
D03*
X863000Y138000D02*
D03*
Y128500D02*
D03*
Y119000D02*
D03*
D33*
X132000Y324000D02*
D03*
X90000D02*
D03*
D34*
X473535Y224464D02*
D03*
X466465Y231535D02*
D03*
D35*
X855000Y45000D02*
D03*
D36*
X349500Y28000D02*
X349500Y28000D01*
X349500Y28000D02*
Y40000D01*
X503000Y172750D02*
X505000Y173000D01*
X388500Y109000D02*
Y122000D01*
Y132500D01*
X391000Y135000D01*
X730500D02*
X730750D01*
X730500Y135000D02*
X730500Y135000D01*
X385500Y40000D02*
Y53000D01*
X367500Y40000D02*
Y53000D01*
X154000Y166000D02*
X156000Y164000D01*
X154000Y166000D02*
Y171000D01*
X547000Y190000D02*
X551000D01*
X542000Y195000D02*
X547000Y190000D01*
X550000Y179000D02*
X551000Y180000D01*
X542000Y179000D02*
X550000D01*
X612000Y190000D02*
X613000Y189000D01*
X618000D01*
X656000D02*
X662000D01*
X611700Y231700D02*
Y242700D01*
X603000Y223000D02*
X611700Y231700D01*
X537000Y140000D02*
X551000D01*
X532500Y135500D02*
X537000Y140000D01*
X532500Y122000D02*
Y135500D01*
X501000Y148500D02*
X502500D01*
X507000Y144000D01*
X405000Y108000D02*
X406500Y109500D01*
Y122000D01*
X658500Y108500D02*
Y122000D01*
Y134500D01*
X601000Y140000D02*
X604500Y136500D01*
Y122000D02*
Y136500D01*
X586500Y122000D02*
Y135000D01*
X226500Y109250D02*
Y122000D01*
X352500Y107500D02*
X352500Y107500D01*
X352500Y107500D02*
Y122000D01*
X147000Y171000D02*
X154000Y164000D01*
X156000D01*
X547500Y27500D02*
Y40000D01*
X137000Y157000D02*
Y167000D01*
X121000Y157000D02*
Y167000D01*
X247500Y49500D02*
X250500Y52500D01*
X247500Y40000D02*
Y49500D01*
X514500Y122000D02*
X514500Y122000D01*
Y108500D02*
Y122000D01*
X250500Y52500D02*
Y122000D01*
X743000Y65000D02*
Y99000D01*
X733500Y55500D02*
X743000Y65000D01*
X733500Y40000D02*
Y55500D01*
X736500Y105500D02*
X743000Y99000D01*
X736500Y105500D02*
Y122000D01*
X719000Y26000D02*
X721000D01*
X719000Y26000D02*
X719000Y26000D01*
X719000Y20000D02*
Y26000D01*
X735000Y20000D02*
Y26000D01*
X759000Y10000D02*
X767000D01*
X751000D02*
X759000D01*
X733500Y27500D02*
X735000Y26000D01*
X733500Y27500D02*
Y40000D01*
X767000Y10000D02*
X767000Y10000D01*
X775000D01*
X743000D02*
X743000Y10000D01*
X751000D01*
X735000Y10000D02*
X743000D01*
X719000D02*
X735000D01*
X711000D02*
X719000D01*
X298000Y25000D02*
X300000Y23000D01*
Y18000D02*
Y23000D01*
X295500Y27500D02*
X298000Y25000D01*
X295500Y27500D02*
Y40000D01*
X158000Y11000D02*
X167000D01*
X170000Y8000D01*
X289500Y18500D02*
X290000Y18000D01*
X289500Y18500D02*
Y40000D01*
X186000Y18000D02*
X194000D01*
X247500Y18500D02*
X248000Y18000D01*
X247500Y18500D02*
Y40000D01*
X754500Y122000D02*
Y135000D01*
X730500Y122000D02*
Y135000D01*
X712500Y122000D02*
Y135000D01*
X676500Y108500D02*
Y122000D01*
X424500Y109000D02*
Y122000D01*
X370500Y109000D02*
Y122000D01*
X334500D02*
Y135000D01*
X316500Y122000D02*
Y135000D01*
X244500D02*
X244500Y135000D01*
Y122000D02*
Y135000D01*
X208500Y135000D02*
X208500Y135000D01*
Y122000D02*
Y135000D01*
X190500Y135000D02*
X190500Y135000D01*
Y122000D02*
Y135000D01*
X172500Y122000D02*
Y135000D01*
X154500D02*
X154500Y135000D01*
Y122000D02*
Y135000D01*
X751500Y40000D02*
Y52500D01*
X727500Y40000D02*
Y52500D01*
X709500Y40000D02*
Y52500D01*
X655500Y40000D02*
Y52500D01*
X637500Y40000D02*
Y52500D01*
X619500Y40000D02*
Y52500D01*
X601500Y40000D02*
Y52000D01*
X583500Y40000D02*
Y52500D01*
X565500Y52500D02*
X565500Y52500D01*
X565500Y40000D02*
Y52500D01*
X529500Y40000D02*
Y52500D01*
X511500Y40000D02*
Y52500D01*
X493500Y40000D02*
Y52500D01*
X475500Y40000D02*
Y52500D01*
X457500Y40000D02*
Y52500D01*
X439500Y40000D02*
Y52500D01*
X403500Y40000D02*
Y52500D01*
X331500Y40000D02*
Y52500D01*
X313500Y40000D02*
Y52500D01*
X241500Y40000D02*
Y52500D01*
X205500Y40000D02*
Y52500D01*
X187500Y27500D02*
Y40000D01*
X133500Y52500D02*
X133500Y52500D01*
X133500Y40000D02*
Y52500D01*
X169500Y27500D02*
Y40000D01*
X151500Y27500D02*
Y40000D01*
X673500Y28500D02*
Y40000D01*
Y28500D02*
X676000Y26000D01*
X836000Y119000D02*
X838000D01*
X843000Y114000D01*
Y99000D02*
Y114000D01*
X823000Y99000D02*
X843000D01*
X794000D02*
X823000D01*
X790000Y95000D02*
X794000Y99000D01*
X194000Y18000D02*
X198000Y14000D01*
X244000D01*
X248000Y18000D01*
X290000Y12000D02*
Y18000D01*
X286000Y8000D02*
X290000Y12000D01*
X170000Y8000D02*
X286000D01*
X258000Y18000D02*
X269000D01*
X298500Y109500D02*
Y122000D01*
Y124000D01*
X678000Y298500D02*
X679000Y299500D01*
Y306000D01*
X689000Y328000D02*
X695000Y334000D01*
X57000Y94500D02*
Y102000D01*
X478500Y122000D02*
Y135000D01*
X478500Y135000D01*
X442500Y122000D02*
Y135000D01*
X406500Y122000D02*
Y134500D01*
X460500Y122000D02*
Y134500D01*
X460000Y135000D02*
X460500Y134500D01*
X496500Y111500D02*
Y122000D01*
X494000Y109000D02*
X496500Y111500D01*
X388500Y109000D02*
X388500Y109000D01*
X622500Y109750D02*
Y122000D01*
X421500Y27500D02*
Y40000D01*
X289500D02*
Y54500D01*
X292500Y57500D01*
Y122000D01*
X223500Y27500D02*
Y40000D01*
Y27500D02*
X223500Y27500D01*
X701000Y17000D02*
X708000Y10000D01*
X711000D01*
D37*
X106000Y273000D02*
Y279000D01*
X532000Y199000D02*
X537000Y204000D01*
X532000Y195000D02*
Y199000D01*
X533000Y194000D02*
Y195000D01*
X475000Y172000D02*
X497000D01*
X449000Y173000D02*
X450000Y172000D01*
X498000Y173000D02*
X505000D01*
X497000Y172000D02*
X498000Y173000D01*
X532000Y193000D02*
X533000Y194000D01*
X532000Y179000D02*
Y193000D01*
X475000Y182000D02*
X522000D01*
X525000Y179000D02*
X532000D01*
X522000Y182000D02*
X525000Y179000D01*
X438000Y162000D02*
X449000Y173000D01*
X434000Y162000D02*
X438000D01*
X424000D02*
Y168000D01*
X438000Y182000D01*
X475000D01*
X450000Y172000D02*
X475000D01*
X459000Y195000D02*
X465000Y201000D01*
X475000Y182000D02*
Y201000D01*
X493000Y200000D02*
X501000Y192000D01*
X493000Y200000D02*
Y201000D01*
X334000Y167000D02*
X340000D01*
X405000Y177000D02*
X414000D01*
X768000Y21000D02*
Y26000D01*
X767000Y20000D02*
X768000Y21000D01*
X767000Y20000D02*
X785000D01*
X786000Y19000D01*
X751000Y20000D02*
Y26000D01*
X841000Y252000D02*
X851000D01*
X841000Y252000D02*
X841000Y252000D01*
X851000D02*
X861000D01*
X861000Y252000D01*
X814000Y44000D02*
X823000D01*
X814000Y44000D02*
X814000Y44000D01*
X296500Y360000D02*
X299500Y363000D01*
X290000Y360000D02*
X296500D01*
X299500Y363000D02*
X302500Y360000D01*
X308000D01*
X146500Y363000D02*
Y376500D01*
Y363000D02*
X147500Y362000D01*
X155000D01*
X235000Y221000D02*
X244000D01*
X226000D02*
X235000D01*
X233500Y246500D02*
Y262000D01*
Y240500D02*
X235000Y239000D01*
X233500Y240500D02*
Y246500D01*
X299500Y267000D02*
Y267500D01*
X310000Y278000D01*
X60000Y272000D02*
Y279000D01*
X60000Y272000D02*
X60000Y272000D01*
X116000Y261000D02*
X130000D01*
X127000Y264000D02*
X130000Y261000D01*
X127000Y264000D02*
Y269000D01*
X148500Y261000D02*
X154500Y267000D01*
X130000Y261000D02*
X148500D01*
X154500Y267000D02*
X174000D01*
D38*
X395000Y146500D02*
X401500D01*
X404000Y144000D01*
X389500Y140500D02*
X395000D01*
X386000Y144000D02*
X389500Y140500D01*
X597000Y103757D02*
Y109750D01*
X350050Y229000D02*
X352550Y226500D01*
X333000Y229000D02*
X350050D01*
X365150Y201000D02*
X365250Y201100D01*
X345000Y201000D02*
X365150D01*
X56000Y207000D02*
X59000D01*
X56000Y207000D02*
X56000Y207000D01*
X53000Y204000D02*
X56000Y207000D01*
X58000D01*
X667000Y95375D02*
Y99500D01*
X665500Y101000D02*
X667000Y99500D01*
X670000Y94132D02*
Y98750D01*
X663868Y88000D02*
X670000Y94132D01*
X634243Y88000D02*
X663868D01*
X626243Y80000D02*
X634243Y88000D01*
X599243Y80000D02*
X626243D01*
X590243Y71000D02*
X599243Y80000D01*
X538500Y71000D02*
X590243D01*
X522000Y52250D02*
X523500Y50750D01*
X522000Y54500D02*
X538500Y71000D01*
X522000Y52250D02*
Y54500D01*
X523500Y40000D02*
Y50750D01*
X662625Y91000D02*
X667000Y95375D01*
X633000Y91000D02*
X662625D01*
X625000Y83000D02*
X633000Y91000D01*
X598000Y83000D02*
X625000D01*
X589000Y74000D02*
X598000Y83000D01*
X537257Y74000D02*
X589000D01*
X519000Y52250D02*
Y55743D01*
X537257Y74000D01*
X517500Y50750D02*
X519000Y52250D01*
X517500Y40000D02*
Y50750D01*
X670000Y94132D02*
Y100000D01*
X671000Y101000D01*
X679500Y96000D02*
X681000Y94500D01*
X675243Y81000D02*
X684000Y89757D01*
X637243Y81000D02*
X675243D01*
X629243Y73000D02*
X637243Y81000D01*
X607243Y73000D02*
X629243D01*
X598243Y64000D02*
X607243Y73000D01*
X540000Y52250D02*
X541500Y50750D01*
X540000Y56000D02*
X548000Y64000D01*
X540000Y52250D02*
Y56000D01*
X541500Y40000D02*
Y50750D01*
X674000Y84000D02*
X681000Y91000D01*
X636000Y84000D02*
X674000D01*
X628000Y76000D02*
X636000Y84000D01*
X606000Y76000D02*
X628000D01*
X597000Y67000D02*
X606000Y76000D01*
X537000Y52250D02*
Y57243D01*
X546757Y67000D01*
X535500Y50750D02*
X537000Y52250D01*
X535500Y40000D02*
Y50750D01*
X684000Y89757D02*
Y95000D01*
X685000Y96000D01*
X681000Y91000D02*
Y94500D01*
X678000Y77000D02*
X693000Y92000D01*
X640000Y77000D02*
X678000D01*
X633000Y70000D02*
X640000Y77000D01*
X611000Y70000D02*
X633000D01*
X601000Y60000D02*
X611000Y70000D01*
X555000Y56243D02*
X558757Y60000D01*
X555000Y52250D02*
Y56243D01*
X553500Y50750D02*
X555000Y52250D01*
X553500Y40000D02*
Y50750D01*
X696000Y90757D02*
Y101750D01*
X679243Y74000D02*
X696000Y90757D01*
X641243Y74000D02*
X679243D01*
X634243Y67000D02*
X641243Y74000D01*
X612243Y67000D02*
X634243D01*
X602243Y57000D02*
X612243Y67000D01*
X558000Y55000D02*
X560000Y57000D01*
X559500Y40000D02*
Y50750D01*
X558000Y52250D02*
Y55000D01*
Y52250D02*
X559500Y50750D01*
X696000Y101750D02*
X697250Y103000D01*
X691750D02*
X693000Y101750D01*
Y92000D02*
Y101750D01*
X499500Y40000D02*
Y50750D01*
X501000Y52250D01*
Y56243D02*
X525757Y81000D01*
X501000Y52250D02*
Y56243D01*
X525757Y81000D02*
X584757D01*
X593757Y90000D01*
X621000D01*
X632750Y101750D01*
X641750D01*
X643000Y103000D01*
X505500Y40000D02*
Y50750D01*
X504000Y52250D02*
Y55000D01*
X527000Y78000D01*
X504000Y52250D02*
X505500Y50750D01*
X527000Y78000D02*
X586000D01*
X595000Y87000D01*
X622243D01*
X633993Y98750D01*
X641750D01*
X643000Y97500D01*
X643500Y40000D02*
Y50750D01*
X645000Y52250D01*
Y57243D01*
X648757Y61000D02*
X702750D01*
X645000Y57243D02*
X648757Y61000D01*
X702750D02*
X704000Y62250D01*
X648000Y52250D02*
X649500Y50750D01*
X648000Y52250D02*
Y56000D01*
X649500Y40000D02*
Y50750D01*
X650000Y58000D02*
X702750D01*
X648000Y56000D02*
X650000Y58000D01*
X702750D02*
X704000Y56750D01*
X654000Y18750D02*
X655250Y20000D01*
X662243D01*
X666000Y23757D02*
Y27750D01*
X662243Y20000D02*
X666000Y23757D01*
Y27750D02*
X667500Y29250D01*
Y40000D01*
X655250Y23000D02*
X661000D01*
X654000Y24250D02*
X655250Y23000D01*
X661500Y29250D02*
Y40000D01*
X661000Y23000D02*
X663000Y25000D01*
Y27750D01*
X661500Y29250D02*
X663000Y27750D01*
X598000Y262000D02*
Y282000D01*
X593000Y287000D02*
X598000Y282000D01*
X601000Y282000D02*
X606000Y287000D01*
X566700Y242700D02*
X569700D01*
X575200Y248200D01*
Y253200D01*
X580000Y258000D01*
X594000D01*
X598000Y262000D01*
X578200Y251957D02*
X581243Y255000D01*
X578200Y247800D02*
X583300Y242700D01*
X578200Y247800D02*
Y251957D01*
X583300Y242700D02*
X586700D01*
X581243Y255000D02*
X595243D01*
X601000Y260757D02*
Y282000D01*
X595243Y255000D02*
X601000Y260757D01*
X565000Y270600D02*
Y287000D01*
Y270600D02*
X566700Y268900D01*
X578000Y277600D02*
Y287000D01*
Y277600D02*
X586700Y268900D01*
X53000Y217000D02*
X57500Y212500D01*
X58000D01*
X476000Y72750D02*
X477250Y74000D01*
X513000D01*
X524000Y85000D01*
X582000D01*
X591000Y94000D01*
X604243D01*
X615000Y104757D01*
Y109750D02*
X616500Y111250D01*
X615000Y104757D02*
Y109750D01*
X616500Y111250D02*
Y122000D01*
X476000Y78250D02*
X477250Y77000D01*
X511757D01*
X522757Y88000D01*
X580757D01*
X589757Y97000D01*
X603000D01*
X610500Y111250D02*
Y122000D01*
X603000Y97000D02*
X612000Y106000D01*
Y109750D01*
X610500Y111250D02*
X612000Y109750D01*
X501000Y83750D02*
X502250Y85000D01*
X511000D01*
X518000Y92000D01*
X578000D01*
X586000Y100000D01*
X593243D01*
X597000Y103757D01*
Y109750D02*
X598500Y111250D01*
Y122000D01*
X501000Y89250D02*
X502250Y88000D01*
X509757D01*
X516757Y95000D01*
X576757D01*
X584757Y103000D01*
X592000D01*
X592500Y111250D02*
Y122000D01*
X592000Y103000D02*
X594000Y105000D01*
Y109750D01*
X592500Y111250D02*
X594000Y109750D01*
X476000Y98750D02*
X477250Y100000D01*
X575243D01*
X579000Y103757D01*
Y109750D02*
X580500Y111250D01*
X579000Y103757D02*
Y109750D01*
X580500Y111250D02*
Y122000D01*
X476000Y104250D02*
X477250Y103000D01*
X574000D01*
X576000Y105000D01*
X574500Y111250D02*
X576000Y109750D01*
Y105000D02*
Y109750D01*
X574500Y111250D02*
Y122000D01*
X546757Y67000D02*
X597000D01*
X548000Y64000D02*
X598243D01*
X558757Y60000D02*
X601000D01*
X560000Y57000D02*
X602243D01*
X640000Y12000D02*
X664000D01*
X630000Y22000D02*
X640000Y12000D01*
X664000D02*
X669750Y17750D01*
X677750D01*
X679000Y19000D01*
X630000Y22000D02*
Y27750D01*
X631500Y29250D01*
Y40000D01*
X638757Y9000D02*
X665243D01*
X627000Y20757D02*
X638757Y9000D01*
X665243D02*
X670993Y14750D01*
X677750D02*
X679000Y13500D01*
X627000Y20757D02*
Y27750D01*
X625500Y29250D02*
Y40000D01*
Y29250D02*
X627000Y27750D01*
X670993Y14750D02*
X677750D01*
X613500Y40000D02*
Y50750D01*
X612000Y52250D02*
Y56000D01*
Y52250D02*
X613500Y50750D01*
X614000Y58000D02*
X626500D01*
X612000Y56000D02*
X614000Y58000D01*
X626500D02*
X628000Y56500D01*
X607500Y40000D02*
Y50750D01*
X609000Y52250D01*
Y57243D02*
X612757Y61000D01*
X609000Y52250D02*
Y57243D01*
X612757Y61000D02*
X627000D01*
X628000Y62000D01*
D39*
X481500Y142000D02*
X486000Y137500D01*
X437000Y142000D02*
X481500D01*
X637000Y171000D02*
X638000Y170000D01*
X628000Y171000D02*
X637000D01*
X644000Y164000D02*
X646000Y166000D01*
X637000Y164000D02*
X644000D01*
X629000Y139000D02*
X636000D01*
X662000Y172000D02*
Y178000D01*
X656000Y166000D02*
X662000Y172000D01*
X656000Y166000D02*
X656000Y166000D01*
X565000Y228000D02*
X576000Y217000D01*
Y178000D02*
Y217000D01*
X409000Y309000D02*
Y363000D01*
X576000Y178000D02*
X579000Y175000D01*
X614000D01*
X618000Y171000D01*
X434846Y359846D02*
X438000Y363000D01*
X434846Y339022D02*
Y359846D01*
X363000Y352000D02*
Y363000D01*
X359154Y348154D02*
X363000Y352000D01*
X359154Y323782D02*
Y348154D01*
X730000Y183000D02*
Y258000D01*
Y183000D02*
X733000Y180000D01*
X723000D02*
Y265000D01*
X170000Y174000D02*
Y174000D01*
X167000Y171000D02*
X170000Y174000D01*
X147000Y86000D02*
X193000D01*
X200000Y93000D01*
X707000Y303000D02*
X713000D01*
X719000Y309000D01*
X721000D01*
X717000Y299000D02*
X722000Y304000D01*
X717000Y293000D02*
Y299000D01*
X722000Y304000D02*
X725000Y307000D01*
Y309000D01*
X729000Y304000D02*
Y309000D01*
Y299000D02*
Y304000D01*
Y299000D02*
X735000Y293000D01*
X670500Y122000D02*
Y144500D01*
X671000Y145000D01*
X425000Y93000D02*
X436500Y104500D01*
X310000Y93000D02*
X425000D01*
X145500Y40000D02*
Y54500D01*
X135000Y65000D02*
X145500Y54500D01*
X721000Y321000D02*
X729000D01*
X716000D02*
X721000D01*
X721000Y321000D02*
X721000Y321000D01*
X721000Y317000D02*
Y321000D01*
X729000Y317000D02*
Y321000D01*
X713000Y318000D02*
X716000Y321000D01*
X707000Y318000D02*
X713000D01*
X418500Y108750D02*
Y122000D01*
X358500D02*
Y135000D01*
X364500Y122000D02*
X364750Y121750D01*
X412500Y108750D02*
Y122000D01*
X60000Y136000D02*
X61000Y135000D01*
X65000Y130000D02*
Y132000D01*
X61000Y136000D02*
X65000Y132000D01*
X61000Y135000D02*
Y136000D01*
X75000Y130000D02*
Y133000D01*
X78000Y136000D01*
X125000Y58000D02*
X136000D01*
X139500Y54500D01*
Y40000D02*
Y54500D01*
X232500Y147000D02*
X234000D01*
X220500Y135000D02*
X232500Y147000D01*
X214500Y135000D02*
Y145500D01*
X216000Y147000D01*
X220500Y122000D02*
Y135000D01*
X220500Y135000D02*
X220500Y135000D01*
X214500Y122000D02*
X214500Y122000D01*
X214500Y122000D02*
Y135000D01*
X346500Y122000D02*
Y135000D01*
X128000Y67000D02*
X147000Y86000D01*
X436500Y104500D02*
Y122000D01*
X136500Y122000D02*
X136500Y122000D01*
X235500Y52500D02*
X235500Y52500D01*
X235500Y40000D02*
Y52500D01*
X379500Y21500D02*
Y40000D01*
X376000Y18000D02*
X379500Y21500D01*
X229500Y40000D02*
Y52500D01*
X196500Y141500D02*
X205000Y150000D01*
X196500Y122000D02*
Y141500D01*
X202500Y137500D02*
X208000Y143000D01*
X202500Y122000D02*
Y137500D01*
X685500Y40000D02*
Y52500D01*
X721000Y313000D02*
X725000D01*
X716000D02*
X721000D01*
X716000Y313000D02*
X716000Y313000D01*
X863000Y138000D02*
X870000D01*
X872000Y136000D01*
Y121000D02*
Y136000D01*
X869000Y118000D02*
X872000Y121000D01*
X862000Y118000D02*
X869000D01*
X166500Y122000D02*
Y136500D01*
X173000Y143000D01*
Y167000D01*
X160500Y122000D02*
Y136500D01*
X167000Y143000D01*
Y171000D01*
X175500Y40000D02*
Y54000D01*
X163500Y40000D02*
Y53500D01*
X157500Y40000D02*
Y55500D01*
X364750Y109000D02*
Y121750D01*
X623000Y145000D02*
X629000Y139000D01*
X779000Y332000D02*
X788000Y323000D01*
X769500Y332000D02*
X779000D01*
X788000Y312000D02*
Y323000D01*
X785000Y309000D02*
X788000Y312000D01*
X785000Y298000D02*
Y309000D01*
X740000Y253000D02*
X785000Y298000D01*
X740000Y190000D02*
Y253000D01*
X737000Y318000D02*
X741000Y322000D01*
X746500D01*
X729000Y313000D02*
X737000D01*
X737000Y313000D01*
Y303000D02*
Y313000D01*
Y318000D01*
X682500Y275500D02*
X688000D01*
X679000Y272000D02*
X682500Y275500D01*
X698000Y298500D02*
X702500Y303000D01*
X707000D01*
X698000Y298500D02*
Y299000D01*
X689000Y308000D02*
X698000Y299000D01*
X689000Y308000D02*
Y318000D01*
X29000Y95000D02*
X38000Y104000D01*
X29000Y94500D02*
Y95000D01*
X77000Y94500D02*
X88500D01*
X92000Y91000D01*
Y78000D02*
X103000Y67000D01*
X92000Y78000D02*
Y91000D01*
X103000Y67000D02*
X128000D01*
X68500Y70000D02*
X75000D01*
X67000Y71500D02*
X68500Y70000D01*
X39000Y71500D02*
X67000D01*
X19000D02*
X20500Y70000D01*
X28000D01*
X59000Y82000D02*
X66000D01*
X77000Y93000D01*
Y94500D01*
X38000Y104000D02*
X49000D01*
X67000Y122000D01*
X136500D01*
X430500Y135500D02*
X437000Y142000D01*
X430500Y122000D02*
Y135500D01*
X397500Y40000D02*
Y56500D01*
X495000Y67000D02*
X501000D01*
X493000Y69000D02*
X495000Y67000D01*
X485000Y69000D02*
X493000D01*
X391500Y27500D02*
Y40000D01*
X349000Y18000D02*
X353000D01*
X361500Y26500D01*
Y40000D01*
X193500D02*
X193750Y39750D01*
Y27500D02*
Y39750D01*
X181500Y27500D02*
Y40000D01*
X391500Y27500D02*
X404000Y15000D01*
X433500Y28500D02*
Y40000D01*
X432000Y27000D02*
X433500Y28500D01*
X432000Y21000D02*
Y27000D01*
Y21000D02*
X434000Y19000D01*
X499000D01*
X343500Y15500D02*
Y40000D01*
Y15500D02*
X349000Y10000D01*
X553000D01*
X564000Y21000D01*
X337500Y40000D02*
Y52500D01*
X319500Y40000D02*
Y52500D01*
X373500Y40000D02*
Y53000D01*
X499000Y19000D02*
X505000Y25000D01*
X535000D01*
X539000Y21000D01*
X404000Y15000D02*
X508000D01*
X513000Y20000D01*
X217500Y40000D02*
Y52500D01*
X325500Y40000D02*
Y52500D01*
X355500Y40000D02*
Y52500D01*
X427500Y22500D02*
Y40000D01*
X425000Y20000D02*
X427500Y22500D01*
X415500Y40000D02*
Y52500D01*
X409500Y40000D02*
Y55500D01*
X211500Y40000D02*
Y55500D01*
X221000Y65000D01*
X301500Y40000D02*
Y56500D01*
X310000Y65000D01*
X199500Y40000D02*
Y53500D01*
X197000Y56000D02*
X199500Y53500D01*
X197000Y56000D02*
Y66000D01*
X307500Y40000D02*
Y52500D01*
X679500Y52500D02*
X679500Y52500D01*
X679500Y40000D02*
Y52500D01*
X691500Y40000D02*
Y52500D01*
X409500Y55500D02*
X413000Y59000D01*
X483000D01*
X488000Y64000D01*
X397500Y56500D02*
X405000Y64000D01*
X480000D01*
X485000Y69000D01*
X557000Y228000D02*
X565000D01*
X211500Y239500D02*
Y262000D01*
X216500Y239500D02*
Y240500D01*
X222500Y246500D01*
Y262000D01*
X206500Y239500D02*
Y244500D01*
X200500Y250500D02*
X206500Y244500D01*
X200500Y250500D02*
Y262000D01*
X173000Y167000D02*
X216500Y210500D01*
Y230500D01*
X211500Y221500D02*
Y230500D01*
X206500Y215500D02*
Y230500D01*
X253500Y239500D02*
Y240500D01*
X244500Y249500D02*
X253500Y240500D01*
X244500Y249500D02*
Y262000D01*
X263500Y239500D02*
Y244500D01*
X266500Y247500D01*
Y262000D01*
X268500Y239500D02*
Y240500D01*
X277500Y249500D01*
Y262000D01*
X253500Y218500D02*
Y230500D01*
X209000Y174000D02*
X253500Y218500D01*
X190000Y174000D02*
X209000D01*
X215000Y170000D02*
X263500Y218500D01*
Y230500D01*
X219000Y165000D02*
X268500Y214500D01*
Y230500D01*
X184500Y143500D02*
X206000Y165000D01*
X184500Y122000D02*
Y143500D01*
X206000Y165000D02*
X219000D01*
X178500Y146500D02*
X202000Y170000D01*
X178500Y122000D02*
Y146500D01*
X202000Y170000D02*
X215000D01*
X280000Y195000D02*
X322500Y152500D01*
Y122000D02*
Y152500D01*
X288500Y240500D02*
Y262000D01*
X280000Y237000D02*
X283000Y240000D01*
X288000D01*
X289000D01*
X288000D02*
X288500Y240500D01*
X280000Y195000D02*
Y237000D01*
X60000Y289000D02*
Y297000D01*
D40*
X629000Y190000D02*
X636000D01*
X628000Y189000D02*
X629000Y190000D01*
X636000D02*
X645000D01*
X646000Y189000D01*
X593000Y214000D02*
X593000Y214000D01*
Y223000D01*
X551000Y214000D02*
X552000Y215000D01*
X424000Y149000D02*
Y162000D01*
X419000Y144000D02*
X424000Y149000D01*
X414000Y144000D02*
X419000D01*
X370000Y150000D02*
Y167000D01*
Y150000D02*
X376000Y144000D01*
X382000Y162000D02*
X424000D01*
X377000Y167000D02*
X382000Y162000D01*
X370000Y167000D02*
X377000D01*
X370000Y167000D02*
X370000Y167000D01*
X350000Y167000D02*
X370000D01*
X350000D02*
Y177000D01*
X335000Y192000D02*
X350000Y177000D01*
X335000Y192000D02*
Y201000D01*
X333000Y203000D02*
X335000Y201000D01*
X333000Y203000D02*
Y219000D01*
X390650Y213800D02*
X403350Y226500D01*
X390650Y201100D02*
Y213800D01*
X515750Y173000D02*
X525000Y163750D01*
X515000Y173000D02*
X515750D01*
X370000Y177000D02*
X391000D01*
X390650Y201100D02*
X391000Y200750D01*
Y177000D02*
Y200750D01*
X517000Y144000D02*
X523500Y137500D01*
Y135250D02*
Y137500D01*
X395000Y348000D02*
Y363000D01*
Y348000D02*
X395000Y348000D01*
X659000Y149000D02*
X665000Y155000D01*
X671000D01*
X568500Y137500D02*
X571000Y140000D01*
X568500Y122000D02*
Y137500D01*
X524500Y148500D02*
X532000D01*
X547500Y163500D02*
X551000Y160000D01*
X542000Y163500D02*
X547500D01*
X543500Y150000D02*
X551000D01*
X542000Y148500D02*
X543500Y150000D01*
X525000Y163750D02*
X531750D01*
X532000Y164000D01*
X571500Y317500D02*
X572000Y318000D01*
X571500Y306000D02*
Y317500D01*
X599500Y306000D02*
Y318500D01*
X599000Y319000D02*
X599500Y318500D01*
X565000Y299000D02*
X591000D01*
X558000D02*
X565000D01*
X565000Y299000D01*
Y306000D01*
X541700Y282700D02*
X558000Y299000D01*
X591000D02*
X593000Y301000D01*
Y306000D01*
X551000Y190000D02*
Y214000D01*
X571000Y190000D02*
Y194000D01*
X568000Y196000D02*
X568500Y195500D01*
X569000Y196000D02*
X571000Y194000D01*
X563000Y212000D02*
Y214000D01*
Y212000D02*
X569000Y206000D01*
X168000Y18000D02*
X176000D01*
X165000Y21000D02*
X168000Y18000D01*
X158000Y21000D02*
X165000D01*
X27000Y112000D02*
X33000D01*
X27000Y130000D02*
X27000Y130000D01*
X33000D01*
X225000Y157000D02*
X234000D01*
X216000D02*
X225000D01*
X562500Y108500D02*
X567000D01*
X568500Y110000D01*
Y122000D01*
X550500Y111500D02*
Y122000D01*
X581000Y190000D02*
Y192000D01*
X585000Y196000D01*
X601000Y190000D02*
Y195000D01*
X602000Y196000D01*
X585000Y206000D02*
Y214000D01*
X653000Y149000D02*
X653000Y149000D01*
X659000D01*
X643000D02*
X643000Y149000D01*
X637000Y149000D02*
X643000D01*
X694000Y254500D02*
Y264000D01*
Y254500D02*
X694000Y254500D01*
X702500Y230000D02*
X704000Y231500D01*
X694000Y230000D02*
X702500D01*
X707000Y328000D02*
Y334000D01*
X714000Y253000D02*
Y254500D01*
X709000Y248000D02*
X714000Y253000D01*
X703000Y248000D02*
X709000D01*
X862000Y100000D02*
Y118000D01*
Y100000D02*
X868000D01*
X868000Y100000D01*
X862000Y84000D02*
Y90000D01*
X843000Y78000D02*
Y85000D01*
X843000Y78000D02*
X843000Y78000D01*
X823000D02*
Y85000D01*
X823000Y78000D02*
X823000Y78000D01*
X862500Y128000D02*
X863000Y128500D01*
X855000Y128000D02*
X862500D01*
X38000Y147000D02*
Y156000D01*
X41000Y159000D01*
X45000D01*
X38000Y156000D02*
X41000Y153000D01*
X45000D01*
X20000Y152000D02*
Y156000D01*
Y152000D02*
X20000Y152000D01*
X12000Y153000D02*
X13000Y152000D01*
X20000D01*
X20000Y156000D02*
Y160000D01*
X20000Y160000D01*
X12000D02*
X20000D01*
X565000Y306000D02*
X565000Y306000D01*
X541700Y268900D02*
Y282700D01*
X593000Y214000D02*
X601000Y206000D01*
X602000Y206000D02*
Y206000D01*
X27000Y112000D02*
X27000Y112000D01*
X43000Y112000D02*
Y121000D01*
Y130000D01*
X798000Y317000D02*
Y323000D01*
Y317000D02*
X798000Y317000D01*
X547500Y108500D02*
X550500Y111500D01*
X691000Y26000D02*
X691000Y26000D01*
Y17000D02*
Y26000D01*
X224000Y285000D02*
X240000Y301000D01*
Y335000D01*
X196000Y225000D02*
X201500Y230500D01*
X201500Y239500D02*
X201500D01*
X196000Y245000D02*
X201500Y239500D01*
X258500Y239500D02*
Y246500D01*
Y223500D02*
Y230500D01*
X255500Y249500D02*
Y262000D01*
Y249500D02*
X258500Y246500D01*
X255500Y262000D02*
Y268500D01*
X262000Y275000D01*
D41*
X421000Y277000D02*
X466465Y231535D01*
X487000Y211000D02*
X493000D01*
X473535Y224464D02*
X487000Y211000D01*
X530000D02*
X534000Y215000D01*
X493000Y211000D02*
X530000D01*
X421000Y277000D02*
Y390000D01*
D42*
X452000Y363000D02*
X460246Y354754D01*
Y323782D02*
Y354754D01*
X333754Y347754D02*
X349000Y363000D01*
X333754Y339022D02*
Y347754D01*
X701000Y312000D02*
X707000Y318000D01*
X631000Y155000D02*
X637000Y149000D01*
X623000Y155000D02*
X631000D01*
X50000Y146000D02*
X61000D01*
X78000D01*
X717000Y283000D02*
X735000D01*
X717000Y283000D02*
X717000Y283000D01*
X712000Y278000D02*
X717000Y283000D01*
X712000Y265000D02*
Y278000D01*
X34000Y204000D02*
X39000Y199000D01*
X63000D01*
X43000Y130000D02*
Y139000D01*
X50000Y146000D01*
X309000Y142000D02*
X316000D01*
X279000Y172000D02*
X309000Y142000D01*
X769000Y312000D02*
X769500D01*
X758000Y323000D02*
X769000Y312000D01*
X758000Y323000D02*
Y330000D01*
X755000Y333000D02*
X758000Y330000D01*
X741000Y333000D02*
X755000D01*
X729000Y321000D02*
X741000Y333000D01*
X288000Y229000D02*
X289000Y230000D01*
X288000Y220000D02*
Y229000D01*
D43*
X511000Y296000D02*
Y326000D01*
X642400Y322400D02*
X643000Y323000D01*
X642400Y296000D02*
Y322400D01*
Y239200D02*
Y296000D01*
D44*
X534000Y215000D02*
Y227000D01*
X541700Y234700D01*
Y242700D01*
X421000Y390000D02*
X542000D01*
X103000D02*
X421000D01*
X671000Y238000D02*
Y244000D01*
Y187000D02*
Y238000D01*
Y187000D02*
X712000Y146000D01*
X721500D01*
X763500Y40000D02*
Y80500D01*
X759000Y85000D02*
X763500Y80500D01*
X759000Y85000D02*
Y104000D01*
X764000Y109000D01*
Y120000D01*
X542000Y390000D02*
X542000Y390000D01*
X851000Y270000D02*
X851200Y269800D01*
X877000D01*
X851000Y270000D02*
Y290000D01*
X851000Y290000D01*
X817000Y19000D02*
X817000Y19000D01*
X800000Y19000D02*
X817000D01*
X542000Y390000D02*
X782000D01*
X851000Y321000D01*
Y304000D02*
Y321000D01*
X671000Y237000D02*
Y238000D01*
X91000Y378000D02*
X103000Y390000D01*
X91000Y372000D02*
Y378000D01*
D45*
X721500Y68500D02*
Y139000D01*
X718500Y65500D02*
X721500Y68500D01*
X718500Y48000D02*
Y65500D01*
D46*
X116000Y81000D02*
D03*
X81300Y18000D02*
D03*
X106700D02*
D03*
X26000Y288000D02*
D03*
X541700Y268900D02*
D03*
X566700D02*
D03*
X586700D02*
D03*
X611700D02*
D03*
X541700Y242700D02*
D03*
X566700D02*
D03*
X586700D02*
D03*
X611700D02*
D03*
X365250Y201100D02*
D03*
X390650D02*
D03*
X416050D02*
D03*
X352550Y226500D02*
D03*
X377950D02*
D03*
X403350D02*
D03*
X428750Y226500D02*
D03*
X441450Y201100D02*
D03*
X333754Y339022D02*
D03*
X359154Y323782D02*
D03*
X434846Y339022D02*
D03*
X460246Y323782D02*
D03*
X877000Y244400D02*
D03*
Y219000D02*
D03*
Y193600D02*
D03*
D47*
X784000Y81000D02*
D03*
D48*
X26000Y313000D02*
D03*
X877000Y269800D02*
D03*
D49*
X797000Y346500D02*
D03*
X707000D02*
D03*
D50*
X511000Y296000D02*
D03*
Y239200D02*
D03*
X642400D02*
D03*
Y296000D02*
D03*
D51*
X454150Y290000D02*
D03*
X339850D02*
D03*
D52*
X475740Y259520D02*
D03*
X318260D02*
D03*
D53*
X20000Y245000D02*
D03*
Y181000D02*
D03*
D54*
X47000Y238000D02*
D03*
Y188000D02*
D03*
D55*
X71000Y372000D02*
D03*
X91000D02*
D03*
D56*
X111000D02*
D03*
D57*
X132000D02*
D03*
X50000D02*
D03*
D58*
X25000Y25000D02*
D03*
Y375000D02*
D03*
X875000D02*
D03*
Y25000D02*
D03*
D59*
X261000Y373000D02*
D03*
X261750Y315250D02*
D03*
X261750Y321750D02*
D03*
X349500Y28000D02*
D03*
X106000Y273000D02*
D03*
X537000Y204000D02*
D03*
X687000Y209250D02*
D03*
Y203750D02*
D03*
X446000Y94000D02*
D03*
X469000Y108000D02*
D03*
X481750Y149750D02*
D03*
X497000Y172000D02*
D03*
X497000Y143800D02*
D03*
X395000Y146500D02*
D03*
X497000Y138200D02*
D03*
X395000Y140500D02*
D03*
X148000Y8000D02*
D03*
X391000Y135000D02*
D03*
X382000Y170000D02*
D03*
X401000Y168000D02*
D03*
X486000Y137500D02*
D03*
X643000Y138000D02*
D03*
X636000Y190000D02*
D03*
X640000Y181000D02*
D03*
X638000Y170000D02*
D03*
X637000Y164000D02*
D03*
X636000Y139000D02*
D03*
X730750Y135000D02*
D03*
X385500Y53000D02*
D03*
X367500D02*
D03*
X154000Y171000D02*
D03*
X166000Y218000D02*
D03*
X662000Y178000D02*
D03*
X656000Y174000D02*
D03*
X409000Y309000D02*
D03*
X662000Y189000D02*
D03*
X459000Y195000D02*
D03*
X334000Y167000D02*
D03*
X414000Y177000D02*
D03*
X501000Y165000D02*
D03*
X497000Y158800D02*
D03*
Y153200D02*
D03*
X513593Y163535D02*
D03*
X507993D02*
D03*
X262250Y168000D02*
D03*
X267750D02*
D03*
X379000Y108000D02*
D03*
X247000Y157750D02*
D03*
Y152250D02*
D03*
X395000Y348000D02*
D03*
X701000Y312000D02*
D03*
X644000Y366000D02*
D03*
X730000Y258000D02*
D03*
X824000Y267000D02*
D03*
X806000D02*
D03*
Y323000D02*
D03*
X831000Y66000D02*
D03*
X847000Y57000D02*
D03*
X861000Y74000D02*
D03*
X848000Y170000D02*
D03*
X806000Y187000D02*
D03*
X824000Y195000D02*
D03*
X806000Y225000D02*
D03*
X824000D02*
D03*
Y323000D02*
D03*
X806000Y295000D02*
D03*
Y239000D02*
D03*
Y353000D02*
D03*
X732500Y380000D02*
D03*
X777500D02*
D03*
X692500D02*
D03*
X95000Y7500D02*
D03*
X839000Y8000D02*
D03*
X61000D02*
D03*
X170000Y382500D02*
D03*
X305000D02*
D03*
X85000Y390000D02*
D03*
X48000D02*
D03*
X10000Y265000D02*
D03*
Y300000D02*
D03*
Y340000D02*
D03*
Y145000D02*
D03*
Y100000D02*
D03*
Y61000D02*
D03*
X890000Y339000D02*
D03*
Y61000D02*
D03*
Y100000D02*
D03*
Y150000D02*
D03*
Y225000D02*
D03*
Y275000D02*
D03*
Y325000D02*
D03*
X839000Y390000D02*
D03*
X825000D02*
D03*
X795000D02*
D03*
X284000Y51000D02*
D03*
X267000Y49000D02*
D03*
X697250Y103000D02*
D03*
X691750D02*
D03*
X658500Y134500D02*
D03*
X602000Y213500D02*
D03*
X723000Y265000D02*
D03*
X814000Y90000D02*
D03*
X336000Y72000D02*
D03*
X110000Y97000D02*
D03*
X191000Y73000D02*
D03*
X170000Y174000D02*
D03*
X190000D02*
D03*
X200000Y93000D02*
D03*
X195000Y99000D02*
D03*
X722000Y304000D02*
D03*
X729000D02*
D03*
X586500Y135000D02*
D03*
X226500Y109250D02*
D03*
X298500Y109500D02*
D03*
X310000Y93000D02*
D03*
X523500Y135250D02*
D03*
X352500Y107500D02*
D03*
X525000Y163750D02*
D03*
X524500Y148500D02*
D03*
X661000Y348000D02*
D03*
Y340000D02*
D03*
X672000Y366000D02*
D03*
Y376000D02*
D03*
X620000Y377000D02*
D03*
X585000D02*
D03*
X555000D02*
D03*
X530000D02*
D03*
X503000Y347000D02*
D03*
Y360000D02*
D03*
X536000Y320000D02*
D03*
X555000Y318000D02*
D03*
X585000D02*
D03*
X620000D02*
D03*
X644000Y344000D02*
D03*
Y356000D02*
D03*
Y377000D02*
D03*
X504000Y375000D02*
D03*
X147000Y171000D02*
D03*
X143000Y75000D02*
D03*
X168000Y18000D02*
D03*
X135000Y65000D02*
D03*
X679000Y306000D02*
D03*
Y283000D02*
D03*
X196000Y284000D02*
D03*
X679000Y272000D02*
D03*
X723000Y180000D02*
D03*
X733000D02*
D03*
X705000Y140000D02*
D03*
X547500Y27500D02*
D03*
X137000Y167000D02*
D03*
X121000D02*
D03*
X418500Y108750D02*
D03*
X95000Y130000D02*
D03*
X85000D02*
D03*
X358500Y135000D02*
D03*
X412500Y108750D02*
D03*
X27000Y130000D02*
D03*
X75000D02*
D03*
X65000D02*
D03*
X125000Y58000D02*
D03*
X225000Y157000D02*
D03*
X58000Y212500D02*
D03*
Y207000D02*
D03*
X220500Y135000D02*
D03*
X214500D02*
D03*
X346500D02*
D03*
X749000Y102000D02*
D03*
X731000D02*
D03*
Y95000D02*
D03*
X712000Y102000D02*
D03*
X90000Y67000D02*
D03*
X581000Y140000D02*
D03*
X571000D02*
D03*
X561000D02*
D03*
X551000D02*
D03*
X105000Y104000D02*
D03*
Y129000D02*
D03*
X135000Y99000D02*
D03*
X170000Y103000D02*
D03*
X162000Y75000D02*
D03*
X272000Y35000D02*
D03*
X235500Y52500D02*
D03*
X376000Y18000D02*
D03*
X229500Y52500D02*
D03*
X476000Y72750D02*
D03*
Y78250D02*
D03*
X514500Y108500D02*
D03*
X555000D02*
D03*
X585000Y108000D02*
D03*
X717000Y271000D02*
D03*
X747000Y303000D02*
D03*
X762000D02*
D03*
X777000D02*
D03*
X792000D02*
D03*
X833000Y355000D02*
D03*
X671500Y354000D02*
D03*
X833000Y290000D02*
D03*
Y300000D02*
D03*
X308000Y159000D02*
D03*
Y177000D02*
D03*
X205000Y150000D02*
D03*
X208000Y143000D02*
D03*
X807000Y11000D02*
D03*
X172000Y338000D02*
D03*
X563000Y214000D02*
D03*
X585000D02*
D03*
X593000D02*
D03*
X659000Y149000D02*
D03*
X637000D02*
D03*
X154000Y218000D02*
D03*
X145000D02*
D03*
Y140000D02*
D03*
X298000Y220000D02*
D03*
X306000Y188000D02*
D03*
X296000D02*
D03*
X75000Y334000D02*
D03*
Y324000D02*
D03*
X160000Y338000D02*
D03*
X95000Y291000D02*
D03*
X88000D02*
D03*
X81000D02*
D03*
X104000Y336000D02*
D03*
Y328000D02*
D03*
Y320000D02*
D03*
X40000Y330000D02*
D03*
X52000Y342000D02*
D03*
X65000Y355000D02*
D03*
X166000Y338000D02*
D03*
X178000D02*
D03*
X104000Y312000D02*
D03*
X250000Y290000D02*
D03*
X190000Y290000D02*
D03*
X601000Y190000D02*
D03*
X591000D02*
D03*
X581000D02*
D03*
X571000D02*
D03*
X561000D02*
D03*
X551000D02*
D03*
X601000Y180000D02*
D03*
X591000D02*
D03*
X581000D02*
D03*
X571000D02*
D03*
X561000D02*
D03*
X551000D02*
D03*
X611000Y170000D02*
D03*
X601000D02*
D03*
X591000D02*
D03*
X581000D02*
D03*
X571000D02*
D03*
X561000D02*
D03*
X551000D02*
D03*
Y150000D02*
D03*
Y160000D02*
D03*
X561000D02*
D03*
X571000D02*
D03*
X581000D02*
D03*
X591000D02*
D03*
X601000D02*
D03*
X611000D02*
D03*
X561000Y150000D02*
D03*
X571000D02*
D03*
X581000D02*
D03*
X591000D02*
D03*
X601000D02*
D03*
X611000D02*
D03*
X591000Y140000D02*
D03*
X601000D02*
D03*
X611000D02*
D03*
X230000Y308000D02*
D03*
Y318000D02*
D03*
X220000D02*
D03*
Y308000D02*
D03*
X210000D02*
D03*
Y318000D02*
D03*
Y328000D02*
D03*
X220000D02*
D03*
X230000D02*
D03*
Y340000D02*
D03*
X220000D02*
D03*
X210000D02*
D03*
X718000Y171000D02*
D03*
X728000D02*
D03*
X741000D02*
D03*
X749000D02*
D03*
X763000D02*
D03*
X771000D02*
D03*
X778500Y201000D02*
D03*
X799000Y27000D02*
D03*
X807000D02*
D03*
X799000Y11000D02*
D03*
X785000Y104000D02*
D03*
X743000Y99000D02*
D03*
X748000Y139000D02*
D03*
X742000D02*
D03*
X731000Y74000D02*
D03*
X716000Y26000D02*
D03*
X721000D02*
D03*
X768000D02*
D03*
X745000D02*
D03*
X762000D02*
D03*
X751000D02*
D03*
X727000Y10000D02*
D03*
X743000Y10000D02*
D03*
X735000Y26000D02*
D03*
X759000Y10000D02*
D03*
X775000Y10000D02*
D03*
X711000D02*
D03*
X167000Y11000D02*
D03*
X194000Y18000D02*
D03*
X754500Y135000D02*
D03*
X712500D02*
D03*
X676500Y108500D02*
D03*
X658500D02*
D03*
X562500D02*
D03*
X442500Y135000D02*
D03*
X424500Y109000D02*
D03*
X370500D02*
D03*
X334500Y135000D02*
D03*
X316500D02*
D03*
X244500D02*
D03*
X208500D02*
D03*
X190500D02*
D03*
X172500D02*
D03*
X154500D02*
D03*
X751500Y52500D02*
D03*
X727500D02*
D03*
X709500D02*
D03*
X655500D02*
D03*
X637500D02*
D03*
X619500D02*
D03*
X601500Y52000D02*
D03*
X583500Y52500D02*
D03*
X565500D02*
D03*
X529500D02*
D03*
X511500D02*
D03*
X493500D02*
D03*
X475500D02*
D03*
X457500D02*
D03*
X439500D02*
D03*
X403500D02*
D03*
X331500D02*
D03*
X313500D02*
D03*
X298000Y25000D02*
D03*
X241500Y52500D02*
D03*
X205500D02*
D03*
X187500Y27500D02*
D03*
X133500Y52500D02*
D03*
X169500Y27500D02*
D03*
X151500D02*
D03*
X660000Y209000D02*
D03*
X752000Y74000D02*
D03*
X776000Y52500D02*
D03*
X804000Y37000D02*
D03*
X685500Y52500D02*
D03*
X676000Y26000D02*
D03*
X737000Y303000D02*
D03*
X707000D02*
D03*
X716000Y313000D02*
D03*
X694000Y264000D02*
D03*
Y220000D02*
D03*
Y230000D02*
D03*
X707000Y334000D02*
D03*
X712000Y265000D02*
D03*
X703000Y248000D02*
D03*
X815000Y129000D02*
D03*
X845000D02*
D03*
X868000Y100000D02*
D03*
X862000Y84000D02*
D03*
X843000Y78000D02*
D03*
X823000D02*
D03*
X790000Y95000D02*
D03*
X643000Y97500D02*
D03*
Y103000D02*
D03*
X671000Y101000D02*
D03*
X665500D02*
D03*
X679500Y96000D02*
D03*
X685000D02*
D03*
X274000Y48000D02*
D03*
X277889Y51889D02*
D03*
X704000Y62250D02*
D03*
X783000D02*
D03*
X704000Y56750D02*
D03*
X783000D02*
D03*
X855000Y128000D02*
D03*
X861000Y289000D02*
D03*
X841000Y252000D02*
D03*
X861000D02*
D03*
X829000Y19000D02*
D03*
X823000D02*
D03*
X817000D02*
D03*
X823000Y26000D02*
D03*
X814000Y44000D02*
D03*
X269000Y18000D02*
D03*
X131000Y140000D02*
D03*
X121000D02*
D03*
X654000Y18750D02*
D03*
Y24250D02*
D03*
X163500Y53500D02*
D03*
X157500Y55500D02*
D03*
X175500Y54000D02*
D03*
X695000Y334000D02*
D03*
X501000Y148500D02*
D03*
X251000Y147000D02*
D03*
X278000Y160000D02*
D03*
X279000Y172000D02*
D03*
X149000Y199000D02*
D03*
Y185000D02*
D03*
X88000Y202000D02*
D03*
Y175000D02*
D03*
X38000Y147000D02*
D03*
X57000Y226000D02*
D03*
X63000D02*
D03*
X45000Y159000D02*
D03*
Y153000D02*
D03*
X13000Y160000D02*
D03*
Y152000D02*
D03*
X20000Y203000D02*
D03*
X835000Y261000D02*
D03*
X828000Y239000D02*
D03*
X364750Y109000D02*
D03*
X612000Y190000D02*
D03*
X611000Y180000D02*
D03*
X366000Y103000D02*
D03*
X704000Y69000D02*
D03*
X779000Y99000D02*
D03*
X674000Y92000D02*
D03*
X657000Y101000D02*
D03*
X685000Y197000D02*
D03*
X692000Y214000D02*
D03*
X676000Y8000D02*
D03*
X257000Y164000D02*
D03*
X274000Y167000D02*
D03*
X242000Y148000D02*
D03*
X64000Y217000D02*
D03*
X142000Y90000D02*
D03*
X127000Y92000D02*
D03*
X188000Y94000D02*
D03*
X783000Y69000D02*
D03*
Y50000D02*
D03*
X804000Y82000D02*
D03*
X740000Y190000D02*
D03*
X63000Y199000D02*
D03*
X17000Y95000D02*
D03*
X43000Y121000D02*
D03*
X27000Y112000D02*
D03*
X75000Y70000D02*
D03*
X28000D02*
D03*
X45000Y95000D02*
D03*
X316000Y142000D02*
D03*
X798000Y317000D02*
D03*
X685000Y345000D02*
D03*
X671000Y230000D02*
D03*
Y237000D02*
D03*
Y244000D02*
D03*
X59000Y82000D02*
D03*
X57000Y102000D02*
D03*
X148005Y91995D02*
D03*
X144116Y95884D02*
D03*
X501000Y83750D02*
D03*
Y89250D02*
D03*
X122750Y97000D02*
D03*
X117250D02*
D03*
X476000Y98750D02*
D03*
Y104250D02*
D03*
X478500Y135000D02*
D03*
X517000Y198000D02*
D03*
X501000Y192000D02*
D03*
X507000Y204000D02*
D03*
X406500Y134500D02*
D03*
X449000Y173000D02*
D03*
X460000Y135000D02*
D03*
X522000Y108000D02*
D03*
X547500Y108500D02*
D03*
X494000Y109000D02*
D03*
X502000Y108000D02*
D03*
X492000Y93000D02*
D03*
X182500Y97000D02*
D03*
X177000D02*
D03*
X470000Y95000D02*
D03*
X482000Y108000D02*
D03*
X375000Y136000D02*
D03*
X405000Y108000D02*
D03*
X388500Y109000D02*
D03*
X622500Y109750D02*
D03*
X636000Y107000D02*
D03*
X629000D02*
D03*
X614000Y95000D02*
D03*
X20000Y223000D02*
D03*
X465000Y172000D02*
D03*
X663500Y53500D02*
D03*
X589700Y22440D02*
D03*
X437000Y24000D02*
D03*
X463000D02*
D03*
X488000Y64000D02*
D03*
X501000Y67000D02*
D03*
X462700Y71740D02*
D03*
X488000Y25000D02*
D03*
X528000Y72000D02*
D03*
X234000Y21000D02*
D03*
X209000D02*
D03*
Y65000D02*
D03*
X349000Y18000D02*
D03*
X386000D02*
D03*
X193750Y27500D02*
D03*
X310000Y23000D02*
D03*
X181500Y27500D02*
D03*
X539000Y21000D02*
D03*
X564000D02*
D03*
X337500Y52500D02*
D03*
X319500D02*
D03*
X373500Y53000D02*
D03*
X513000Y20000D02*
D03*
X217500Y52500D02*
D03*
X615000Y15000D02*
D03*
X335000Y23000D02*
D03*
X325500Y52500D02*
D03*
X355500D02*
D03*
X412000Y23000D02*
D03*
X425000Y20000D02*
D03*
X421500Y27500D02*
D03*
X415500Y52500D02*
D03*
X221000Y65000D02*
D03*
X234000D02*
D03*
X260000D02*
D03*
X285000D02*
D03*
X310000D02*
D03*
X412000Y70000D02*
D03*
X386000D02*
D03*
X197000Y66000D02*
D03*
X223500Y27500D02*
D03*
X275000Y21000D02*
D03*
X627000Y12000D02*
D03*
X307500Y52500D02*
D03*
X679500D02*
D03*
X691500D02*
D03*
X707000Y93000D02*
D03*
X679000Y19000D02*
D03*
X808000Y93000D02*
D03*
X679000Y13500D02*
D03*
X808000Y87500D02*
D03*
X691000Y26000D02*
D03*
X832000Y43000D02*
D03*
X557000Y228000D02*
D03*
X628000Y56500D02*
D03*
X772750Y99000D02*
D03*
X628000Y62000D02*
D03*
X767250Y99000D02*
D03*
X772000Y75000D02*
D03*
X702000Y26000D02*
D03*
X708000D02*
D03*
X298000Y346000D02*
D03*
X293000Y377000D02*
D03*
X290000Y360000D02*
D03*
X308000D02*
D03*
X178250Y354250D02*
D03*
X178250Y321750D02*
D03*
X178250Y315250D02*
D03*
X146500Y376500D02*
D03*
X155000Y362000D02*
D03*
X243000Y284000D02*
D03*
X224000Y285000D02*
D03*
X211500Y221500D02*
D03*
X206500Y215500D02*
D03*
X196000Y225000D02*
D03*
Y245000D02*
D03*
X258500Y246500D02*
D03*
Y223500D02*
D03*
X262000Y275000D02*
D03*
X267000Y190000D02*
D03*
X259000Y195000D02*
D03*
X244000Y221000D02*
D03*
X226000D02*
D03*
X233500Y246500D02*
D03*
X310000Y278000D02*
D03*
X60000Y297000D02*
D03*
Y272000D02*
D03*
X185000Y197000D02*
D03*
X235000Y210000D02*
D03*
X145000Y248000D02*
D03*
X130000D02*
D03*
X160000D02*
D03*
X135000Y218000D02*
D03*
X122000D02*
D03*
X116000Y261000D02*
D03*
X127000Y269000D02*
D03*
X174000Y267000D02*
D03*
X288000Y346000D02*
D03*
X74000Y291000D02*
D03*
X288000Y220000D02*
D03*
X306000Y198000D02*
D03*
M02*
