G04 Layer_Color=16711935*
%FSLAX44Y44*%
%MOMM*%
G71*
G01*
G75*
%ADD49C,1.3000*%
%ADD50C,3.5000*%
%ADD62C,1.5000*%
%ADD63C,1.7000*%
%ADD97R,1.3000X0.9000*%
%ADD98R,1.0000X1.0000*%
G04:AMPARAMS|DCode=99|XSize=0.65mm|YSize=0.7mm|CornerRadius=0.1875mm|HoleSize=0mm|Usage=FLASHONLY|Rotation=180.000|XOffset=0mm|YOffset=0mm|HoleType=Round|Shape=RoundedRectangle|*
%AMROUNDEDRECTD99*
21,1,0.6500,0.3250,0,0,180.0*
21,1,0.2750,0.7000,0,0,180.0*
1,1,0.3750,-0.1375,0.1625*
1,1,0.3750,0.1375,0.1625*
1,1,0.3750,0.1375,-0.1625*
1,1,0.3750,-0.1375,-0.1625*
%
%ADD99ROUNDEDRECTD99*%
%ADD102R,0.7000X0.6000*%
%ADD104R,1.2000X1.0000*%
G04:AMPARAMS|DCode=105|XSize=0.8mm|YSize=0.8mm|CornerRadius=0.25mm|HoleSize=0mm|Usage=FLASHONLY|Rotation=0.000|XOffset=0mm|YOffset=0mm|HoleType=Round|Shape=RoundedRectangle|*
%AMROUNDEDRECTD105*
21,1,0.8000,0.3000,0,0,0.0*
21,1,0.3000,0.8000,0,0,0.0*
1,1,0.5000,0.1500,-0.1500*
1,1,0.5000,-0.1500,-0.1500*
1,1,0.5000,-0.1500,0.1500*
1,1,0.5000,0.1500,0.1500*
%
%ADD105ROUNDEDRECTD105*%
G04:AMPARAMS|DCode=106|XSize=0.8mm|YSize=0.8mm|CornerRadius=0.25mm|HoleSize=0mm|Usage=FLASHONLY|Rotation=90.000|XOffset=0mm|YOffset=0mm|HoleType=Round|Shape=RoundedRectangle|*
%AMROUNDEDRECTD106*
21,1,0.8000,0.3000,0,0,90.0*
21,1,0.3000,0.8000,0,0,90.0*
1,1,0.5000,0.1500,0.1500*
1,1,0.5000,0.1500,-0.1500*
1,1,0.5000,-0.1500,-0.1500*
1,1,0.5000,-0.1500,0.1500*
%
%ADD106ROUNDEDRECTD106*%
%ADD108R,1.2000X2.0000*%
G04:AMPARAMS|DCode=109|XSize=0.7mm|YSize=0.7mm|CornerRadius=0.2mm|HoleSize=0mm|Usage=FLASHONLY|Rotation=90.000|XOffset=0mm|YOffset=0mm|HoleType=Round|Shape=RoundedRectangle|*
%AMROUNDEDRECTD109*
21,1,0.7000,0.3000,0,0,90.0*
21,1,0.3000,0.7000,0,0,90.0*
1,1,0.4000,0.1500,0.1500*
1,1,0.4000,0.1500,-0.1500*
1,1,0.4000,-0.1500,-0.1500*
1,1,0.4000,-0.1500,0.1500*
%
%ADD109ROUNDEDRECTD109*%
%ADD110R,1.0000X1.0000*%
%ADD117R,2.0000X1.2000*%
%ADD118R,0.9000X1.3000*%
%ADD122C,2.0000*%
%ADD123C,1.8000*%
%ADD124C,0.1000*%
%ADD125R,1.7000X1.7000*%
%ADD126C,3.6000*%
%ADD127C,2.4000*%
%ADD128R,2.1000X2.0000*%
%ADD129C,1.6500*%
%ADD130R,1.5000X1.5000*%
G04:AMPARAMS|DCode=131|XSize=1.5mm|YSize=2.2mm|CornerRadius=0.425mm|HoleSize=0mm|Usage=FLASHONLY|Rotation=180.000|XOffset=0mm|YOffset=0mm|HoleType=Round|Shape=RoundedRectangle|*
%AMROUNDEDRECTD131*
21,1,1.5000,1.3500,0,0,180.0*
21,1,0.6500,2.2000,0,0,180.0*
1,1,0.8500,-0.3250,0.6750*
1,1,0.8500,0.3250,0.6750*
1,1,0.8500,0.3250,-0.6750*
1,1,0.8500,-0.3250,-0.6750*
%
%ADD131ROUNDEDRECTD131*%
%ADD132C,3.1000*%
G04:AMPARAMS|DCode=133|XSize=2mm|YSize=1.4mm|CornerRadius=0mm|HoleSize=0mm|Usage=FLASHONLY|Rotation=315.000|XOffset=0mm|YOffset=0mm|HoleType=Round|Shape=Rectangle|*
%AMROTATEDRECTD133*
4,1,4,-1.2021,0.2121,-0.2121,1.2021,1.2021,-0.2121,0.2121,-1.2021,-1.2021,0.2121,0.0*
%
%ADD133ROTATEDRECTD133*%

G04:AMPARAMS|DCode=134|XSize=0.8mm|YSize=0.8mm|CornerRadius=0.25mm|HoleSize=0mm|Usage=FLASHONLY|Rotation=45.000|XOffset=0mm|YOffset=0mm|HoleType=Round|Shape=RoundedRectangle|*
%AMROUNDEDRECTD134*
21,1,0.8000,0.3000,0,0,45.0*
21,1,0.3000,0.8000,0,0,45.0*
1,1,0.5000,0.2121,0.0000*
1,1,0.5000,0.0000,-0.2121*
1,1,0.5000,-0.2121,0.0000*
1,1,0.5000,0.0000,0.2121*
%
%ADD134ROUNDEDRECTD134*%
%ADD135R,0.8000X1.9000*%
%ADD136R,0.8000X2.1000*%
%ADD137R,1.4000X1.5000*%
%ADD138R,1.4000X2.3000*%
%ADD139R,0.4000X2.7000*%
%ADD140R,1.9000X0.5200*%
%ADD141R,3.1000X4.3000*%
%ADD142R,0.3300X0.7630*%
%ADD143R,0.3300X0.6600*%
%ADD144R,0.6600X0.3300*%
%ADD145R,3.8000X1.7000*%
%ADD146O,1.5000X0.5000*%
%ADD147R,2.1000X1.7000*%
%ADD148R,2.2000X2.7000*%
%ADD149R,1.6000X1.9000*%
G04:AMPARAMS|DCode=150|XSize=0.4mm|YSize=0.85mm|CornerRadius=0.125mm|HoleSize=0mm|Usage=FLASHONLY|Rotation=180.000|XOffset=0mm|YOffset=0mm|HoleType=Round|Shape=RoundedRectangle|*
%AMROUNDEDRECTD150*
21,1,0.4000,0.6000,0,0,180.0*
21,1,0.1500,0.8500,0,0,180.0*
1,1,0.2500,-0.0750,0.3000*
1,1,0.2500,0.0750,0.3000*
1,1,0.2500,0.0750,-0.3000*
1,1,0.2500,-0.0750,-0.3000*
%
%ADD150ROUNDEDRECTD150*%
G04:AMPARAMS|DCode=151|XSize=0.4mm|YSize=0.85mm|CornerRadius=0.125mm|HoleSize=0mm|Usage=FLASHONLY|Rotation=270.000|XOffset=0mm|YOffset=0mm|HoleType=Round|Shape=RoundedRectangle|*
%AMROUNDEDRECTD151*
21,1,0.4000,0.6000,0,0,270.0*
21,1,0.1500,0.8500,0,0,270.0*
1,1,0.2500,-0.3000,-0.0750*
1,1,0.2500,-0.3000,0.0750*
1,1,0.2500,0.3000,0.0750*
1,1,0.2500,0.3000,-0.0750*
%
%ADD151ROUNDEDRECTD151*%
%ADD152R,7.1000X7.1000*%
G04:AMPARAMS|DCode=153|XSize=3.1mm|YSize=1.2mm|CornerRadius=0.35mm|HoleSize=0mm|Usage=FLASHONLY|Rotation=90.000|XOffset=0mm|YOffset=0mm|HoleType=Round|Shape=RoundedRectangle|*
%AMROUNDEDRECTD153*
21,1,3.1000,0.5000,0,0,90.0*
21,1,2.4000,1.2000,0,0,90.0*
1,1,0.7000,0.2500,1.2000*
1,1,0.7000,0.2500,-1.2000*
1,1,0.7000,-0.2500,-1.2000*
1,1,0.7000,-0.2500,1.2000*
%
%ADD153ROUNDEDRECTD153*%
D49*
X784000Y81000D02*
D03*
D50*
X454150Y290000D02*
D03*
X339850D02*
D03*
D62*
X797000Y346500D02*
D03*
X707000D02*
D03*
X71000Y372000D02*
D03*
X91000D02*
D03*
D63*
X26000Y288000D02*
D03*
X541700Y268900D02*
D03*
X566700D02*
D03*
X586700D02*
D03*
X611700D02*
D03*
X541700Y242700D02*
D03*
X566700D02*
D03*
X586700D02*
D03*
X611700D02*
D03*
X877000Y244400D02*
D03*
Y219000D02*
D03*
D97*
X767000Y56000D02*
D03*
Y38000D02*
D03*
X743000Y56000D02*
D03*
Y38000D02*
D03*
Y74000D02*
D03*
Y92000D02*
D03*
X719000Y56000D02*
D03*
Y38000D02*
D03*
D98*
X68000Y305000D02*
D03*
X82000D02*
D03*
X221000Y197000D02*
D03*
X235000D02*
D03*
X786000Y19000D02*
D03*
X800000D02*
D03*
D99*
X714000Y93000D02*
D03*
X724000D02*
D03*
Y77000D02*
D03*
X714000D02*
D03*
X634000Y99000D02*
D03*
X624000D02*
D03*
X379000D02*
D03*
X389000D02*
D03*
X502000D02*
D03*
X492000D02*
D03*
D102*
X855000Y226000D02*
D03*
Y239000D02*
D03*
X836000D02*
D03*
Y232500D02*
D03*
Y226000D02*
D03*
D104*
X352500Y121000D02*
D03*
Y101000D02*
D03*
X329500Y111000D02*
D03*
X283500D02*
D03*
X306500Y101000D02*
D03*
Y121000D02*
D03*
D105*
X823000Y32000D02*
D03*
Y42000D02*
D03*
X764000Y78000D02*
D03*
Y88000D02*
D03*
X71000Y89000D02*
D03*
Y79000D02*
D03*
X677000Y258000D02*
D03*
Y248000D02*
D03*
X170000Y65000D02*
D03*
Y75000D02*
D03*
X153000Y65000D02*
D03*
Y75000D02*
D03*
X375000Y118000D02*
D03*
Y128000D02*
D03*
X751000Y10000D02*
D03*
Y20000D02*
D03*
X735000Y10000D02*
D03*
Y20000D02*
D03*
X719000Y10000D02*
D03*
Y20000D02*
D03*
X767000Y10000D02*
D03*
Y20000D02*
D03*
X703000Y220000D02*
D03*
Y230000D02*
D03*
X685000Y220000D02*
D03*
Y230000D02*
D03*
X694000Y248000D02*
D03*
Y258000D02*
D03*
X712000Y248000D02*
D03*
Y258000D02*
D03*
X23000Y79000D02*
D03*
Y89000D02*
D03*
X51000D02*
D03*
Y79000D02*
D03*
X158000Y11000D02*
D03*
Y21000D02*
D03*
X321000Y169000D02*
D03*
Y159000D02*
D03*
X88000Y196000D02*
D03*
Y186000D02*
D03*
X851000Y289000D02*
D03*
Y279000D02*
D03*
X224000Y239000D02*
D03*
Y229000D02*
D03*
X243000Y239000D02*
D03*
Y229000D02*
D03*
D106*
X646000Y166000D02*
D03*
X656000D02*
D03*
X570000Y99000D02*
D03*
X580000D02*
D03*
X507000Y131000D02*
D03*
X517000D02*
D03*
Y148500D02*
D03*
X507000D02*
D03*
X643000Y149000D02*
D03*
X653000D02*
D03*
X643000Y129000D02*
D03*
X653000D02*
D03*
X517000Y192000D02*
D03*
X507000D02*
D03*
X544000Y99000D02*
D03*
X554000D02*
D03*
X643000Y209000D02*
D03*
X653000D02*
D03*
X598000Y99000D02*
D03*
X608000D02*
D03*
X798000Y37000D02*
D03*
X788000D02*
D03*
X302000Y177000D02*
D03*
X292000D02*
D03*
X302000Y159000D02*
D03*
X292000D02*
D03*
X186000Y18000D02*
D03*
X176000D02*
D03*
X219000Y373000D02*
D03*
X209000D02*
D03*
X214000Y259000D02*
D03*
X224000D02*
D03*
X214000Y278000D02*
D03*
X224000D02*
D03*
X253000Y259000D02*
D03*
X243000D02*
D03*
X186000D02*
D03*
X196000D02*
D03*
X202000Y197000D02*
D03*
X192000D02*
D03*
X243000Y278000D02*
D03*
X253000D02*
D03*
X196000D02*
D03*
X186000D02*
D03*
X302000Y140000D02*
D03*
X292000D02*
D03*
X841000Y261000D02*
D03*
X851000D02*
D03*
X418000Y99000D02*
D03*
X408000D02*
D03*
X403000Y118000D02*
D03*
X393000D02*
D03*
X507000Y210000D02*
D03*
X517000D02*
D03*
D108*
X74000Y329000D02*
D03*
X104000D02*
D03*
X267000Y202000D02*
D03*
X297000D02*
D03*
Y232000D02*
D03*
X267000D02*
D03*
D109*
X518000Y99000D02*
D03*
X528000D02*
D03*
D110*
X90000Y88000D02*
D03*
Y74000D02*
D03*
X240000Y373000D02*
D03*
X254000D02*
D03*
X69000Y186000D02*
D03*
Y200000D02*
D03*
D117*
X293000Y369000D02*
D03*
Y339000D02*
D03*
X130000Y226000D02*
D03*
Y256000D02*
D03*
X160000D02*
D03*
Y226000D02*
D03*
D118*
X644000Y189000D02*
D03*
X662000D02*
D03*
D122*
X855000Y45000D02*
D03*
D123*
X116000Y81000D02*
D03*
X81300Y18000D02*
D03*
X106700D02*
D03*
X365250Y201100D02*
D03*
X390650D02*
D03*
X416050D02*
D03*
X352550Y226500D02*
D03*
X377950D02*
D03*
X403350D02*
D03*
X428750Y226500D02*
D03*
X441450Y201100D02*
D03*
X333754Y339022D02*
D03*
X359154Y323782D02*
D03*
X434846Y339022D02*
D03*
X460246Y323782D02*
D03*
X877000Y193600D02*
D03*
D124*
X272500Y367000D02*
D03*
X192500D02*
D03*
D125*
X26000Y313000D02*
D03*
X877000Y269800D02*
D03*
D126*
X511000Y296000D02*
D03*
Y239200D02*
D03*
X642400D02*
D03*
Y296000D02*
D03*
D127*
X475740Y259520D02*
D03*
X318260D02*
D03*
D128*
X20000Y245000D02*
D03*
Y181000D02*
D03*
D129*
X47000Y238000D02*
D03*
Y188000D02*
D03*
D130*
X111000Y372000D02*
D03*
D131*
X132000D02*
D03*
X50000D02*
D03*
D132*
X25000Y25000D02*
D03*
Y375000D02*
D03*
X875000D02*
D03*
Y25000D02*
D03*
D133*
X450314Y108745D02*
D03*
X422029Y137029D02*
D03*
X467284Y125716D02*
D03*
X439000Y154000D02*
D03*
D134*
X475465Y170536D02*
D03*
X482536Y163465D02*
D03*
X479535Y142465D02*
D03*
X472464Y149536D02*
D03*
X453465Y168535D02*
D03*
X460536Y161465D02*
D03*
D135*
X55000Y154000D02*
D03*
X65000D02*
D03*
X75000D02*
D03*
X85000D02*
D03*
X95000D02*
D03*
X105000D02*
D03*
X115000D02*
D03*
X125000D02*
D03*
X135000D02*
D03*
X145000D02*
D03*
X155000D02*
D03*
X165000D02*
D03*
X175000D02*
D03*
X185000D02*
D03*
X195000D02*
D03*
X845000D02*
D03*
X835000D02*
D03*
X825000D02*
D03*
X815000D02*
D03*
X805000D02*
D03*
X795000D02*
D03*
X785000D02*
D03*
X775000D02*
D03*
X765000D02*
D03*
X755000D02*
D03*
X745000D02*
D03*
X735000D02*
D03*
X725000D02*
D03*
X715000D02*
D03*
X705000D02*
D03*
D136*
X55000Y116500D02*
D03*
X65000D02*
D03*
X75000D02*
D03*
X85000D02*
D03*
X95000D02*
D03*
X105000D02*
D03*
X115000D02*
D03*
X125000D02*
D03*
X135000D02*
D03*
X145000D02*
D03*
X155000D02*
D03*
X165000D02*
D03*
X175000D02*
D03*
X185000D02*
D03*
X195000D02*
D03*
X845000D02*
D03*
X835000D02*
D03*
X825000D02*
D03*
X815000D02*
D03*
X805000D02*
D03*
X795000D02*
D03*
X785000D02*
D03*
X775000D02*
D03*
X765000D02*
D03*
X755000D02*
D03*
X745000D02*
D03*
X735000D02*
D03*
X725000D02*
D03*
X715000D02*
D03*
X705000D02*
D03*
D137*
X832500Y354000D02*
D03*
X671500D02*
D03*
D138*
Y294500D02*
D03*
X832500D02*
D03*
D139*
X707000Y287000D02*
D03*
X712000D02*
D03*
X717000D02*
D03*
X722000D02*
D03*
X727000D02*
D03*
X732000D02*
D03*
X737000D02*
D03*
X742000D02*
D03*
X747000D02*
D03*
X752000D02*
D03*
X757000D02*
D03*
X762000D02*
D03*
X767000D02*
D03*
X772000D02*
D03*
X777000D02*
D03*
X782000D02*
D03*
X787000D02*
D03*
X792000D02*
D03*
X797000D02*
D03*
D140*
X249700Y354250D02*
D03*
Y347750D02*
D03*
Y341250D02*
D03*
Y334750D02*
D03*
Y328250D02*
D03*
Y321750D02*
D03*
Y315250D02*
D03*
Y308750D02*
D03*
Y302250D02*
D03*
Y295750D02*
D03*
X190300D02*
D03*
Y302250D02*
D03*
Y308750D02*
D03*
Y315250D02*
D03*
Y321750D02*
D03*
Y328250D02*
D03*
Y334750D02*
D03*
Y341250D02*
D03*
Y347750D02*
D03*
Y354250D02*
D03*
D141*
X220000Y325000D02*
D03*
D142*
X267000Y147750D02*
D03*
D143*
X263000Y147250D02*
D03*
Y158750D02*
D03*
X267000D02*
D03*
D144*
X257250Y149000D02*
D03*
Y153000D02*
D03*
X257250Y157000D02*
D03*
X272750D02*
D03*
X272750Y153000D02*
D03*
X272750Y149000D02*
D03*
D145*
X287000Y313000D02*
D03*
Y282000D02*
D03*
X151000Y313000D02*
D03*
Y282000D02*
D03*
D146*
X47000Y213000D02*
D03*
Y206500D02*
D03*
Y200000D02*
D03*
Y226000D02*
D03*
Y219500D02*
D03*
D147*
X20000Y203000D02*
D03*
Y223000D02*
D03*
D148*
X145000Y193000D02*
D03*
X115000D02*
D03*
D149*
X85000Y240000D02*
D03*
Y278000D02*
D03*
D150*
X542500Y204750D02*
D03*
X547500D02*
D03*
X552500D02*
D03*
X557500D02*
D03*
X562500D02*
D03*
X567500D02*
D03*
X572500D02*
D03*
X577500D02*
D03*
X582500D02*
D03*
X587500D02*
D03*
X592500D02*
D03*
X597500D02*
D03*
X602500D02*
D03*
X607500D02*
D03*
X612500D02*
D03*
X617500D02*
D03*
Y117250D02*
D03*
X612500D02*
D03*
X607500D02*
D03*
X602500D02*
D03*
X597500D02*
D03*
X592500D02*
D03*
X587500D02*
D03*
X582500D02*
D03*
X577500D02*
D03*
X572500D02*
D03*
X567500D02*
D03*
X562500D02*
D03*
X557500D02*
D03*
X552500D02*
D03*
X547500D02*
D03*
X542500D02*
D03*
D151*
X623750Y198500D02*
D03*
Y193500D02*
D03*
Y188500D02*
D03*
Y183500D02*
D03*
Y178500D02*
D03*
Y173500D02*
D03*
Y168500D02*
D03*
Y163500D02*
D03*
Y158500D02*
D03*
Y153500D02*
D03*
Y148500D02*
D03*
Y143500D02*
D03*
Y138500D02*
D03*
Y133500D02*
D03*
Y128500D02*
D03*
Y123500D02*
D03*
X536250D02*
D03*
Y128500D02*
D03*
X536250Y133500D02*
D03*
Y138500D02*
D03*
Y143500D02*
D03*
Y148500D02*
D03*
Y153500D02*
D03*
X536250Y158500D02*
D03*
Y163500D02*
D03*
X536250Y168500D02*
D03*
Y173500D02*
D03*
Y178500D02*
D03*
Y183500D02*
D03*
Y188500D02*
D03*
Y193500D02*
D03*
Y198500D02*
D03*
D152*
X580000Y161000D02*
D03*
D153*
X513500Y71740D02*
D03*
Y22440D02*
D03*
X208700D02*
D03*
Y71740D02*
D03*
X234100Y22440D02*
D03*
Y71740D02*
D03*
X259500Y22440D02*
D03*
Y71740D02*
D03*
X284900Y22440D02*
D03*
Y71740D02*
D03*
X310300Y22440D02*
D03*
Y71740D02*
D03*
X335700Y22440D02*
D03*
Y71740D02*
D03*
X361100Y22440D02*
D03*
Y71740D02*
D03*
X386500Y22440D02*
D03*
Y71740D02*
D03*
X411900Y22440D02*
D03*
Y71740D02*
D03*
X437300Y22440D02*
D03*
Y71740D02*
D03*
X462700Y22440D02*
D03*
Y71740D02*
D03*
X488100Y22440D02*
D03*
Y71740D02*
D03*
X538900Y22440D02*
D03*
Y71740D02*
D03*
X564300Y22440D02*
D03*
Y71740D02*
D03*
X589700Y22440D02*
D03*
Y71740D02*
D03*
X615100Y22440D02*
D03*
Y71740D02*
D03*
X640500Y22440D02*
D03*
Y71740D02*
D03*
X665900Y22440D02*
D03*
Y71740D02*
D03*
X691300Y22440D02*
D03*
Y71740D02*
D03*
M02*
